<?xml version="1.0" encoding="UTF-8"?>
<!DOCTYPE svg PUBLIC "-//W3C//DTD SVG 1.1//EN" "http://www.w3.org/Graphics/SVG/1.1/DTD/svg11.dtd">
<svg xmlns="http://www.w3.org/2000/svg" version="1.1" width="256px" height="256px" style="shape-rendering:geometricPrecision; text-rendering:geometricPrecision; image-rendering:optimizeQuality; fill-rule:evenodd; clip-rule:evenodd" xmlns:xlink="http://www.w3.org/1999/xlink">
<g><path style="opacity:0.973" fill="#ac4a45" d="M 95.5,67.5 C 117.663,66.3371 139.996,66.1704 162.5,67C 166.089,68.6742 167.755,71.5075 167.5,75.5C 167.167,75.5 166.833,75.5 166.5,75.5C 166.062,71.2291 163.729,68.7291 159.5,68C 138.169,67.5 116.836,67.3334 95.5,67.5 Z"/></g>
<g><path style="opacity:1" fill="#cf312d" d="M 95.5,67.5 C 116.836,67.3334 138.169,67.5 159.5,68C 163.729,68.7291 166.062,71.2291 166.5,75.5C 166.5,108.5 166.5,141.5 166.5,174.5C 163.167,175.833 159.833,175.833 156.5,174.5C 156.027,173.094 155.027,172.427 153.5,172.5C 152.89,171.609 152.557,170.609 152.5,169.5C 151.766,168.292 151.433,166.959 151.5,165.5C 146.58,167.588 144.58,165.922 145.5,160.5C 146.5,160.5 147.5,160.5 148.5,160.5C 150.26,162.559 152.594,163.892 155.5,164.5C 155.369,165.239 155.536,165.906 156,166.5C 157.356,165.62 158.856,165.286 160.5,165.5C 160.829,159.463 160.496,153.463 159.5,147.5C 156.309,144.786 152.642,143.119 148.5,142.5C 147.203,138.842 144.537,137.176 140.5,137.5C 140.461,136.417 140.127,135.417 139.5,134.5C 137.223,133.579 134.89,132.913 132.5,132.5C 129.76,130.427 126.926,128.427 124,126.5C 121.756,128.321 120.59,130.654 120.5,133.5C 116.734,133.426 113.734,134.926 111.5,138C 108.832,138.567 106.166,139.067 103.5,139.5C 103.5,141.167 103.5,142.833 103.5,144.5C 102.101,145.89 100.434,146.89 98.5,147.5C 97.1667,147.5 95.8333,147.5 94.5,147.5C 94.5,153.833 94.5,160.167 94.5,166.5C 98.307,165.774 100.974,167.107 102.5,170.5C 99.5641,171.406 96.5641,172.072 93.5,172.5C 93.5,173.833 93.5,175.167 93.5,176.5C 91.8561,176.714 90.3561,176.38 89,175.5C 88.5,140.835 88.3333,106.168 88.5,71.5C 90.7912,70.235 93.1246,68.9017 95.5,67.5 Z M 132.5,132.5 C 134.629,134.95 137.296,136.617 140.5,137.5C 142.629,139.95 145.296,141.617 148.5,142.5C 151.332,145.178 154.499,147.512 158,149.5C 158.816,154.684 158.65,159.684 157.5,164.5C 150.87,160.18 144.203,155.847 137.5,151.5C 136.395,150.4 135.062,149.733 133.5,149.5C 127.998,145.246 122.998,145.913 118.5,151.5C 112.822,154.336 107.489,157.669 102.5,161.5C 100.326,161.75 98.6594,162.75 97.5,164.5C 96.5128,159.695 96.1795,154.695 96.5,149.5C 97.5,149.167 98.1667,148.5 98.5,147.5C 100.434,146.89 102.101,145.89 103.5,144.5C 110.945,140.273 118.278,135.773 125.5,131C 127.851,131.14 130.184,131.64 132.5,132.5 Z"/></g>
<g><path style="opacity:0.958" fill="#b8403d" d="M 166.5,75.5 C 166.833,75.5 167.167,75.5 167.5,75.5C 167.18,93.5469 167.513,111.547 168.5,129.5C 167.848,145.294 167.181,160.961 166.5,176.5C 164.167,176.5 161.833,176.5 159.5,176.5C 158.29,176.068 157.29,175.401 156.5,174.5C 159.833,175.833 163.167,175.833 166.5,174.5C 166.5,141.5 166.5,108.5 166.5,75.5 Z"/></g>
<g><path style="opacity:1" fill="#cc5b59" d="M 132.5,132.5 C 134.89,132.913 137.223,133.579 139.5,134.5C 140.127,135.417 140.461,136.417 140.5,137.5C 137.296,136.617 134.629,134.95 132.5,132.5 Z"/></g>
<g><path style="opacity:1" fill="#cc544e" d="M 132.5,132.5 C 130.184,131.64 127.851,131.14 125.5,131C 118.278,135.773 110.945,140.273 103.5,144.5C 103.5,142.833 103.5,141.167 103.5,139.5C 106.166,139.067 108.832,138.567 111.5,138C 113.734,134.926 116.734,133.426 120.5,133.5C 120.59,130.654 121.756,128.321 124,126.5C 126.926,128.427 129.76,130.427 132.5,132.5 Z"/></g>
<g><path style="opacity:1" fill="#c65958" d="M 140.5,137.5 C 144.537,137.176 147.203,138.842 148.5,142.5C 145.296,141.617 142.629,139.95 140.5,137.5 Z"/></g>
<g><path style="opacity:1" fill="#ca5c57" d="M 133.5,149.5 C 131.453,149.489 129.453,149.156 127.5,148.5C 124.684,149.956 121.684,150.956 118.5,151.5C 122.998,145.913 127.998,145.246 133.5,149.5 Z"/></g>
<g><path style="opacity:1" fill="#c1443f" d="M 148.5,142.5 C 152.642,143.119 156.309,144.786 159.5,147.5C 160.496,153.463 160.829,159.463 160.5,165.5C 158.856,165.286 157.356,165.62 156,166.5C 155.536,165.906 155.369,165.239 155.5,164.5C 156.167,164.5 156.833,164.5 157.5,164.5C 158.65,159.684 158.816,154.684 158,149.5C 154.499,147.512 151.332,145.178 148.5,142.5 Z"/></g>
<g><path style="opacity:1" fill="#cd3832" d="M 98.5,147.5 C 98.1667,148.5 97.5,149.167 96.5,149.5C 95.1853,154.68 95.1853,160.014 96.5,165.5C 97.1067,165.376 97.44,165.043 97.5,164.5C 99.8477,164.408 101.514,163.408 102.5,161.5C 107.489,157.669 112.822,154.336 118.5,151.5C 121.684,150.956 124.684,149.956 127.5,148.5C 129.453,149.156 131.453,149.489 133.5,149.5C 135.062,149.733 136.395,150.4 137.5,151.5C 137.281,152.675 137.614,153.675 138.5,154.5C 141.524,157.188 144.858,159.188 148.5,160.5C 147.5,160.5 146.5,160.5 145.5,160.5C 144.58,165.922 146.58,167.588 151.5,165.5C 151.433,166.959 151.766,168.292 152.5,169.5C 150.442,168.067 148.108,167.4 145.5,167.5C 140.657,165.582 136.323,162.916 132.5,159.5C 131.181,157.266 129.181,155.932 126.5,155.5C 124.958,156.747 123.458,156.747 122,155.5C 121.693,158.876 119.86,160.21 116.5,159.5C 116.5,160.833 116.5,162.167 116.5,163.5C 115.833,163.833 115.167,164.167 114.5,164.5C 111.91,164.396 109.577,165.063 107.5,166.5C 106.558,166.392 105.725,166.059 105,165.5C 104.901,167.653 104.067,169.319 102.5,170.5C 100.974,167.107 98.307,165.774 94.5,166.5C 94.5,160.167 94.5,153.833 94.5,147.5C 95.8333,147.5 97.1667,147.5 98.5,147.5 Z"/></g>
<g><path style="opacity:1" fill="#d3655d" d="M 132.5,159.5 C 130.634,158.986 128.8,158.32 127,157.5C 123.407,159.378 119.907,161.378 116.5,163.5C 116.5,162.167 116.5,160.833 116.5,159.5C 119.86,160.21 121.693,158.876 122,155.5C 123.458,156.747 124.958,156.747 126.5,155.5C 129.181,155.932 131.181,157.266 132.5,159.5 Z"/></g>
<g><path style="opacity:0.702" fill="#c36e6f" d="M 96.5,149.5 C 96.1795,154.695 96.5128,159.695 97.5,164.5C 97.44,165.043 97.1067,165.376 96.5,165.5C 95.1853,160.014 95.1853,154.68 96.5,149.5 Z"/></g>
<g><path style="opacity:1" fill="#cb5751" d="M 137.5,151.5 C 144.203,155.847 150.87,160.18 157.5,164.5C 156.833,164.5 156.167,164.5 155.5,164.5C 152.594,163.892 150.26,162.559 148.5,160.5C 144.858,159.188 141.524,157.188 138.5,154.5C 137.614,153.675 137.281,152.675 137.5,151.5 Z"/></g>
<g><path style="opacity:0.914" fill="#d5706e" d="M 102.5,161.5 C 101.514,163.408 99.8477,164.408 97.5,164.5C 98.6594,162.75 100.326,161.75 102.5,161.5 Z"/></g>
<g><path style="opacity:1" fill="#ce635f" d="M 145.5,167.5 C 148.108,167.4 150.442,168.067 152.5,169.5C 152.557,170.609 152.89,171.609 153.5,172.5C 150.489,171.331 147.822,169.664 145.5,167.5 Z"/></g>
<g><path style="opacity:1" fill="#d7766d" d="M 88.5,71.5 C 88.3333,106.168 88.5,140.835 89,175.5C 90.3561,176.38 91.8561,176.714 93.5,176.5C 93.5,175.167 93.5,173.833 93.5,172.5C 96.5641,172.072 99.5641,171.406 102.5,170.5C 104.067,169.319 104.901,167.653 105,165.5C 105.725,166.059 106.558,166.392 107.5,166.5C 109.577,165.063 111.91,164.396 114.5,164.5C 107.364,169.907 99.6977,174.574 91.5,178.5C 88.7633,177.931 87.2633,176.264 87,173.5C 86.3333,140.833 86.3333,108.167 87,75.5C 87.21,73.9419 87.71,72.6085 88.5,71.5 Z"/></g>
<g><path style="opacity:0.533" fill="#e19791" d="M 153.5,172.5 C 155.027,172.427 156.027,173.094 156.5,174.5C 154.973,174.573 153.973,173.906 153.5,172.5 Z"/></g>
<g><path style="opacity:0.988" fill="#db8582" d="M 159.5,176.5 C 161.833,176.5 164.167,176.5 166.5,176.5C 164.167,179.167 161.833,179.167 159.5,176.5 Z"/></g>
</svg>
