<?xml version="1.0" encoding="UTF-8"?>
<!DOCTYPE svg PUBLIC "-//W3C//DTD SVG 1.1//EN" "http://www.w3.org/Graphics/SVG/1.1/DTD/svg11.dtd">
<svg xmlns="http://www.w3.org/2000/svg" version="1.1" width="256px" height="256px" style="shape-rendering:geometricPrecision; text-rendering:geometricPrecision; image-rendering:optimizeQuality; fill-rule:evenodd; clip-rule:evenodd" xmlns:xlink="http://www.w3.org/1999/xlink">
<g><path style="opacity:0.947" fill="#b7413d" d="M 227.5,202.5 C 227.337,200.143 227.503,197.81 228,195.5C 228.414,195.043 228.914,194.709 229.5,194.5C 230.833,147.167 230.833,99.8333 229.5,52.5C 228.177,50.3176 226.51,49.6509 224.5,50.5C 223.304,50.1543 223.304,49.6543 224.5,49C 160.168,48.5 95.8342,48.3333 31.5,48.5C 32.531,47.7515 33.6976,47.0848 35,46.5C 99.4703,47.1684 163.97,47.8351 228.5,48.5C 229.333,49.5 230.167,50.5 231,51.5C 232.12,100.161 232.12,148.828 231,197.5C 230.303,199.584 229.136,201.251 227.5,202.5 Z"/></g>
<g><path style="opacity:1" fill="#cf312d" d="M 31.5,48.5 C 95.8342,48.3333 160.168,48.5 224.5,49C 223.304,49.6543 223.304,50.1543 224.5,50.5C 226.51,49.6509 228.177,50.3176 229.5,52.5C 230.833,99.8333 230.833,147.167 229.5,194.5C 228.914,194.709 228.414,195.043 228,195.5C 227.503,197.81 227.337,200.143 227.5,202.5C 226.167,202.5 224.833,202.5 223.5,202.5C 223.5,203.5 223.5,204.5 223.5,205.5C 159.5,206.833 95.5,206.833 31.5,205.5C 30.4274,202.764 28.4274,201.097 25.5,200.5C 25.5,200.167 25.5,199.833 25.5,199.5C 24.1905,150.848 24.1905,102.181 25.5,53.5C 27.1112,52.6798 27.7778,51.3464 27.5,49.5C 28.7079,48.7659 30.0413,48.4326 31.5,48.5 Z M 43.5,77.5 C 44.5,79.1667 45.8333,80.5 47.5,81.5C 49.2393,84.2427 51.5726,86.2427 54.5,87.5C 56.8333,90.5 59.5,93.1667 62.5,95.5C 63.2623,97.2624 64.5956,98.2624 66.5,98.5C 68.5,101.167 70.8333,103.5 73.5,105.5C 74.5846,107.587 76.2512,108.92 78.5,109.5C 80.8333,112.5 83.5,115.167 86.5,117.5C 87.2623,119.262 88.5956,120.262 90.5,120.5C 92.1667,122.833 94.1667,124.833 96.5,126.5C 97.9108,128.914 99.9108,130.581 102.5,131.5C 104.167,133.833 106.167,135.833 108.5,137.5C 109.911,139.914 111.911,141.581 114.5,142.5C 116.9,145.903 119.9,148.57 123.5,150.5C 125.343,151.283 127.343,151.95 129.5,152.5C 130.522,152.145 131.189,151.478 131.5,150.5C 139.764,144.573 147.43,137.907 154.5,130.5C 157.167,128.5 159.5,126.167 161.5,123.5C 162.833,122.833 163.833,121.833 164.5,120.5C 172.472,113.863 180.139,106.863 187.5,99.5C 188.71,99.0679 189.71,98.4013 190.5,97.5C 195.526,92.8053 200.526,88.1387 205.5,83.5C 206.833,82.8333 207.833,81.8333 208.5,80.5C 210.481,78.8564 212.481,77.1897 214.5,75.5C 215.5,114.161 215.833,152.828 215.5,191.5C 156.833,191.5 98.1667,191.5 39.5,191.5C 39.1668,152.828 39.5001,114.161 40.5,75.5C 41.5178,76.1925 42.5178,76.8592 43.5,77.5 Z"/></g>
<g><path style="opacity:1" fill="#fef8f3" d="M 24.5,50.5 C 24.1667,51.8333 23.8333,53.1667 23.5,54.5C 20.0495,53.2319 20.2162,51.5652 24,49.5C 24.3988,49.7284 24.5654,50.0618 24.5,50.5 Z"/></g>
<g><path style="opacity:0.959" fill="#b6403e" d="M 27.5,49.5 C 27.7778,51.3464 27.1112,52.6798 25.5,53.5C 24.1905,102.181 24.1905,150.848 25.5,199.5C 24.7784,199.082 24.2784,198.416 24,197.5C 23.5,149.834 23.3333,102.168 23.5,54.5C 23.8333,53.1667 24.1667,51.8333 24.5,50.5C 25.391,49.8902 26.391,49.5569 27.5,49.5 Z"/></g>
<g><path style="opacity:0.847" fill="#e1a9a3" d="M 47.5,81.5 C 50.4274,82.7573 52.7607,84.7573 54.5,87.5C 51.5726,86.2427 49.2393,84.2427 47.5,81.5 Z"/></g>
<g><path style="opacity:1" fill="#cf6963" d="M 54.5,87.5 C 58.5167,88.85 61.1833,91.5166 62.5,95.5C 59.5,93.1667 56.8333,90.5 54.5,87.5 Z"/></g>
<g><path style="opacity:1" fill="#d55e53" d="M 205.5,83.5 C 200.526,88.1387 195.526,92.8053 190.5,97.5C 190.5,95.5 190.5,93.5 190.5,91.5C 191.5,91.5 192.5,91.5 193.5,91.5C 193.5,90.5 193.5,89.5 193.5,88.5C 194.833,88.5 196.167,88.5 197.5,88.5C 197.67,87.1779 197.337,86.0113 196.5,85C 197.191,83.9326 197.691,82.7659 198,81.5C 198.508,83.9042 199.675,84.5709 201.5,83.5C 199.252,82.676 199.086,81.676 201,80.5C 202.4,81.748 203.9,82.748 205.5,83.5 Z"/></g>
<g><path style="opacity:0.958" fill="#b33d3b" d="M 43.5,77.5 C 42.5178,76.8592 41.5178,76.1925 40.5,75.5C 39.5001,114.161 39.1668,152.828 39.5,191.5C 38.5015,152.67 38.1681,113.67 38.5,74.5C 40.1667,74.5 41.8333,74.5 43.5,74.5C 43.5,75.5 43.5,76.5 43.5,77.5 Z"/></g>
<g><path style="opacity:0.97" fill="#b7403e" d="M 215.5,191.5 C 215.833,152.828 215.5,114.161 214.5,75.5C 212.481,77.1897 210.481,78.8564 208.5,80.5C 208.5,78.8333 208.5,77.1667 208.5,75.5C 210.6,75.5228 212.433,74.8561 214,73.5C 214.772,73.6448 215.439,73.9781 216,74.5C 216.831,113.669 216.665,152.669 215.5,191.5 Z"/></g>
<g><path style="opacity:1" fill="#ca7a73" d="M 62.5,95.5 C 64.632,95.5544 65.9653,96.5544 66.5,98.5C 64.5956,98.2624 63.2623,97.2624 62.5,95.5 Z"/></g>
<g><path style="opacity:1" fill="#cf685d" d="M 66.5,98.5 C 70.1667,99.5 72.5,101.833 73.5,105.5C 70.8333,103.5 68.5,101.167 66.5,98.5 Z"/></g>
<g><path style="opacity:1" fill="#d5594e" d="M 187.5,99.5 C 180.139,106.863 172.472,113.863 164.5,120.5C 163.987,118.71 163.487,117.044 163,115.5C 164.699,116.406 166.533,116.739 168.5,116.5C 168.52,114.857 167.853,113.524 166.5,112.5C 169.212,111.772 171.879,110.939 174.5,110C 173.643,109.311 172.977,108.478 172.5,107.5C 174.5,106.833 176.5,106.167 178.5,105.5C 177.975,104.808 177.308,104.308 176.5,104C 178.107,102.951 178.773,101.451 178.5,99.5C 181.5,99.5 184.5,99.5 187.5,99.5 Z"/></g>
<g><path style="opacity:1" fill="#c9443d" d="M 100.5,128.5 C 99.3951,127.4 98.0618,126.733 96.5,126.5C 94.1667,124.833 92.1667,122.833 90.5,120.5C 89.7377,118.738 88.4044,117.738 86.5,117.5C 83.5,115.167 80.8333,112.5 78.5,109.5C 78.1667,108.833 77.8333,108.167 77.5,107.5C 79.9269,106.026 82.2602,106.193 84.5,108C 82.4311,108.324 82.0977,109.158 83.5,110.5C 85.1667,111.167 86.8333,111.833 88.5,112.5C 87.1468,113.524 86.4802,114.857 86.5,116.5C 88.7925,116.756 90.9592,116.423 93,115.5C 93.1667,115.833 93.3333,116.167 93.5,116.5C 92.624,117.251 91.624,117.751 90.5,118C 92.4663,121.3 95.2996,123.466 99,124.5C 99.7914,125.745 100.291,127.078 100.5,128.5 Z"/></g>
<g><path style="opacity:0.643" fill="#de9993" d="M 73.5,105.5 C 75.153,105.66 76.4863,106.326 77.5,107.5C 77.8333,108.167 78.1667,108.833 78.5,109.5C 76.2512,108.92 74.5846,107.587 73.5,105.5 Z"/></g>
<g><path style="opacity:0.71" fill="#e6adac" d="M 86.5,117.5 C 88.4044,117.738 89.7377,118.738 90.5,120.5C 88.5956,120.262 87.2623,119.262 86.5,117.5 Z"/></g>
<g><path style="opacity:1" fill="#d06d62" d="M 161.5,123.5 C 159.5,126.167 157.167,128.5 154.5,130.5C 153.972,125.189 156.306,122.855 161.5,123.5 Z"/></g>
<g><path style="opacity:0.82" fill="#e0a89c" d="M 96.5,126.5 C 98.0618,126.733 99.3951,127.4 100.5,128.5C 101.167,129.5 101.833,130.5 102.5,131.5C 99.9108,130.581 97.9108,128.914 96.5,126.5 Z"/></g>
<g><path style="opacity:0.843" fill="#e3a2a2" d="M 108.5,137.5 C 110.062,137.733 111.395,138.4 112.5,139.5C 113.167,140.5 113.833,141.5 114.5,142.5C 111.911,141.581 109.911,139.914 108.5,137.5 Z"/></g>
<g><path style="opacity:1" fill="#d15a53" d="M 154.5,130.5 C 147.43,137.907 139.764,144.573 131.5,150.5C 128.833,150.5 126.167,150.5 123.5,150.5C 119.9,148.57 116.9,145.903 114.5,142.5C 113.833,141.5 113.167,140.5 112.5,139.5C 116.3,142.787 120.3,145.954 124.5,149C 126.81,149.497 129.143,149.663 131.5,149.5C 131.5,148.5 131.5,147.5 131.5,146.5C 133.942,146.646 134.609,145.813 133.5,144C 135.134,143.506 136.801,143.34 138.5,143.5C 140.412,141.178 141.745,138.512 142.5,135.5C 143.833,135.5 145.167,135.5 146.5,135.5C 146.714,133.856 146.38,132.356 145.5,131C 146.5,130.5 147.5,130 148.5,129.5C 150.409,130.348 152.409,130.682 154.5,130.5 Z"/></g>
<g><path style="opacity:0.937" fill="#cd7571" d="M 123.5,150.5 C 126.167,150.5 128.833,150.5 131.5,150.5C 131.189,151.478 130.522,152.145 129.5,152.5C 127.343,151.95 125.343,151.283 123.5,150.5 Z"/></g>
<g><path style="opacity:1" fill="#d17c79" d="M 25.5,200.5 C 28.4274,201.097 30.4274,202.764 31.5,205.5C 28.9108,204.581 26.9108,202.914 25.5,200.5 Z"/></g>
<g><path style="opacity:1" fill="#d8807f" d="M 227.5,202.5 C 226.738,204.262 225.404,205.262 223.5,205.5C 223.5,204.5 223.5,203.5 223.5,202.5C 224.833,202.5 226.167,202.5 227.5,202.5 Z"/></g>
<g><path style="opacity:0.977" fill="#b7413c" d="M 31.5,205.5 C 95.5,206.833 159.5,206.833 223.5,205.5C 222.737,206.268 221.737,206.768 220.5,207C 190.125,207.174 159.791,207.674 129.5,208.5C 112.5,207.167 95.5,207.167 78.5,208.5C 63.878,207.683 49.2113,207.183 34.5,207C 33.2625,206.768 32.2625,206.268 31.5,205.5 Z"/></g>
</svg>
