<?xml version="1.0" encoding="UTF-8"?>
<!DOCTYPE svg PUBLIC "-//W3C//DTD SVG 1.1//EN" "http://www.w3.org/Graphics/SVG/1.1/DTD/svg11.dtd">
<svg xmlns="http://www.w3.org/2000/svg" version="1.1" width="256px" height="256px" style="shape-rendering:geometricPrecision; text-rendering:geometricPrecision; image-rendering:optimizeQuality; fill-rule:evenodd; clip-rule:evenodd" xmlns:xlink="http://www.w3.org/1999/xlink">
<g><path style="opacity:1" fill="#f0bb65" d="M 147.5,25.5 C 157.934,26.8661 167.601,30.1994 176.5,35.5C 167.465,31.9907 158.131,29.1573 148.5,27C 147.944,26.6174 147.611,26.1174 147.5,25.5 Z"/></g>
<g><path style="opacity:1" fill="#edaa44" d="M 146.5,25.5 C 140.825,25.366 135.158,25.0326 129.5,24.5C 122.007,25.9706 114.34,26.8039 106.5,27C 96.9563,29.3065 87.623,32.1399 78.5,35.5C 99.9795,23.9196 122.646,20.5863 146.5,25.5 Z"/></g>
<g><path style="opacity:1" fill="#f89c10" d="M 146.5,25.5 C 146.833,25.5 147.167,25.5 147.5,25.5C 147.611,26.1174 147.944,26.6174 148.5,27C 158.131,29.1573 167.465,31.9907 176.5,35.5C 190.988,42.6555 202.655,52.9889 211.5,66.5C 211.377,69.5879 212.377,72.2546 214.5,74.5C 213.45,76.1017 214.117,76.935 216.5,77C 218.209,79.2412 219.876,81.4079 221.5,83.5C 225.843,90.8729 228.51,98.8729 229.5,107.5C 229.518,112.956 230.185,118.289 231.5,123.5C 231.865,126.079 231.865,128.412 231.5,130.5C 230.531,132.663 229.698,134.996 229,137.5C 228.444,143.835 227.944,150.168 227.5,156.5C 226.504,156.414 225.671,156.748 225,157.5C 223.383,161.306 222.55,165.306 222.5,169.5C 219.489,172.182 217.489,175.516 216.5,179.5C 214.202,180.31 211.868,181.144 209.5,182C 210.362,184.734 211.195,184.901 212,182.5C 212.494,184.134 212.66,185.801 212.5,187.5C 211.974,189.23 210.974,190.564 209.5,191.5C 208.265,191.721 207.265,192.388 206.5,193.5C 202.89,190.96 201.89,191.96 203.5,196.5C 201.955,197.452 200.288,197.785 198.5,197.5C 198.5,199.167 198.5,200.833 198.5,202.5C 196.473,202.338 194.473,202.505 192.5,203C 193.747,204.494 193.747,205.994 192.5,207.5C 189.5,208.667 186.5,209.833 183.5,211C 184.993,212.156 184.826,212.99 183,213.5C 181.699,212.107 180.199,211.607 178.5,212C 178.457,214.139 178.123,216.306 177.5,218.5C 174.512,218.439 171.679,219.105 169,220.5C 167.893,220.415 166.893,220.081 166,219.5C 165.383,220.449 165.549,221.282 166.5,222C 164.907,222.949 163.574,224.115 162.5,225.5C 155.697,225.757 149.031,226.757 142.5,228.5C 140.772,228.41 139.106,228.077 137.5,227.5C 136.5,202.509 136.167,177.509 136.5,152.5C 145.506,152.666 154.506,152.5 163.5,152C 164.729,150.471 166.229,149.304 168,148.5C 168.824,145.118 168.657,141.784 167.5,138.5C 166.583,137.873 165.583,137.539 164.5,137.5C 164.586,136.504 164.252,135.671 163.5,135C 154.506,134.5 145.506,134.334 136.5,134.5C 136.267,124.135 136.6,113.802 137.5,103.5C 141.298,101.059 145.298,98.8921 149.5,97C 157.244,96.8972 164.911,96.2305 172.5,95C 173.252,94.3292 173.586,93.4959 173.5,92.5C 174.117,92.3893 174.617,92.056 175,91.5C 175.667,88.8333 175.667,86.1667 175,83.5C 174.583,82.244 173.75,81.5774 172.5,81.5C 172.586,80.5041 172.252,79.6708 171.5,79C 161.151,78.1677 150.817,78.3344 140.5,79.5C 138.485,82.2947 135.985,82.9614 133,81.5C 131.513,82.2529 131.346,83.0862 132.5,84C 130.866,84.4935 129.199,84.6602 127.5,84.5C 127.5,85.8333 127.5,87.1667 127.5,88.5C 126.5,88.5 125.5,88.5 124.5,88.5C 123.908,91.1272 123.575,93.7938 123.5,96.5C 123.672,97.4916 123.338,98.1583 122.5,98.5C 121.504,98.4142 120.671,98.7476 120,99.5C 118.613,111.113 118.113,122.779 118.5,134.5C 108.128,134.24 97.7944,134.573 87.5,135.5C 87.1703,138.157 86.837,140.824 86.5,143.5C 86.4894,145.917 87.4894,147.583 89.5,148.5C 89.5394,149.583 89.8728,150.583 90.5,151.5C 99.8096,152.498 109.143,152.832 118.5,152.5C 118.5,177.5 118.5,202.5 118.5,227.5C 114.204,228.463 109.871,228.629 105.5,228C 101.52,226.203 97.3531,225.037 93,224.5C 87.1998,220.683 81.0331,217.516 74.5,215C 73.2068,214.51 71.8734,214.343 70.5,214.5C 61.6455,209.32 53.9789,202.653 47.5,194.5C 47.9338,190.069 46.1004,187.069 42,185.5C 41.187,183.564 40.687,181.564 40.5,179.5C 44.2762,179.531 44.4429,178.864 41,177.5C 40.228,177.645 39.5613,177.978 39,178.5C 35.3757,174.126 33.209,169.126 32.5,163.5C 31.5,163.5 30.5,163.5 29.5,163.5C 29.5,163.167 29.5,162.833 29.5,162.5C 27.2011,150.073 25.5344,137.573 24.5,125C 24.6667,121.5 24.8333,118 25,114.5C 26.8239,106.881 28.3239,99.2142 29.5,91.5C 32.8285,87.8394 34.8285,83.5061 35.5,78.5C 37.0315,77.3226 38.5315,75.9893 40,74.5C 40.49,73.2068 40.6567,71.8734 40.5,70.5C 43.9934,69.4959 45.8268,67.1625 46,63.5C 49.2066,62.7454 50.7066,60.7454 50.5,57.5C 52.2501,56.2583 53.9168,54.7583 55.5,53C 57.74,52.023 60.0733,51.523 62.5,51.5C 62.6702,48.3241 64.3369,46.3241 67.5,45.5C 68.7629,43.9713 69.7629,42.3046 70.5,40.5C 72.6291,38.0499 75.2957,36.3833 78.5,35.5C 87.623,32.1399 96.9563,29.3065 106.5,27C 114.34,26.8039 122.007,25.9706 129.5,24.5C 135.158,25.0326 140.825,25.366 146.5,25.5 Z"/></g>
<g><path style="opacity:1" fill="#f5af4f" d="M 70.5,40.5 C 69.7629,42.3046 68.7629,43.9713 67.5,45.5C 64.3369,46.3241 62.6702,48.3241 62.5,51.5C 60.0733,51.523 57.74,52.023 55.5,53C 53.9168,54.7583 52.2501,56.2583 50.5,57.5C 51.5434,54.9438 53.2101,52.7772 55.5,51C 60.2084,46.988 65.2084,43.488 70.5,40.5 Z"/></g>
<g><path style="opacity:1" fill="#f1b258" d="M 50.5,57.5 C 50.7066,60.7454 49.2066,62.7454 46,63.5C 45.8268,67.1625 43.9934,69.4959 40.5,70.5C 42.6249,65.2565 45.9582,60.9232 50.5,57.5 Z"/></g>
<g><path style="opacity:1" fill="#f3ac49" d="M 211.5,66.5 C 216.104,71.3678 219.437,77.0345 221.5,83.5C 219.876,81.4079 218.209,79.2412 216.5,77C 214.117,76.935 213.45,76.1017 214.5,74.5C 212.377,72.2546 211.377,69.5879 211.5,66.5 Z"/></g>
<g><path style="opacity:1" fill="#efb45a" d="M 40.5,70.5 C 40.6567,71.8734 40.49,73.2068 40,74.5C 38.5315,75.9893 37.0315,77.3226 35.5,78.5C 36.3833,75.2957 38.0499,72.6291 40.5,70.5 Z"/></g>
<g><path style="opacity:1" fill="#edb35b" d="M 35.5,78.5 C 34.8285,83.5061 32.8285,87.8394 29.5,91.5C 30.7164,86.738 32.7164,82.4047 35.5,78.5 Z"/></g>
<g><path style="opacity:1" fill="#f2b051" d="M 172.5,81.5 C 162.928,79.1147 153.261,78.9481 143.5,81C 135.055,84.0353 128.388,89.2019 123.5,96.5C 123.575,93.7938 123.908,91.1272 124.5,88.5C 125.5,88.5 126.5,88.5 127.5,88.5C 127.5,87.1667 127.5,85.8333 127.5,84.5C 129.199,84.6602 130.866,84.4935 132.5,84C 131.346,83.0862 131.513,82.2529 133,81.5C 135.985,82.9614 138.485,82.2947 140.5,79.5C 150.817,78.3344 161.151,78.1677 171.5,79C 172.252,79.6708 172.586,80.5041 172.5,81.5 Z"/></g>
<g><path style="opacity:0.059" fill="#fbd696" d="M 172.5,81.5 C 173.75,81.5774 174.583,82.244 175,83.5C 175.667,86.1667 175.667,88.8333 175,91.5C 174.617,92.056 174.117,92.3893 173.5,92.5C 175.023,88.6454 174.69,84.9788 172.5,81.5 Z"/></g>
<g><path style="opacity:1" fill="#f0b461" d="M 173.5,92.5 C 173.586,93.4959 173.252,94.3292 172.5,95C 164.911,96.2305 157.244,96.8972 149.5,97C 145.298,98.8921 141.298,101.059 137.5,103.5C 139.092,99.4158 142.092,96.9158 146.5,96C 151.184,95.6499 155.851,95.1499 160.5,94.5C 165.146,95.9226 169.479,95.2559 173.5,92.5 Z"/></g>
<g><path style="opacity:0.951" fill="#eeb056" d="M 29.5,91.5 C 28.3239,99.2142 26.8239,106.881 25,114.5C 24.8333,118 24.6667,121.5 24.5,125C 25.5344,137.573 27.2011,150.073 29.5,162.5C 24.9264,151.059 22.9264,139.059 23.5,126.5C 22.8194,114.246 24.8194,102.58 29.5,91.5 Z"/></g>
<g><path style="opacity:0.765" fill="#f6c782" d="M 229.5,107.5 C 230.582,112.36 231.582,117.36 232.5,122.5C 232.376,123.107 232.043,123.44 231.5,123.5C 230.185,118.289 229.518,112.956 229.5,107.5 Z"/></g>
<g><path style="opacity:0.999" fill="#e9aa45" d="M 122.5,98.5 C 119.867,110.653 118.867,122.986 119.5,135.5C 110.418,135.086 101.418,135.586 92.5,137C 90.6667,137.5 89.5,138.667 89,140.5C 88.3985,143.221 88.5651,145.887 89.5,148.5C 87.4894,147.583 86.4894,145.917 86.5,143.5C 86.837,140.824 87.1703,138.157 87.5,135.5C 97.7944,134.573 108.128,134.24 118.5,134.5C 118.113,122.779 118.613,111.113 120,99.5C 120.671,98.7476 121.504,98.4142 122.5,98.5 Z"/></g>
<g><path style="opacity:1" fill="#e6a640" d="M 137.5,103.5 C 136.6,113.802 136.267,124.135 136.5,134.5C 145.506,134.334 154.506,134.5 163.5,135C 164.252,135.671 164.586,136.504 164.5,137.5C 154.97,135.643 145.303,134.976 135.5,135.5C 135.334,125.494 135.5,115.494 136,105.5C 136.278,104.584 136.778,103.918 137.5,103.5 Z"/></g>
<g><path style="opacity:1" fill="#f0b359" d="M 231.5,130.5 C 231.548,139.509 230.214,148.175 227.5,156.5C 227.944,150.168 228.444,143.835 229,137.5C 229.698,134.996 230.531,132.663 231.5,130.5 Z"/></g>
<g><path style="opacity:0.99" fill="#e8a740" d="M 89.5,148.5 C 91.3594,149.594 93.3594,150.427 95.5,151C 103.493,151.5 111.493,151.666 119.5,151.5C 119.831,177.672 119.498,203.672 118.5,229.5C 114.5,229.5 110.5,229.5 106.5,229.5C 93.1142,227.6 81.1142,222.6 70.5,214.5C 71.8734,214.343 73.2068,214.51 74.5,215C 81.0331,217.516 87.1998,220.683 93,224.5C 97.3531,225.037 101.52,226.203 105.5,228C 109.871,228.629 114.204,228.463 118.5,227.5C 118.5,202.5 118.5,177.5 118.5,152.5C 109.143,152.832 99.8096,152.498 90.5,151.5C 89.8728,150.583 89.5394,149.583 89.5,148.5 Z"/></g>
<g><path style="opacity:0.991" fill="#e8a741" d="M 164.5,137.5 C 165.583,137.539 166.583,137.873 167.5,138.5C 168.657,141.784 168.824,145.118 168,148.5C 166.229,149.304 164.729,150.471 163.5,152C 154.506,152.5 145.506,152.666 136.5,152.5C 136.167,177.509 136.5,202.509 137.5,227.5C 139.106,228.077 140.772,228.41 142.5,228.5C 149.031,226.757 155.697,225.757 162.5,225.5C 155.3,228.177 147.8,230.177 140,231.5C 138.527,231.097 137.194,230.43 136,229.5C 135.5,203.502 135.333,177.502 135.5,151.5C 144.582,151.914 153.582,151.414 162.5,150C 166.99,146.562 167.656,142.395 164.5,137.5 Z"/></g>
<g><path style="opacity:0.98" fill="#f3ba60" d="M 227.5,156.5 C 226.796,161.29 225.129,165.623 222.5,169.5C 222.55,165.306 223.383,161.306 225,157.5C 225.671,156.748 226.504,156.414 227.5,156.5 Z"/></g>
<g><path style="opacity:1" fill="#f2b04b" d="M 29.5,163.5 C 30.5,163.5 31.5,163.5 32.5,163.5C 33.209,169.126 35.3757,174.126 39,178.5C 39.5613,177.978 40.228,177.645 41,177.5C 44.4429,178.864 44.2762,179.531 40.5,179.5C 40.687,181.564 41.187,183.564 42,185.5C 46.1004,187.069 47.9338,190.069 47.5,194.5C 39.7226,185.289 33.7226,174.956 29.5,163.5 Z"/></g>
<g><path style="opacity:1" fill="#f4b153" d="M 222.5,169.5 C 222.245,172.016 221.411,174.35 220,176.5C 217.971,180.58 215.471,184.246 212.5,187.5C 212.66,185.801 212.494,184.134 212,182.5C 211.195,184.901 210.362,184.734 209.5,182C 211.868,181.144 214.202,180.31 216.5,179.5C 217.489,175.516 219.489,172.182 222.5,169.5 Z"/></g>
<g><path style="opacity:1" fill="#f5af4b" d="M 209.5,191.5 C 201.233,203.441 190.567,212.441 177.5,218.5C 178.123,216.306 178.457,214.139 178.5,212C 180.199,211.607 181.699,212.107 183,213.5C 184.826,212.99 184.993,212.156 183.5,211C 186.5,209.833 189.5,208.667 192.5,207.5C 193.747,205.994 193.747,204.494 192.5,203C 194.473,202.505 196.473,202.338 198.5,202.5C 198.5,200.833 198.5,199.167 198.5,197.5C 200.288,197.785 201.955,197.452 203.5,196.5C 201.89,191.96 202.89,190.96 206.5,193.5C 207.265,192.388 208.265,191.721 209.5,191.5 Z"/></g>
<g><path style="opacity:1" fill="#f3b252" d="M 177.5,218.5 C 172.961,221.6 167.961,223.933 162.5,225.5C 163.574,224.115 164.907,222.949 166.5,222C 165.549,221.282 165.383,220.449 166,219.5C 166.893,220.081 167.893,220.415 169,220.5C 171.679,219.105 174.512,218.439 177.5,218.5 Z"/></g>
<g><path style="opacity:1" fill="#eac27d" d="M 106.5,229.5 C 110.5,229.5 114.5,229.5 118.5,229.5C 117.626,230.525 116.459,231.192 115,231.5C 112.004,230.965 109.171,230.298 106.5,229.5 Z"/></g>
</svg>
