<?xml version="1.0" encoding="UTF-8"?>
<!DOCTYPE svg PUBLIC "-//W3C//DTD SVG 1.1//EN" "http://www.w3.org/Graphics/SVG/1.1/DTD/svg11.dtd">
<svg xmlns="http://www.w3.org/2000/svg" version="1.1" width="507px" height="492px" style="shape-rendering:geometricPrecision; text-rendering:geometricPrecision; image-rendering:optimizeQuality; fill-rule:evenodd; clip-rule:evenodd" xmlns:xlink="http://www.w3.org/1999/xlink">
<g><path style="opacity:0.98" fill="#9da9ad" d="M 238.5,96.5 C 239.824,107.674 239.824,119.007 238.5,130.5C 236.929,131.309 235.262,131.643 233.5,131.5C 234.78,130.069 236.447,129.402 238.5,129.5C 238.5,118.5 238.5,107.5 238.5,96.5 Z"/></g>
<g><path style="opacity:0.678" fill="#90a1a7" d="M 231.5,132.5 C 231.027,133.906 230.027,134.573 228.5,134.5C 228.973,133.094 229.973,132.427 231.5,132.5 Z"/></g>
<g><path style="opacity:1" fill="#17373f" d="M 268.5,143.5 C 269.075,145.411 270.075,147.078 271.5,148.5C 270.833,148.5 270.167,148.5 269.5,148.5C 269.167,148.5 268.833,148.5 268.5,148.5C 263.781,146.705 258.781,145.538 253.5,145C 244.113,144.167 237.447,144.334 233.5,145.5C 232.081,146.451 230.415,146.784 228.5,146.5C 225.604,145.225 222.604,145.225 219.5,146.5C 218.833,146.5 218.167,146.5 217.5,146.5C 219.252,144.754 220.585,142.754 221.5,140.5C 222.167,139.167 223.167,138.167 224.5,137.5C 226.027,137.573 227.027,136.906 227.5,135.5C 227.5,134.833 227.833,134.5 228.5,134.5C 230.027,134.573 231.027,133.906 231.5,132.5C 231.842,131.662 232.508,131.328 233.5,131.5C 235.262,131.643 236.929,131.309 238.5,130.5C 239.824,119.007 239.824,107.674 238.5,96.5C 238.186,92.8065 239.852,90.4732 243.5,89.5C 246.314,90.4821 248.314,92.3155 249.5,95C 248.531,106.461 248.198,117.961 248.5,129.5C 256.878,131.691 263.544,136.358 268.5,143.5 Z"/></g>
<g><path style="opacity:0.671" fill="#8ea0a6" d="M 227.5,135.5 C 227.027,136.906 226.027,137.573 224.5,137.5C 224.973,136.094 225.973,135.427 227.5,135.5 Z"/></g>
<g><path style="opacity:0.702" fill="#8a9a9f" d="M 221.5,140.5 C 220.585,142.754 219.252,144.754 217.5,146.5C 217.167,146.5 216.833,146.5 216.5,146.5C 217.419,143.911 219.086,141.911 221.5,140.5 Z"/></g>
<g><path style="opacity:0.78" fill="#9baab0" d="M 268.5,143.5 C 270.587,144.585 271.92,146.251 272.5,148.5C 272.167,148.5 271.833,148.5 271.5,148.5C 270.075,147.078 269.075,145.411 268.5,143.5 Z"/></g>
<g><path style="opacity:0.129" fill="#a9b6ba" d="M 228.5,146.5 C 225.482,146.704 222.482,147.037 219.5,147.5C 219.5,147.167 219.5,146.833 219.5,146.5C 222.604,145.225 225.604,145.225 228.5,146.5 Z"/></g>
<g><path style="opacity:0.749" fill="#7f8e92" d="M 268.5,148.5 C 256.9,146.773 245.233,145.773 233.5,145.5C 237.447,144.334 244.113,144.167 253.5,145C 258.781,145.538 263.781,146.705 268.5,148.5 Z"/></g>
<g><path style="opacity:1" fill="#221941" d="M 216.5,146.5 C 216.833,146.5 217.167,146.5 217.5,146.5C 218.167,146.5 218.833,146.5 219.5,146.5C 219.5,146.833 219.5,147.167 219.5,147.5C 215.14,151.82 214.14,151.486 216.5,146.5 Z"/></g>
<g><path style="opacity:0.051" fill="#bebed0" d="M 268.5,148.5 C 268.833,148.5 269.167,148.5 269.5,148.5C 270.11,149.391 270.443,150.391 270.5,151.5C 269.094,151.027 268.427,150.027 268.5,148.5 Z"/></g>
<g><path style="opacity:0.384" fill="#b2adc5" d="M 272.5,148.5 C 273.906,148.973 274.573,149.973 274.5,151.5C 273.094,151.027 272.427,150.027 272.5,148.5 Z"/></g>
<g><path style="opacity:1" fill="#786c92" d="M 216.5,146.5 C 214.14,151.486 215.14,151.82 219.5,147.5C 217.656,151.192 215.323,154.525 212.5,157.5C 212.649,156.448 212.483,155.448 212,154.5C 211.292,155.381 210.458,156.047 209.5,156.5C 211.062,152.608 213.395,149.275 216.5,146.5 Z"/></g>
<g><path style="opacity:1" fill="#3d345a" d="M 269.5,148.5 C 270.167,148.5 270.833,148.5 271.5,148.5C 271.833,148.5 272.167,148.5 272.5,148.5C 272.427,150.027 273.094,151.027 274.5,151.5C 274.427,153.027 275.094,154.027 276.5,154.5C 276.631,155.376 276.298,156.043 275.5,156.5C 274.735,155.388 273.735,154.721 272.5,154.5C 271.599,153.71 270.932,152.71 270.5,151.5C 270.443,150.391 270.11,149.391 269.5,148.5 Z"/></g>
<g><path style="opacity:0.455" fill="#a9a4bb" d="M 274.5,151.5 C 275.906,151.973 276.573,152.973 276.5,154.5C 275.094,154.027 274.427,153.027 274.5,151.5 Z"/></g>
<g><path style="opacity:1" fill="#74668b" d="M 272.5,154.5 C 273.735,154.721 274.735,155.388 275.5,156.5C 276.298,156.043 276.631,155.376 276.5,154.5C 278.25,155.659 279.25,157.326 279.5,159.5C 278.637,158.537 277.97,158.537 277.5,159.5C 278.127,160.417 278.461,161.417 278.5,162.5C 278.167,162.5 277.833,162.5 277.5,162.5C 275.833,159.833 274.167,157.167 272.5,154.5 Z"/></g>
<g><path style="opacity:0.384" fill="#b5aac4" d="M 209.5,156.5 C 209.573,158.027 208.906,159.027 207.5,159.5C 207.427,157.973 208.094,156.973 209.5,156.5 Z"/></g>
<g><path style="opacity:0.753" fill="#9caeb1" d="M 251.5,158.5 C 242.482,158.448 233.482,158.782 224.5,159.5C 229.933,158.069 235.599,157.402 241.5,157.5C 245.018,157.502 248.351,157.835 251.5,158.5 Z"/></g>
<g><path style="opacity:1" fill="#382954" d="M 212.5,157.5 C 212.068,158.71 211.401,159.71 210.5,160.5C 208.804,162.129 207.804,161.796 207.5,159.5C 208.906,159.027 209.573,158.027 209.5,156.5C 210.458,156.047 211.292,155.381 212,154.5C 212.483,155.448 212.649,156.448 212.5,157.5 Z"/></g>
<g><path style="opacity:1" fill="#082e37" d="M 251.5,158.5 C 252.167,158.5 252.833,158.5 253.5,158.5C 258.23,160.237 263.23,161.237 268.5,161.5C 270.099,161.232 271.432,161.566 272.5,162.5C 274.214,163.738 276.214,164.405 278.5,164.5C 282.697,171.445 285.697,178.778 287.5,186.5C 285.421,186.029 283.421,185.363 281.5,184.5C 280.365,182.787 278.698,182.12 276.5,182.5C 276.167,182.5 275.833,182.5 275.5,182.5C 273.345,180.466 271.012,180.133 268.5,181.5C 266.621,180.659 264.621,180.325 262.5,180.5C 262.03,179.307 261.03,178.64 259.5,178.5C 258.274,178.52 257.274,178.853 256.5,179.5C 255.508,179.672 254.842,179.338 254.5,178.5C 246.915,177.348 238.581,177.181 229.5,178C 224.484,178.254 219.817,179.421 215.5,181.5C 213.738,181.643 212.071,181.309 210.5,180.5C 210.483,181.394 210.149,182.394 209.5,183.5C 206.449,185.352 203.116,186.686 199.5,187.5C 199.167,187.5 198.833,187.5 198.5,187.5C 200.901,178.95 204.234,170.95 208.5,163.5C 209.167,164.833 209.833,164.833 210.5,163.5C 214.162,163.277 217.495,162.277 220.5,160.5C 221.568,159.566 222.901,159.232 224.5,159.5C 233.482,158.782 242.482,158.448 251.5,158.5 Z"/></g>
<g><path style="opacity:0.408" fill="#a3b3b8" d="M 253.5,158.5 C 258.794,158.625 263.794,159.625 268.5,161.5C 263.23,161.237 258.23,160.237 253.5,158.5 Z"/></g>
<g><path style="opacity:1" fill="#7d779b" d="M 207.5,159.5 C 207.804,161.796 208.804,162.129 210.5,160.5C 210.5,161.167 210.5,161.833 210.5,162.5C 209.167,162.833 209.167,163.167 210.5,163.5C 209.833,164.833 209.167,164.833 208.5,163.5C 207.652,162.375 206.652,162.375 205.5,163.5C 205.66,161.847 206.326,160.514 207.5,159.5 Z"/></g>
<g><path style="opacity:0.827" fill="#728789" d="M 220.5,160.5 C 217.495,162.277 214.162,163.277 210.5,163.5C 210.5,163.167 210.5,162.833 210.5,162.5C 213.789,161.626 217.123,160.959 220.5,160.5 Z"/></g>
<g><path style="opacity:0.286" fill="#b9b3c7" d="M 279.5,159.5 C 280.906,159.973 281.573,160.973 281.5,162.5C 280.094,162.027 279.427,161.027 279.5,159.5 Z"/></g>
<g><path style="opacity:0.004" fill="#c0cbd5" d="M 272.5,162.5 C 274.475,162.822 276.142,162.822 277.5,162.5C 277.833,162.5 278.167,162.5 278.5,162.5C 278.5,163.167 278.5,163.833 278.5,164.5C 276.214,164.405 274.214,163.738 272.5,162.5 Z"/></g>
<g><path style="opacity:1" fill="#6c6888" d="M 205.5,163.5 C 205.759,165.989 204.759,167.656 202.5,168.5C 203.11,166.566 204.11,164.899 205.5,163.5 Z"/></g>
<g><path style="opacity:0.894" fill="#968eb4" d="M 201.5,170.5 C 201.88,172.698 201.213,174.365 199.5,175.5C 199.402,173.447 200.069,171.78 201.5,170.5 Z"/></g>
<g><path style="opacity:1" fill="#2d2d59" d="M 208.5,163.5 C 204.234,170.95 200.901,178.95 198.5,187.5C 198.167,187.5 197.833,187.5 197.5,187.5C 196.897,185.374 196.897,183.041 197.5,180.5C 197.796,178.597 198.463,176.93 199.5,175.5C 201.213,174.365 201.88,172.698 201.5,170.5C 201.328,169.508 201.662,168.842 202.5,168.5C 204.759,167.656 205.759,165.989 205.5,163.5C 206.652,162.375 207.652,162.375 208.5,163.5 Z"/></g>
<g><path style="opacity:0.051" fill="#a8b6b8" d="M 254.5,178.5 C 241.361,177.969 228.361,178.969 215.5,181.5C 219.817,179.421 224.484,178.254 229.5,178C 238.581,177.181 246.915,177.348 254.5,178.5 Z"/></g>
<g><path style="opacity:0.212" fill="#b5c6c9" d="M 256.5,179.5 C 257.274,178.853 258.274,178.52 259.5,178.5C 261.03,178.64 262.03,179.307 262.5,180.5C 260.621,179.659 258.621,179.325 256.5,179.5 Z"/></g>
<g><path style="opacity:1" fill="#60777d" d="M 215.5,181.5 C 213.786,182.738 211.786,183.405 209.5,183.5C 210.149,182.394 210.483,181.394 210.5,180.5C 212.071,181.309 213.738,181.643 215.5,181.5 Z"/></g>
<g><path style="opacity:0.769" fill="#879a9b" d="M 268.5,181.5 C 271.012,180.133 273.345,180.466 275.5,182.5C 273.139,182.326 270.806,181.993 268.5,181.5 Z"/></g>
<g><path style="opacity:0.831" fill="#829698" d="M 276.5,182.5 C 278.698,182.12 280.365,182.787 281.5,184.5C 279.597,184.204 277.93,183.537 276.5,182.5 Z"/></g>
<g><path style="opacity:0.843" fill="#9796af" d="M 289.5,179.5 C 290.537,180.93 291.204,182.597 291.5,184.5C 289.787,183.365 289.12,181.698 289.5,179.5 Z"/></g>
<g><path style="opacity:0.58" fill="#bbb9d2" d="M 287.5,186.5 C 289.048,186.821 289.715,187.821 289.5,189.5C 288.599,188.71 287.932,187.71 287.5,186.5 Z"/></g>
<g><path style="opacity:1" fill="#63567f" d="M 197.5,180.5 C 196.897,183.041 196.897,185.374 197.5,187.5C 197.5,188.5 197.5,189.5 197.5,190.5C 197.167,190.5 196.833,190.5 196.5,190.5C 196.631,189.761 196.464,189.094 196,188.5C 195.392,190.066 194.558,191.4 193.5,192.5C 194.256,188.233 195.589,184.233 197.5,180.5 Z"/></g>
<g><path style="opacity:0.671" fill="#798991" d="M 249.5,188.5 C 244.797,188.437 240.13,188.771 235.5,189.5C 237.807,187.953 240.473,187.287 243.5,187.5C 245.696,187.505 247.696,187.838 249.5,188.5 Z"/></g>
<g><path style="opacity:0.114" fill="#c5c6da" d="M 197.5,187.5 C 197.833,187.5 198.167,187.5 198.5,187.5C 198.833,187.5 199.167,187.5 199.5,187.5C 199.068,188.71 198.401,189.71 197.5,190.5C 197.5,189.5 197.5,188.5 197.5,187.5 Z"/></g>
<g><path style="opacity:0.871" fill="#8d84a4" d="M 291.5,185.5 C 293.277,188.505 294.277,191.838 294.5,195.5C 292.723,192.495 291.723,189.162 291.5,185.5 Z"/></g>
<g><path style="opacity:0.545" fill="#a9a3b8" d="M 289.5,189.5 C 291.074,191.102 291.741,193.102 291.5,195.5C 290.262,193.786 289.595,191.786 289.5,189.5 Z"/></g>
<g><path style="opacity:0.455" fill="#b8b3c9" d="M 196.5,190.5 C 196.833,190.5 197.167,190.5 197.5,190.5C 197.5,191.5 197.5,192.5 197.5,193.5C 196.651,195.888 195.651,198.221 194.5,200.5C 194.851,197.097 195.518,193.763 196.5,190.5 Z"/></g>
<g><path style="opacity:0.004" fill="#fefffe" d="M 197.5,193.5 C 200.001,193.511 200.168,194.178 198,195.5C 197.536,194.906 197.369,194.239 197.5,193.5 Z"/></g>
<g><path style="opacity:0.733" fill="#aa9ebc" d="M 193.5,192.5 C 193.741,194.898 193.074,196.898 191.5,198.5C 191.595,196.214 192.262,194.214 193.5,192.5 Z"/></g>
<g><path style="opacity:0.376" fill="#a1baba" d="M 227.5,195.5 C 227.573,197.027 226.906,198.027 225.5,198.5C 225.427,196.973 226.094,195.973 227.5,195.5 Z"/></g>
<g><path style="opacity:0.267" fill="#b3c4c2" d="M 260.5,196.5 C 261.906,196.973 262.573,197.973 262.5,199.5C 261.094,199.027 260.427,198.027 260.5,196.5 Z"/></g>
<g><path style="opacity:0.047" fill="#c8c0d7" d="M 291.5,195.5 C 293.419,199.857 294.419,204.523 294.5,209.5C 292.898,205.079 291.898,200.412 291.5,195.5 Z"/></g>
<g><path style="opacity:0.737" fill="#9e95b5" d="M 294.5,195.5 C 296.04,197.838 296.706,200.505 296.5,203.5C 295.232,201.095 294.565,198.428 294.5,195.5 Z"/></g>
<g><path style="opacity:0.796" fill="#889c98" d="M 263.5,201.5 C 264.924,203.515 265.59,205.848 265.5,208.5C 264.076,206.485 263.41,204.152 263.5,201.5 Z"/></g>
<g><path style="opacity:0.004" fill="#fefffe" d="M 298.5,204.5 C 299.525,204.897 299.692,205.563 299,206.5C 298.536,205.906 298.369,205.239 298.5,204.5 Z"/></g>
<g><path style="opacity:0.251" fill="#c5bfd5" d="M 194.5,201.5 C 194.324,204.727 193.657,207.727 192.5,210.5C 192.215,207.171 192.882,204.171 194.5,201.5 Z"/></g>
<g><path style="opacity:0.58" fill="#889a9b" d="M 223.5,202.5 C 223.59,205.152 222.924,207.485 221.5,209.5C 221.41,206.848 222.076,204.515 223.5,202.5 Z"/></g>
<g><path style="opacity:0.004" fill="#fefffe" d="M 299.5,211.5 C 300.833,212.167 300.833,212.167 299.5,211.5 Z"/></g>
<g><path style="opacity:1" fill="#463f6a" d="M 196.5,190.5 C 195.518,193.763 194.851,197.097 194.5,200.5C 194.5,200.833 194.5,201.167 194.5,201.5C 192.882,204.171 192.215,207.171 192.5,210.5C 190.972,228.207 191.305,245.874 193.5,263.5C 193.565,266.428 194.232,269.095 195.5,271.5C 195.259,273.898 195.926,275.898 197.5,277.5C 198.696,280.421 199.696,283.421 200.5,286.5C 200.12,288.698 200.787,290.365 202.5,291.5C 204.556,295.333 206.222,299.333 207.5,303.5C 207.077,305.781 207.744,307.448 209.5,308.5C 210.879,311.31 212.546,313.977 214.5,316.5C 213.662,316.842 213.328,317.508 213.5,318.5C 212.624,322.582 210.957,326.249 208.5,329.5C 207.637,330.463 206.97,330.463 206.5,329.5C 207.309,327.929 207.643,326.262 207.5,324.5C 207.796,322.597 208.463,320.93 209.5,319.5C 210.885,318.053 210.552,317.053 208.5,316.5C 206.301,310.154 203.467,304.154 200,298.5C 197.995,288.997 195.162,279.997 191.5,271.5C 190.103,257.114 188.77,242.78 187.5,228.5C 187.5,227.833 187.5,227.167 187.5,226.5C 187.625,216.958 188.958,207.624 191.5,198.5C 193.074,196.898 193.741,194.898 193.5,192.5C 194.558,191.4 195.392,190.066 196,188.5C 196.464,189.094 196.631,189.761 196.5,190.5 Z"/></g>
<g><path style="opacity:0.255" fill="#b5c4c5" d="M 222.5,223.5 C 224.341,225.849 225.674,228.515 226.5,231.5C 224.127,229.421 222.794,226.754 222.5,223.5 Z"/></g>
<g><path style="opacity:0.467" fill="#a1a7af" d="M 187.5,226.5 C 187.5,227.167 187.5,227.833 187.5,228.5C 186.833,228.5 186.5,228.833 186.5,229.5C 186.167,229.5 185.833,229.5 185.5,229.5C 185.427,227.973 186.094,226.973 187.5,226.5 Z"/></g>
<g><path style="opacity:0.792" fill="#867e9d" d="M 295.5,216.5 C 298.125,226.83 298.125,237.163 295.5,247.5C 296.635,237.174 296.635,226.841 295.5,216.5 Z"/></g>
<g><path style="opacity:0.498" fill="#8fa8aa" d="M 185.5,229.5 C 185.573,231.027 184.906,232.027 183.5,232.5C 183.427,230.973 184.094,229.973 185.5,229.5 Z"/></g>
<g><path style="opacity:1" fill="#193641" d="M 249.5,188.5 C 254.262,189.586 257.928,192.253 260.5,196.5C 260.427,198.027 261.094,199.027 262.5,199.5C 263.338,199.842 263.672,200.508 263.5,201.5C 263.41,204.152 264.076,206.485 265.5,208.5C 267.252,215.532 266.252,222.198 262.5,228.5C 261.5,228.5 260.5,228.5 259.5,228.5C 259.5,229.833 259.5,231.167 259.5,232.5C 256.341,232.57 254.674,234.237 254.5,237.5C 253.486,238.674 252.153,239.34 250.5,239.5C 245.13,239.608 239.797,239.275 234.5,238.5C 234.027,237.094 233.027,236.427 231.5,236.5C 230.738,234.738 229.404,233.738 227.5,233.5C 227.167,232.833 226.833,232.167 226.5,231.5C 225.674,228.515 224.341,225.849 222.5,223.5C 220.544,218.913 220.211,214.246 221.5,209.5C 222.924,207.485 223.59,205.152 223.5,202.5C 223.66,200.847 224.326,199.514 225.5,198.5C 226.906,198.027 227.573,197.027 227.5,195.5C 229.313,192.353 231.98,190.353 235.5,189.5C 240.13,188.771 244.797,188.437 249.5,188.5 Z M 249.5,194.5 C 249.973,195.906 250.973,196.573 252.5,196.5C 254.232,199.21 255.899,201.876 257.5,204.5C 258.114,208.135 258.448,211.802 258.5,215.5C 257.566,216.568 257.232,217.901 257.5,219.5C 256.094,219.973 255.427,220.973 255.5,222.5C 254.599,223.29 253.932,224.29 253.5,225.5C 251.77,226.026 250.436,227.026 249.5,228.5C 249.167,228.5 248.833,228.5 248.5,228.5C 245.167,229.833 241.833,229.833 238.5,228.5C 238.158,227.662 237.492,227.328 236.5,227.5C 235.167,225.5 233.5,223.833 231.5,222.5C 229.867,218.336 228.867,214.003 228.5,209.5C 229.407,207.343 230.073,205.01 230.5,202.5C 230.833,202.5 231.167,202.5 231.5,202.5C 231.328,201.508 231.662,200.842 232.5,200.5C 233.167,199.167 234.167,198.167 235.5,197.5C 235.435,197.938 235.601,198.272 236,198.5C 238.665,197.526 238.831,196.859 236.5,196.5C 240.346,193.36 244.679,192.693 249.5,194.5 Z"/></g>
<g><path style="opacity:1" fill="#2c2d5a" d="M 239.5,190.5 C 250.644,189.119 258.144,193.786 262,204.5C 262.993,211.082 262.16,217.416 259.5,223.5C 257.24,225.177 255.573,227.343 254.5,230C 248.886,233.209 242.886,234.209 236.5,233C 233.306,229.806 230.14,226.64 227,223.5C 225.533,216.223 225.199,208.889 226,201.5C 228.979,195.786 233.479,192.119 239.5,190.5 Z M 249.5,194.5 C 249.973,195.906 250.973,196.573 252.5,196.5C 254.232,199.21 255.899,201.876 257.5,204.5C 258.114,208.135 258.448,211.802 258.5,215.5C 257.566,216.568 257.232,217.901 257.5,219.5C 256.094,219.973 255.427,220.973 255.5,222.5C 254.599,223.29 253.932,224.29 253.5,225.5C 251.77,226.026 250.436,227.026 249.5,228.5C 249.167,228.5 248.833,228.5 248.5,228.5C 245.167,229.833 241.833,229.833 238.5,228.5C 238.158,227.662 237.492,227.328 236.5,227.5C 235.167,225.5 233.5,223.833 231.5,222.5C 229.867,218.336 228.867,214.003 228.5,209.5C 229.407,207.343 230.073,205.01 230.5,202.5C 230.833,202.5 231.167,202.5 231.5,202.5C 231.328,201.508 231.662,200.842 232.5,200.5C 233.167,199.167 234.167,198.167 235.5,197.5C 235.435,197.938 235.601,198.272 236,198.5C 238.665,197.526 238.831,196.859 236.5,196.5C 240.346,193.36 244.679,192.693 249.5,194.5 Z"/></g>
<g><path style="opacity:0.396" fill="#968db0" d="M 238.5,228.5 C 241.833,229.833 245.167,229.833 248.5,228.5C 248.389,229.117 248.056,229.617 247.5,230C 244.833,230.667 242.167,230.667 239.5,230C 238.944,229.617 238.611,229.117 238.5,228.5 Z"/></g>
<g><path style="opacity:0.678" fill="#928bac" d="M 253.5,225.5 C 252.965,227.446 251.632,228.446 249.5,228.5C 250.436,227.026 251.77,226.026 253.5,225.5 Z"/></g>
<g><path style="opacity:0.682" fill="#b8b4cc" d="M 231.5,222.5 C 233.5,223.833 235.167,225.5 236.5,227.5C 233.833,226.833 232.167,225.167 231.5,222.5 Z"/></g>
<g><path style="opacity:0.251" fill="#bbb4c9" d="M 257.5,219.5 C 257.573,221.027 256.906,222.027 255.5,222.5C 255.427,220.973 256.094,219.973 257.5,219.5 Z"/></g>
<g><path style="opacity:0.478" fill="#9791ac" d="M 257.5,204.5 C 259.569,208.044 259.902,211.71 258.5,215.5C 258.448,211.802 258.114,208.135 257.5,204.5 Z"/></g>
<g><path style="opacity:0.702" fill="#9b91b3" d="M 230.5,202.5 C 230.073,205.01 229.407,207.343 228.5,209.5C 228.338,207.473 228.505,205.473 229,203.5C 229.383,202.944 229.883,202.611 230.5,202.5 Z"/></g>
<g><path style="opacity:0.545" fill="#9996b1" d="M 249.5,194.5 C 251.027,194.427 252.027,195.094 252.5,196.5C 250.973,196.573 249.973,195.906 249.5,194.5 Z"/></g>
<g><path style="opacity:0.396" fill="#a3afb4" d="M 300.5,230.5 C 301.906,230.973 302.573,231.973 302.5,233.5C 301.094,233.027 300.427,232.027 300.5,230.5 Z"/></g>
<g><path style="opacity:0.49" fill="#bbc5c8" d="M 227.5,233.5 C 229.404,233.738 230.738,234.738 231.5,236.5C 229.596,236.262 228.262,235.262 227.5,233.5 Z"/></g>
<g><path style="opacity:1" fill="#5f7477" d="M 262.5,228.5 C 261.232,232.767 258.565,235.767 254.5,237.5C 254.674,234.237 256.341,232.57 259.5,232.5C 259.5,231.167 259.5,229.833 259.5,228.5C 260.5,228.5 261.5,228.5 262.5,228.5 Z"/></g>
<g><path style="opacity:0.396" fill="#a1b1b2" d="M 183.5,232.5 C 183.573,234.027 182.906,235.027 181.5,235.5C 181.427,233.973 182.094,232.973 183.5,232.5 Z"/></g>
<g><path style="opacity:0.302" fill="#acbbbf" d="M 302.5,233.5 C 303.906,233.973 304.573,234.973 304.5,236.5C 303.833,236.167 303.167,235.833 302.5,235.5C 302.5,234.833 302.5,234.167 302.5,233.5 Z"/></g>
<g><path style="opacity:0.431" fill="#9aacb1" d="M 231.5,236.5 C 233.027,236.427 234.027,237.094 234.5,238.5C 232.973,238.573 231.973,237.906 231.5,236.5 Z"/></g>
<g><path style="opacity:0.976" fill="#6d8186" d="M 181.5,235.5 C 181.408,237.848 180.408,239.514 178.5,240.5C 178.75,238.326 179.75,236.659 181.5,235.5 Z"/></g>
<g><path style="opacity:0.929" fill="#6c7f81" d="M 234.5,238.5 C 239.797,239.275 245.13,239.608 250.5,239.5C 249.828,240.267 248.995,240.934 248,241.5C 246.538,240.965 244.872,240.965 243,241.5C 239.759,241.366 236.925,240.366 234.5,238.5 Z"/></g>
<g><path style="opacity:0.286" fill="#a8bbbe" d="M 305.5,238.5 C 306.906,238.973 307.573,239.973 307.5,241.5C 306.094,241.027 305.427,240.027 305.5,238.5 Z"/></g>
<g><path style="opacity:1" fill="#072e37" d="M 185.5,229.5 C 185.833,229.5 186.167,229.5 186.5,229.5C 186.446,239.526 186.946,249.526 188,259.5C 189.488,263.479 190.655,267.479 191.5,271.5C 195.162,279.997 197.995,288.997 200,298.5C 203.467,304.154 206.301,310.154 208.5,316.5C 202.402,315.883 196.735,316.55 191.5,318.5C 190.5,321.167 189.5,321.167 188.5,318.5C 188.38,317.414 187.713,316.747 186.5,316.5C 184.59,317.548 182.756,317.548 181,316.5C 181.135,318.425 181.302,320.425 181.5,322.5C 180.528,324.493 179.195,324.826 177.5,323.5C 176.662,323.158 176.328,322.492 176.5,321.5C 175.903,320.861 175.07,320.528 174,320.5C 172.624,320.684 171.791,321.351 171.5,322.5C 171.25,324.674 170.25,326.341 168.5,327.5C 167.272,326.694 166.272,325.694 165.5,324.5C 163.393,323.532 161.059,323.198 158.5,323.5C 157.603,324.598 156.77,324.598 156,323.5C 155.506,325.134 155.34,326.801 155.5,328.5C 154.222,328.218 153.222,327.551 152.5,326.5C 152.5,326.167 152.5,325.833 152.5,325.5C 152.5,324.5 152.5,323.5 152.5,322.5C 150.901,322.768 149.568,322.434 148.5,321.5C 154.43,321.872 160.097,321.205 165.5,319.5C 168.096,318.735 170.763,318.401 173.5,318.5C 175.429,318.769 177.095,318.269 178.5,317C 171.508,316.5 164.508,316.334 157.5,316.5C 157.5,309.167 157.5,301.833 157.5,294.5C 157.5,294.167 157.5,293.833 157.5,293.5C 159.538,287.703 161.205,281.703 162.5,275.5C 162.5,275.167 162.5,274.833 162.5,274.5C 164.213,273.365 164.88,271.698 164.5,269.5C 164.263,268.209 164.596,267.209 165.5,266.5C 167.213,265.365 167.88,263.698 167.5,261.5C 169.659,255.849 172.326,250.516 175.5,245.5C 176.906,245.027 177.573,244.027 177.5,242.5C 177.328,241.508 177.662,240.842 178.5,240.5C 180.408,239.514 181.408,237.848 181.5,235.5C 182.906,235.027 183.573,234.027 183.5,232.5C 184.906,232.027 185.573,231.027 185.5,229.5 Z"/></g>
<g><path style="opacity:1" fill="#34305d" d="M 279.5,159.5 C 279.427,161.027 280.094,162.027 281.5,162.5C 284.949,167.735 287.616,173.402 289.5,179.5C 289.12,181.698 289.787,183.365 291.5,184.5C 291.5,184.833 291.5,185.167 291.5,185.5C 291.723,189.162 292.723,192.495 294.5,195.5C 294.565,198.428 295.232,201.095 296.5,203.5C 298.644,212.265 299.977,221.265 300.5,230.5C 299.496,244.202 297.829,257.868 295.5,271.5C 292.249,280.211 289.416,289.211 287,298.5C 282.678,303.962 279.511,309.962 277.5,316.5C 275.576,316.711 275.243,317.377 276.5,318.5C 277.338,318.842 277.672,319.508 277.5,320.5C 277.196,322.796 276.196,323.129 274.5,321.5C 273.662,321.158 273.328,320.492 273.5,319.5C 273.5,318.5 273.5,317.5 273.5,316.5C 274.639,313.996 275.306,311.33 275.5,308.5C 278.352,304.796 280.685,300.796 282.5,296.5C 284.818,294.815 285.818,292.481 285.5,289.5C 285.5,289.167 285.5,288.833 285.5,288.5C 287.213,287.365 287.88,285.698 287.5,283.5C 289.074,281.898 289.741,279.898 289.5,277.5C 289.5,277.167 289.5,276.833 289.5,276.5C 291.074,274.898 291.741,272.898 291.5,270.5C 293.04,268.162 293.706,265.495 293.5,262.5C 293.842,257.452 294.508,252.452 295.5,247.5C 298.125,237.163 298.125,226.83 295.5,216.5C 294.631,214.283 294.298,211.95 294.5,209.5C 294.419,204.523 293.419,199.857 291.5,195.5C 291.741,193.102 291.074,191.102 289.5,189.5C 289.715,187.821 289.048,186.821 287.5,186.5C 285.697,178.778 282.697,171.445 278.5,164.5C 278.5,163.833 278.5,163.167 278.5,162.5C 278.461,161.417 278.127,160.417 277.5,159.5C 277.97,158.537 278.637,158.537 279.5,159.5 Z"/></g>
<g><path style="opacity:0.769" fill="#909ea0" d="M 231.5,245.5 C 229.621,244.659 227.621,244.325 225.5,244.5C 227.987,241.739 229.987,242.073 231.5,245.5 Z"/></g>
<g><path style="opacity:0.71" fill="#99aaac" d="M 258.5,243.5 C 257.609,244.11 256.609,244.443 255.5,244.5C 256.221,242.618 257.221,242.285 258.5,243.5 Z"/></g>
<g><path style="opacity:0.341" fill="#a0b7ba" d="M 177.5,242.5 C 177.573,244.027 176.906,245.027 175.5,245.5C 175.427,243.973 176.094,242.973 177.5,242.5 Z"/></g>
<g><path style="opacity:0.875" fill="#839597" d="M 225.5,244.5 C 225.107,247.513 225.774,250.18 227.5,252.5C 223.33,250.661 222.663,247.995 225.5,244.5 Z"/></g>
<g><path style="opacity:0.753" fill="#9aabad" d="M 246.5,251.5 C 246.662,249.473 246.495,247.473 246,245.5C 244.333,244.167 242.667,244.167 241,245.5C 240.505,247.473 240.338,249.473 240.5,251.5C 239.371,249.372 239.204,247.039 240,244.5C 244.223,241.853 247.056,243.02 248.5,248C 247.915,249.302 247.249,250.469 246.5,251.5 Z"/></g>
<g><path style="opacity:0.906" fill="#75878a" d="M 259.5,243.5 C 262.862,245.882 263.195,248.549 260.5,251.5C 260.599,248.763 260.265,246.096 259.5,243.5 Z"/></g>
<g><path style="opacity:1" fill="#0b2b31" d="M 246.5,251.5 C 244.5,251.5 242.5,251.5 240.5,251.5C 240.338,249.473 240.505,247.473 241,245.5C 242.667,244.167 244.333,244.167 246,245.5C 246.495,247.473 246.662,249.473 246.5,251.5 Z"/></g>
<g><path style="opacity:0.318" fill="#a5b7ba" d="M 310.5,247.5 C 311.906,247.973 312.573,248.973 312.5,250.5C 311.094,250.027 310.427,249.027 310.5,247.5 Z"/></g>
<g><path style="opacity:0.984" fill="#223e42" d="M 225.5,244.5 C 227.621,244.325 229.621,244.659 231.5,245.5C 232.833,247.167 232.833,248.833 231.5,250.5C 230.5,250.833 229.833,251.5 229.5,252.5C 228.833,253.833 228.167,253.833 227.5,252.5C 225.774,250.18 225.107,247.513 225.5,244.5 Z"/></g>
<g><path style="opacity:1" fill="#1e393f" d="M 258.5,243.5 C 258.833,243.5 259.167,243.5 259.5,243.5C 260.265,246.096 260.599,248.763 260.5,251.5C 258.833,251.5 257.167,251.5 255.5,251.5C 254.053,250.866 253.387,249.699 253.5,248C 253.387,246.301 254.053,245.134 255.5,244.5C 256.609,244.443 257.609,244.11 258.5,243.5 Z"/></g>
<g><path style="opacity:0.012" fill="#c4cdcf" d="M 231.5,250.5 C 231.5,251.833 230.833,252.5 229.5,252.5C 229.833,251.5 230.5,250.833 231.5,250.5 Z"/></g>
<g><path style="opacity:0.812" fill="#8a969a" d="M 240.5,251.5 C 242.5,251.5 244.5,251.5 246.5,251.5C 244.5,254.167 242.5,254.167 240.5,251.5 Z"/></g>
<g><path style="opacity:0.675" fill="#8c999c" d="M 255.5,251.5 C 257.167,251.5 258.833,251.5 260.5,251.5C 258.833,254.167 257.167,254.167 255.5,251.5 Z"/></g>
<g><path style="opacity:1" fill="#052d36" d="M 302.5,235.5 C 303.167,235.833 303.833,236.167 304.5,236.5C 305.338,236.842 305.672,237.508 305.5,238.5C 305.427,240.027 306.094,241.027 307.5,241.5C 309.008,243.181 310.008,245.181 310.5,247.5C 310.427,249.027 311.094,250.027 312.5,250.5C 315.596,255.437 317.929,260.77 319.5,266.5C 319.166,269.491 320.166,271.824 322.5,273.5C 322.5,273.833 322.5,274.167 322.5,274.5C 323.259,279.43 324.592,284.097 326.5,288.5C 326.5,289.167 326.5,289.833 326.5,290.5C 327.088,293.61 327.755,296.61 328.5,299.5C 328.5,305.167 328.5,310.833 328.5,316.5C 311.5,316.5 294.5,316.5 277.5,316.5C 279.511,309.962 282.678,303.962 287,298.5C 289.416,289.211 292.249,280.211 295.5,271.5C 296.41,269.981 297.243,268.315 298,266.5C 299.359,256.089 300.859,245.756 302.5,235.5 Z"/></g>
<g><path style="opacity:0.996" fill="#122546" d="M 187.5,228.5 C 188.77,242.78 190.103,257.114 191.5,271.5C 190.655,267.479 189.488,263.479 188,259.5C 186.946,249.526 186.446,239.526 186.5,229.5C 186.5,228.833 186.833,228.5 187.5,228.5 Z"/></g>
<g><path style="opacity:1" fill="#0b273f" d="M 300.5,230.5 C 300.427,232.027 301.094,233.027 302.5,233.5C 302.5,234.167 302.5,234.833 302.5,235.5C 300.859,245.756 299.359,256.089 298,266.5C 297.243,268.315 296.41,269.981 295.5,271.5C 297.829,257.868 299.496,244.202 300.5,230.5 Z"/></g>
<g><path style="opacity:0.824" fill="#97a6ad" d="M 167.5,261.5 C 167.88,263.698 167.213,265.365 165.5,266.5C 165.402,264.447 166.069,262.78 167.5,261.5 Z"/></g>
<g><path style="opacity:0.749" fill="#9c98b4" d="M 193.5,263.5 C 195.04,265.838 195.706,268.505 195.5,271.5C 194.232,269.095 193.565,266.428 193.5,263.5 Z"/></g>
<g><path style="opacity:0.608" fill="#a69abc" d="M 293.5,262.5 C 293.706,265.495 293.04,268.162 291.5,270.5C 291.294,267.505 291.96,264.838 293.5,262.5 Z"/></g>
<g><path style="opacity:0.969" fill="#6f8083" d="M 319.5,266.5 C 321.065,268.509 322.065,270.843 322.5,273.5C 320.166,271.824 319.166,269.491 319.5,266.5 Z"/></g>
<g><path style="opacity:0.89" fill="#75878f" d="M 164.5,269.5 C 164.88,271.698 164.213,273.365 162.5,274.5C 162.796,272.597 163.463,270.93 164.5,269.5 Z"/></g>
<g><path style="opacity:0.631" fill="#bdb6cd" d="M 291.5,270.5 C 291.741,272.898 291.074,274.898 289.5,276.5C 289.595,274.214 290.262,272.214 291.5,270.5 Z"/></g>
<g><path style="opacity:0.792" fill="#a598bc" d="M 195.5,271.5 C 196.738,273.214 197.405,275.214 197.5,277.5C 195.926,275.898 195.259,273.898 195.5,271.5 Z"/></g>
<g><path style="opacity:0.851" fill="#879a9e" d="M 322.5,274.5 C 323.5,276.5 324.5,278.5 325.5,280.5C 326.092,283.127 326.425,285.794 326.5,288.5C 324.592,284.097 323.259,279.43 322.5,274.5 Z"/></g>
<g><path style="opacity:0.004" fill="#fefffe" d="M 325.5,279.5 C 326.833,280.167 326.833,280.167 325.5,279.5 Z"/></g>
<g><path style="opacity:0.733" fill="#b3a9c6" d="M 289.5,277.5 C 289.741,279.898 289.074,281.898 287.5,283.5C 287.595,281.214 288.262,279.214 289.5,277.5 Z"/></g>
<g><path style="opacity:0.671" fill="#9aabae" d="M 162.5,275.5 C 161.205,281.703 159.538,287.703 157.5,293.5C 157.98,287.073 159.647,281.073 162.5,275.5 Z"/></g>
<g><path style="opacity:0.875" fill="#9a92ad" d="M 287.5,283.5 C 287.88,285.698 287.213,287.365 285.5,288.5C 285.796,286.597 286.463,284.93 287.5,283.5 Z"/></g>
<g><path style="opacity:0.004" fill="#fefffe" d="M 328.5,287.5 C 329.833,288.167 329.833,288.167 328.5,287.5 Z"/></g>
<g><path style="opacity:0.757" fill="#a79fba" d="M 200.5,286.5 C 201.537,287.93 202.204,289.597 202.5,291.5C 200.787,290.365 200.12,288.698 200.5,286.5 Z"/></g>
<g><path style="opacity:0.243" fill="#f6cbca" d="M 326.5,288.5 C 351.428,289.324 376.428,289.824 401.5,290C 405.39,291.945 407.057,295.112 406.5,299.5C 405.833,299.167 405.167,298.833 404.5,298.5C 404.896,295.956 404.229,293.789 402.5,292C 398.259,290.543 393.926,290.209 389.5,291C 390.056,291.383 390.389,291.883 390.5,292.5C 389.833,292.5 389.167,292.5 388.5,292.5C 387.5,291.167 386.5,291.167 385.5,292.5C 385.167,292.5 384.833,292.5 384.5,292.5C 365.529,290.512 346.196,289.846 326.5,290.5C 326.5,289.833 326.5,289.167 326.5,288.5 Z"/></g>
<g><path style="opacity:0.852" fill="#b25654" d="M 326.5,290.5 C 346.196,289.846 365.529,290.512 384.5,292.5C 365.91,291.514 347.243,291.18 328.5,291.5C 328.5,293.833 328.5,296.167 328.5,298.5C 342.833,298.5 357.167,298.5 371.5,298.5C 371.5,298.833 371.5,299.167 371.5,299.5C 357.167,299.5 342.833,299.5 328.5,299.5C 327.755,296.61 327.088,293.61 326.5,290.5 Z"/></g>
<g><path style="opacity:1" fill="#bc3533" d="M 384.5,292.5 C 384.833,293.167 385.167,293.833 385.5,294.5C 384.244,294.539 383.244,294.039 382.5,293C 364.836,292.5 347.17,292.333 329.5,292.5C 329.286,294.144 329.62,295.644 330.5,297C 344.339,297.169 358.006,297.669 371.5,298.5C 357.167,298.5 342.833,298.5 328.5,298.5C 328.5,296.167 328.5,293.833 328.5,291.5C 347.243,291.18 365.91,291.514 384.5,292.5 Z"/></g>
<g><path style="opacity:0.973" fill="#8b85a6" d="M 285.5,289.5 C 285.818,292.481 284.818,294.815 282.5,296.5C 283.088,293.937 284.088,291.604 285.5,289.5 Z"/></g>
<g><path style="opacity:0.984" fill="#c6766e" d="M 384.5,292.5 C 384.833,292.5 385.167,292.5 385.5,292.5C 386.5,292.5 387.5,292.5 388.5,292.5C 388.5,293.167 388.833,293.5 389.5,293.5C 389.5,294.167 389.5,294.833 389.5,295.5C 388.292,294.766 386.959,294.433 385.5,294.5C 385.167,293.833 384.833,293.167 384.5,292.5 Z"/></g>
<g><path style="opacity:0.004" fill="#fefffe" d="M 407.5,297.5 C 408.833,298.167 408.833,298.167 407.5,297.5 Z"/></g>
<g><path style="opacity:0.039" fill="#f6cbc6" d="M 390.5,292.5 C 391.496,292.414 392.329,292.748 393,293.5C 393.789,295.712 393.622,297.712 392.5,299.5C 392.672,300.492 392.338,301.158 391.5,301.5C 391.5,302.167 391.5,302.833 391.5,303.5C 391.167,303.5 390.833,303.5 390.5,303.5C 390.167,302.167 389.833,302.167 389.5,303.5C 389.167,303.5 388.833,303.5 388.5,303.5C 388.557,302.391 388.89,301.391 389.5,300.5C 390.72,298.716 390.72,297.05 389.5,295.5C 389.5,294.833 389.5,294.167 389.5,293.5C 390.167,293.5 390.5,293.167 390.5,292.5 Z"/></g>
<g><path style="opacity:1" fill="#bf3835" d="M 404.5,298.5 C 404.5,299.167 404.5,299.833 404.5,300.5C 403.5,300.5 402.5,300.5 401.5,300.5C 401.483,302.565 401.15,304.565 400.5,306.5C 398.654,308.03 397.654,310.03 397.5,312.5C 396.833,312.833 396.167,313.167 395.5,313.5C 394.324,309.216 395.157,305.216 398,301.5C 401.098,300.379 402.598,297.712 402.5,293.5C 400.139,293.326 397.806,292.993 395.5,292.5C 396.347,295.16 396.847,297.826 397,300.5C 395.134,301.527 393.3,302.527 391.5,303.5C 391.5,302.833 391.5,302.167 391.5,301.5C 392.338,301.158 392.672,300.492 392.5,299.5C 393.622,297.712 393.789,295.712 393,293.5C 392.329,292.748 391.496,292.414 390.5,292.5C 390.389,291.883 390.056,291.383 389.5,291C 393.926,290.209 398.259,290.543 402.5,292C 404.229,293.789 404.896,295.956 404.5,298.5 Z"/></g>
<g><path style="opacity:0.831" fill="#8fa2a2" d="M 406.5,299.5 C 408.914,300.911 410.581,302.911 411.5,305.5C 409.086,304.089 407.419,302.089 406.5,299.5 Z"/></g>
<g><path style="opacity:0.961" fill="#cb8d8b" d="M 404.5,300.5 C 405.338,300.842 405.672,301.508 405.5,302.5C 404.883,302.389 404.383,302.056 404,301.5C 403.303,303.584 402.136,305.251 400.5,306.5C 401.15,304.565 401.483,302.565 401.5,300.5C 402.5,300.5 403.5,300.5 404.5,300.5 Z"/></g>
<g><path style="opacity:1" fill="#72678d" d="M 207.5,303.5 C 208.931,304.78 209.598,306.447 209.5,308.5C 207.744,307.448 207.077,305.781 207.5,303.5 Z"/></g>
<g><path style="opacity:1" fill="#1b3a42" d="M 275.5,308.5 C 275.306,311.33 274.639,313.996 273.5,316.5C 272.167,316.5 270.833,316.5 269.5,316.5C 266.941,316.802 264.607,316.468 262.5,315.5C 253.207,313.539 243.874,313.206 234.5,314.5C 228.902,314.156 223.568,314.822 218.5,316.5C 218.167,316.5 217.833,316.5 217.5,316.5C 216.5,316.5 215.5,316.5 214.5,316.5C 212.546,313.977 210.879,311.31 209.5,308.5C 231.631,301.882 253.631,301.882 275.5,308.5 Z"/></g>
<g><path style="opacity:0.984" fill="#c37572" d="M 389.5,303.5 C 389.833,303.5 390.167,303.5 390.5,303.5C 390.833,303.5 391.167,303.5 391.5,303.5C 391.167,304.833 390.833,306.167 390.5,307.5C 389.778,308.551 388.778,309.218 387.5,309.5C 387.5,308.833 387.5,308.167 387.5,307.5C 388.338,307.158 388.672,306.492 388.5,305.5C 389.338,305.158 389.672,304.492 389.5,303.5 Z"/></g>
<g><path style="opacity:1" fill="#cf312a" d="M 395.5,313.5 C 392.081,312.958 390.414,310.958 390.5,307.5C 390.833,306.167 391.167,304.833 391.5,303.5C 393.3,302.527 395.134,301.527 397,300.5C 396.847,297.826 396.347,295.16 395.5,292.5C 397.806,292.993 400.139,293.326 402.5,293.5C 402.598,297.712 401.098,300.379 398,301.5C 395.157,305.216 394.324,309.216 395.5,313.5 Z"/></g>
<g><path style="opacity:0.29" fill="#d9d1d1" d="M 328.5,299.5 C 342.833,299.5 357.167,299.5 371.5,299.5C 372.492,299.328 373.158,299.662 373.5,300.5C 358.833,300.5 344.167,300.5 329.5,300.5C 329.822,306.358 329.489,312.025 328.5,317.5C 328.5,317.167 328.5,316.833 328.5,316.5C 328.5,310.833 328.5,305.167 328.5,299.5 Z"/></g>
<g><path style="opacity:0.145" fill="#edc0bc" d="M 400.5,306.5 C 400.346,308.97 399.346,310.97 397.5,312.5C 397.654,310.03 398.654,308.03 400.5,306.5 Z"/></g>
<g><path style="opacity:1" fill="#ca7774" d="M 373.5,300.5 C 374.117,300.611 374.617,300.944 375,301.5C 375.273,306.124 374.106,310.457 371.5,314.5C 371.043,315.298 370.376,315.631 369.5,315.5C 371.154,311.521 372.821,307.521 374.5,303.5C 373.873,302.583 373.539,301.583 373.5,300.5 Z"/></g>
<g><path style="opacity:0.137" fill="#f4ccc6" d="M 386.5,307.5 C 386.328,308.492 386.662,309.158 387.5,309.5C 387.573,311.027 386.906,312.027 385.5,312.5C 385.167,311.167 384.833,311.167 384.5,312.5C 384.167,312.5 383.833,312.5 383.5,312.5C 383.75,310.326 384.75,308.659 386.5,307.5 Z"/></g>
<g><path style="opacity:0.591" fill="#70868a" d="M 234.5,314.5 C 243.874,313.206 253.207,313.539 262.5,315.5C 253.509,314.959 244.509,314.626 235.5,314.5C 235.167,314.5 234.833,314.5 234.5,314.5 Z"/></g>
<g><path style="opacity:0.769" fill="#a4b0b1" d="M 416.5,314.5 C 419.167,315.167 420.833,316.833 421.5,319.5C 419.5,318.167 417.833,316.5 416.5,314.5 Z"/></g>
<g><path style="opacity:0.161" fill="#b8c9cc" d="M 234.5,314.5 C 234.833,314.5 235.167,314.5 235.5,314.5C 230.016,315.518 224.349,316.184 218.5,316.5C 223.568,314.822 228.902,314.156 234.5,314.5 Z"/></g>
<g><path style="opacity:0.008" fill="#cad0d1" d="M 421.5,315.5 C 423.027,315.427 424.027,316.094 424.5,317.5C 422.973,317.573 421.973,316.906 421.5,315.5 Z"/></g>
<g><path style="opacity:0.624" fill="#798c91" d="M 157.5,294.5 C 157.5,301.833 157.5,309.167 157.5,316.5C 164.508,316.334 171.508,316.5 178.5,317C 177.095,318.269 175.429,318.769 173.5,318.5C 167.986,317.833 162.319,317.167 156.5,316.5C 155.296,308.994 155.629,301.661 157.5,294.5 Z"/></g>
<g><path style="opacity:0.63" fill="#6b7d81" d="M 208.5,316.5 C 210.552,317.053 210.885,318.053 209.5,319.5C 207.085,318.186 204.252,317.519 201,317.5C 197.749,317.542 194.583,317.875 191.5,318.5C 196.735,316.55 202.402,315.883 208.5,316.5 Z"/></g>
<g><path style="opacity:0.035" fill="#cfdde9" d="M 214.5,316.5 C 215.5,316.5 216.5,316.5 217.5,316.5C 216.329,317.345 214.995,318.011 213.5,318.5C 213.328,317.508 213.662,316.842 214.5,316.5 Z"/></g>
<g><path style="opacity:0.639" fill="#63767b" d="M 277.5,316.5 C 294.5,316.5 311.5,316.5 328.5,316.5C 328.5,316.833 328.5,317.167 328.5,317.5C 310.992,317.17 293.659,317.503 276.5,318.5C 275.243,317.377 275.576,316.711 277.5,316.5 Z"/></g>
<g><path style="opacity:1" fill="#c55750" d="M 389.5,300.5 C 388.89,301.391 388.557,302.391 388.5,303.5C 388.5,304.167 388.5,304.833 388.5,305.5C 387.662,305.842 387.328,306.508 387.5,307.5C 387.167,307.5 386.833,307.5 386.5,307.5C 384.75,308.659 383.75,310.326 383.5,312.5C 383.5,313.167 383.5,313.833 383.5,314.5C 382.662,314.842 382.328,315.508 382.5,316.5C 382.167,316.5 381.833,316.5 381.5,316.5C 379.896,317.287 379.229,318.62 379.5,320.5C 379.5,321.167 379.5,321.833 379.5,322.5C 379.167,322.5 378.833,322.5 378.5,322.5C 376.75,323.659 375.75,325.326 375.5,327.5C 375.5,328.167 375.5,328.833 375.5,329.5C 374.662,329.842 374.328,330.508 374.5,331.5C 374.167,331.5 373.833,331.5 373.5,331.5C 373.167,331.5 372.833,331.5 372.5,331.5C 372.337,329.143 372.503,326.81 373,324.5C 374.666,325.34 374.833,324.84 373.5,323C 375.521,322.487 377.021,321.32 378,319.5C 380.279,315.828 381.446,311.828 381.5,307.5C 382.5,307.5 383.5,307.5 384.5,307.5C 384.351,306.448 384.517,305.448 385,304.5C 386.468,303.011 387.968,301.677 389.5,300.5 Z"/></g>
<g><path style="opacity:0.302" fill="#f2c1b9" d="M 397.5,312.5 C 395.926,317.32 393.593,321.653 390.5,325.5C 392.167,321.5 393.833,317.5 395.5,313.5C 396.167,313.167 396.833,312.833 397.5,312.5 Z"/></g>
<g><path style="opacity:1" fill="#627c7f" d="M 188.5,318.5 C 184.903,317.468 182.57,318.801 181.5,322.5C 181.302,320.425 181.135,318.425 181,316.5C 182.756,317.548 184.59,317.548 186.5,316.5C 187.713,316.747 188.38,317.414 188.5,318.5 Z"/></g>
<g><path style="opacity:0.282" fill="#bdc3d4" d="M 269.5,316.5 C 270.833,316.5 272.167,316.5 273.5,316.5C 273.5,317.5 273.5,318.5 273.5,319.5C 272.26,318.341 270.926,317.341 269.5,316.5 Z"/></g>
<g><path style="opacity:0.247" fill="#f2c4bd" d="M 369.5,315.5 C 369.573,317.027 368.906,318.027 367.5,318.5C 367.427,316.973 368.094,315.973 369.5,315.5 Z"/></g>
<g><path style="opacity:1" fill="#cc332e" d="M 385.5,294.5 C 386.959,294.433 388.292,294.766 389.5,295.5C 390.72,297.05 390.72,298.716 389.5,300.5C 387.968,301.677 386.468,303.011 385,304.5C 384.517,305.448 384.351,306.448 384.5,307.5C 383.5,307.5 382.5,307.5 381.5,307.5C 381.446,311.828 380.279,315.828 378,319.5C 377.021,321.32 375.521,322.487 373.5,323C 374.833,324.84 374.666,325.34 373,324.5C 372.503,326.81 372.337,329.143 372.5,331.5C 369.828,336.501 367.495,341.501 365.5,346.5C 362.812,348.797 361.146,351.797 360.5,355.5C 359.326,356.514 358.66,357.847 358.5,359.5C 356.468,360.048 355.468,361.381 355.5,363.5C 354.766,364.708 354.433,366.041 354.5,367.5C 352.684,369.118 351.351,371.118 350.5,373.5C 349.147,371.807 347.48,370.474 345.5,369.5C 345.672,368.508 345.338,367.842 344.5,367.5C 346.137,362.885 348.137,358.551 350.5,354.5C 354.176,349.316 357.676,343.983 361,338.5C 361.49,337.207 361.657,335.873 361.5,334.5C 361.5,333.167 361.5,331.833 361.5,330.5C 361.66,328.847 362.326,327.514 363.5,326.5C 366.375,324.751 367.708,322.085 367.5,318.5C 368.906,318.027 369.573,317.027 369.5,315.5C 370.376,315.631 371.043,315.298 371.5,314.5C 374.106,310.457 375.273,306.124 375,301.5C 374.617,300.944 374.117,300.611 373.5,300.5C 373.158,299.662 372.492,299.328 371.5,299.5C 371.5,299.167 371.5,298.833 371.5,298.5C 358.006,297.669 344.339,297.169 330.5,297C 329.62,295.644 329.286,294.144 329.5,292.5C 347.17,292.333 364.836,292.5 382.5,293C 383.244,294.039 384.244,294.539 385.5,294.5 Z"/></g>
<g><path style="opacity:0.337" fill="#ebbbbb" d="M 381.5,316.5 C 381.5,317.167 381.5,317.833 381.5,318.5C 380.662,318.842 380.328,319.508 380.5,320.5C 380.167,320.5 379.833,320.5 379.5,320.5C 379.229,318.62 379.896,317.287 381.5,316.5 Z"/></g>
<g><path style="opacity:0.651" fill="#999b9e" d="M 165.5,319.5 C 160.097,321.205 154.43,321.872 148.5,321.5C 147.5,321.5 146.5,321.5 145.5,321.5C 145.811,320.522 146.478,319.855 147.5,319.5C 153.322,320.589 159.322,320.589 165.5,319.5 Z"/></g>
<g><path style="opacity:0.463" fill="#b1bfc0" d="M 176.5,321.5 C 174.708,321.366 173.042,321.699 171.5,322.5C 173.042,321.699 174.708,321.366 176.5,321.5 Z"/></g>
<g><path style="opacity:0.965" fill="#cb7974" d="M 384.5,312.5 C 384.833,312.5 385.167,312.5 385.5,312.5C 385.799,314.604 385.466,316.604 384.5,318.5C 379.913,325.396 375.913,332.73 372.5,340.5C 372.043,341.298 371.376,341.631 370.5,341.5C 370.5,340.833 370.5,340.167 370.5,339.5C 371.338,339.158 371.672,338.492 371.5,337.5C 372.338,337.158 372.672,336.492 372.5,335.5C 373.338,335.158 373.672,334.492 373.5,333.5C 374.338,333.158 374.672,332.492 374.5,331.5C 375.338,331.158 375.672,330.492 375.5,329.5C 376.338,329.158 376.672,328.492 376.5,327.5C 377.167,327.5 377.5,327.167 377.5,326.5C 378.338,326.158 378.672,325.492 378.5,324.5C 379.338,324.158 379.672,323.492 379.5,322.5C 380.338,322.158 380.672,321.492 380.5,320.5C 381.338,320.158 381.672,319.492 381.5,318.5C 382.338,318.158 382.672,317.492 382.5,316.5C 383.338,316.158 383.672,315.492 383.5,314.5C 384.338,314.158 384.672,313.492 384.5,312.5 Z"/></g>
<g><path style="opacity:1" fill="#887fa1" d="M 277.5,320.5 C 278.674,321.514 279.34,322.847 279.5,324.5C 277.804,322.871 276.804,323.204 276.5,325.5C 275.326,324.486 274.66,323.153 274.5,321.5C 276.196,323.129 277.196,322.796 277.5,320.5 Z"/></g>
<g><path style="opacity:0.945" fill="#ce837d" d="M 367.5,318.5 C 367.708,322.085 366.375,324.751 363.5,326.5C 364.326,323.515 365.659,320.849 367.5,318.5 Z"/></g>
<g><path style="opacity:1" fill="#5c7376" d="M 158.5,323.5 C 158.25,325.674 157.25,327.341 155.5,328.5C 155.34,326.801 155.506,325.134 156,323.5C 156.77,324.598 157.603,324.598 158.5,323.5 Z"/></g>
<g><path style="opacity:0.196" fill="#f5c6c3" d="M 378.5,322.5 C 378.5,323.167 378.5,323.833 378.5,324.5C 377.662,324.842 377.328,325.508 377.5,326.5C 376.833,326.5 376.5,326.833 376.5,327.5C 376.167,327.5 375.833,327.5 375.5,327.5C 375.75,325.326 376.75,323.659 378.5,322.5 Z"/></g>
<g><path style="opacity:0.012" fill="#8b9696" d="M 181.5,322.5 C 181.539,324.359 180.706,325.692 179,326.5C 177.961,325.756 177.461,324.756 177.5,323.5C 179.195,324.826 180.528,324.493 181.5,322.5 Z"/></g>
<g><path style="opacity:0.012" fill="#959b9e" d="M 165.5,324.5 C 166.272,325.694 167.272,326.694 168.5,327.5C 166.183,328.534 165.183,327.534 165.5,324.5 Z"/></g>
<g><path style="opacity:0.455" fill="#8b9899" d="M 152.5,326.5 C 153.222,327.551 154.222,328.218 155.5,328.5C 154.791,329.404 153.791,329.737 152.5,329.5C 152.5,328.5 152.5,327.5 152.5,326.5 Z"/></g>
<g><path style="opacity:1" fill="#da8b82" d="M 389.5,327.5 C 388.674,330.485 387.341,333.151 385.5,335.5C 386.092,332.873 386.425,330.206 386.5,327.5C 387.5,327.5 388.5,327.5 389.5,327.5 Z"/></g>
<g><path style="opacity:0.353" fill="#b0bec2" d="M 442.5,328.5 C 444.153,328.66 445.486,329.326 446.5,330.5C 444.62,330.771 443.287,330.104 442.5,328.5 Z"/></g>
<g><path style="opacity:0.882" fill="#837670" d="M 478.5,329.5 C 479.492,329.328 480.158,329.662 480.5,330.5C 479.209,330.263 478.209,330.596 477.5,331.5C 476.167,331.5 474.833,331.5 473.5,331.5C 474.93,330.463 476.597,329.796 478.5,329.5 Z"/></g>
<g><path style="opacity:0.922" fill="#9e4d4b" d="M 143.5,322.5 C 143.842,321.662 144.508,321.328 145.5,321.5C 146.5,321.5 147.5,321.5 148.5,321.5C 149.568,322.434 150.901,322.768 152.5,322.5C 152.5,323.5 152.5,324.5 152.5,325.5C 151.5,324.833 150.5,324.167 149.5,323.5C 148.504,337.99 148.171,352.657 148.5,367.5C 147.833,367.5 147.167,367.5 146.5,367.5C 146.829,352.99 146.496,338.657 145.5,324.5C 145.5,323.167 144.833,322.5 143.5,322.5 Z"/></g>
<g><path style="opacity:0.478" fill="#a6b7ba" d="M 447.5,330.5 C 450.067,330.721 452.401,331.388 454.5,332.5C 451.772,332.829 449.438,332.163 447.5,330.5 Z"/></g>
<g><path style="opacity:1" fill="#30454a" d="M 143.5,322.5 C 144.833,322.5 145.5,323.167 145.5,324.5C 144.508,324.328 143.842,324.662 143.5,325.5C 140.967,326.966 138.967,328.966 137.5,331.5C 135.812,332.176 134.479,332.176 133.5,331.5C 133.167,331.5 132.833,331.5 132.5,331.5C 131.279,330.535 129.946,330.702 128.5,332C 127.748,332.671 127.414,333.504 127.5,334.5C 127.5,334.833 127.5,335.167 127.5,335.5C 126.288,336.23 125.288,337.23 124.5,338.5C 123.614,337.675 123.281,336.675 123.5,335.5C 122.209,335.263 121.209,335.596 120.5,336.5C 119.609,337.11 118.609,337.443 117.5,337.5C 116.352,338.895 115.352,338.728 114.5,337C 115.942,336.623 116.942,335.79 117.5,334.5C 126.098,330.537 134.764,326.537 143.5,322.5 Z"/></g>
<g><path style="opacity:0.02" fill="#8d9799" d="M 132.5,331.5 C 130.668,332.248 129.001,333.248 127.5,334.5C 127.414,333.504 127.748,332.671 128.5,332C 129.946,330.702 131.279,330.535 132.5,331.5 Z"/></g>
<g><path style="opacity:0.667" fill="#9aa6a6" d="M 137.5,331.5 C 136.443,335.168 135.109,335.168 133.5,331.5C 134.479,332.176 135.812,332.176 137.5,331.5 Z"/></g>
<g><path style="opacity:0.82" fill="#5d527c" d="M 279.5,324.5 C 281.592,327.088 282.925,330.088 283.5,333.5C 282.542,333.047 281.708,332.381 281,331.5C 280.517,332.448 280.351,333.448 280.5,334.5C 254.606,335.143 228.939,334.476 203.5,332.5C 204.326,329.515 205.659,326.849 207.5,324.5C 207.643,326.262 207.309,327.929 206.5,329.5C 206.97,330.463 207.637,330.463 208.5,329.5C 208.461,330.583 208.127,331.583 207.5,332.5C 231.493,333.666 255.493,333.833 279.5,333C 278.358,330.55 277.358,328.05 276.5,325.5C 276.804,323.204 277.804,322.871 279.5,324.5 Z"/></g>
<g><path style="opacity:0.004" fill="#c6d3d6" d="M 434.5,330.5 C 435.738,332.214 436.405,334.214 436.5,336.5C 434.926,334.898 434.259,332.898 434.5,330.5 Z"/></g>
<g><path style="opacity:1" fill="#344b51" d="M 404.5,298.5 C 405.167,298.833 405.833,299.167 406.5,299.5C 407.419,302.089 409.086,304.089 411.5,305.5C 415.167,308.5 418.5,311.833 421.5,315.5C 421.973,316.906 422.973,317.573 424.5,317.5C 429.972,321.96 435.972,325.627 442.5,328.5C 443.287,330.104 444.62,330.771 446.5,330.5C 446.833,330.5 447.167,330.5 447.5,330.5C 449.438,332.163 451.772,332.829 454.5,332.5C 460.863,332.593 467.196,332.26 473.5,331.5C 474.833,331.5 476.167,331.5 477.5,331.5C 477.5,331.833 477.5,332.167 477.5,332.5C 476.508,332.328 475.842,332.662 475.5,333.5C 475.5,333.833 475.5,334.167 475.5,334.5C 471.368,334.237 469.368,336.237 469.5,340.5C 468.609,341.11 467.609,341.443 466.5,341.5C 464.162,337.261 460.495,335.261 455.5,335.5C 453.787,336.635 453.12,338.302 453.5,340.5C 452.614,341.776 451.614,341.776 450.5,340.5C 449.147,336.415 446.481,333.749 442.5,332.5C 441.712,333.77 440.712,334.77 439.5,335.5C 438.609,336.11 437.609,336.443 436.5,336.5C 436.405,334.214 435.738,332.214 434.5,330.5C 432.857,328.027 430.69,326.027 428,324.5C 427.388,327.032 425.888,327.865 423.5,327C 422.133,324.699 421.466,322.199 421.5,319.5C 420.833,316.833 419.167,315.167 416.5,314.5C 414.947,316.385 412.947,317.385 410.5,317.5C 409.899,312.077 408.233,307.077 405.5,302.5C 405.672,301.508 405.338,300.842 404.5,300.5C 404.5,299.833 404.5,299.167 404.5,298.5 Z"/></g>
<g><path style="opacity:1" fill="#201d50" d="M 283.5,333.5 C 282.448,335.256 280.781,335.923 278.5,335.5C 253.533,336.712 228.533,336.712 203.5,335.5C 203.5,334.5 203.5,333.5 203.5,332.5C 228.939,334.476 254.606,335.143 280.5,334.5C 280.351,333.448 280.517,332.448 281,331.5C 281.708,332.381 282.542,333.047 283.5,333.5 Z"/></g>
<g><path style="opacity:0.813" fill="#7b788c" d="M 283.5,333.5 C 284.404,334.209 284.737,335.209 284.5,336.5C 282.035,336.767 279.701,337.434 277.5,338.5C 277.557,337.391 277.89,336.391 278.5,335.5C 280.781,335.923 282.448,335.256 283.5,333.5 Z"/></g>
<g><path style="opacity:0.247" fill="#eab0ac" d="M 372.5,331.5 C 372.833,331.5 373.167,331.5 373.5,331.5C 373.5,332.167 373.5,332.833 373.5,333.5C 372.662,333.842 372.328,334.508 372.5,335.5C 371.662,335.842 371.328,336.508 371.5,337.5C 370.662,337.842 370.328,338.508 370.5,339.5C 369.662,339.842 369.328,340.508 369.5,341.5C 368.833,341.5 368.5,341.833 368.5,342.5C 367.662,342.842 367.328,343.508 367.5,344.5C 366.662,344.842 366.328,345.508 366.5,346.5C 366.167,346.5 365.833,346.5 365.5,346.5C 367.495,341.501 369.828,336.501 372.5,331.5 Z"/></g>
<g><path style="opacity:0.269" fill="#ffcdce" d="M 478.5,329.5 C 479.209,328.596 480.209,328.263 481.5,328.5C 481.513,352.168 481.513,375.835 481.5,399.5C 489.833,399.5 498.167,399.5 506.5,399.5C 506.5,399.833 506.5,400.167 506.5,400.5C 497.651,400.826 488.984,400.493 480.5,399.5C 480.5,376.5 480.5,353.5 480.5,330.5C 480.158,329.662 479.492,329.328 478.5,329.5 Z"/></g>
<g><path style="opacity:0.012" fill="#d8d9da" d="M 439.5,335.5 C 438.947,337.552 437.947,337.885 436.5,336.5C 437.609,336.443 438.609,336.11 439.5,335.5 Z"/></g>
<g><path style="opacity:1" fill="#5a7276" d="M 117.5,334.5 C 116.942,335.79 115.942,336.623 114.5,337C 115.352,338.728 116.352,338.895 117.5,337.5C 116.89,339.434 115.89,341.101 114.5,342.5C 114.884,340.335 114.217,338.668 112.5,337.5C 111.968,339.076 111.635,341.076 111.5,343.5C 110.833,342.5 110.167,341.5 109.5,340.5C 110.463,339.637 110.463,338.97 109.5,338.5C 107.929,339.309 106.262,339.643 104.5,339.5C 108.522,337.266 112.856,335.599 117.5,334.5 Z"/></g>
<g><path style="opacity:0.998" fill="#152a44" d="M 203.5,332.5 C 203.5,333.5 203.5,334.5 203.5,335.5C 228.533,336.712 253.533,336.712 278.5,335.5C 277.89,336.391 277.557,337.391 277.5,338.5C 276.833,338.833 276.167,339.167 275.5,339.5C 255.294,338.822 234.961,338.156 214.5,337.5C 212.787,337.879 211.787,338.879 211.5,340.5C 210.833,340.167 210.167,339.833 209.5,339.5C 209.715,337.821 209.048,336.821 207.5,336.5C 205.833,336.5 204.167,336.5 202.5,336.5C 202.232,334.901 202.566,333.568 203.5,332.5 Z"/></g>
<g><path style="opacity:0.961" fill="#cf8382" d="M 361.5,330.5 C 361.5,331.833 361.5,333.167 361.5,334.5C 360.607,336.297 359.274,337.63 357.5,338.5C 358.326,335.515 359.659,332.849 361.5,330.5 Z"/></g>
<g><path style="opacity:0.208" fill="#f1c6c5" d="M 385.5,335.5 C 385.573,337.027 384.906,338.027 383.5,338.5C 383.427,336.973 384.094,335.973 385.5,335.5 Z"/></g>
<g><path style="opacity:0.545" fill="#9bb3b6" d="M 455.5,335.5 C 455.204,337.403 454.537,339.07 453.5,340.5C 453.12,338.302 453.787,336.635 455.5,335.5 Z"/></g>
<g><path style="opacity:0.369" fill="#b1bfc0" d="M 120.5,336.5 C 121.209,335.596 122.209,335.263 123.5,335.5C 123.281,336.675 123.614,337.675 124.5,338.5C 125.288,337.23 126.288,336.23 127.5,335.5C 127.213,338.484 125.546,339.817 122.5,339.5C 122.715,337.821 122.048,336.821 120.5,336.5 Z"/></g>
<g><path style="opacity:0.18" fill="#cebabf" d="M 207.5,336.5 C 209.048,336.821 209.715,337.821 209.5,339.5C 209.167,340.5 208.5,341.167 207.5,341.5C 208.562,339.766 208.562,338.099 207.5,336.5 Z"/></g>
<g><path style="opacity:1" fill="#2f444a" d="M 114.5,342.5 C 113.947,344.552 112.947,344.885 111.5,343.5C 111.635,341.076 111.968,339.076 112.5,337.5C 114.217,338.668 114.884,340.335 114.5,342.5 Z"/></g>
<g><path style="opacity:0.98" fill="#6d8086" d="M 277.5,338.5 C 277.25,340.674 276.25,342.341 274.5,343.5C 274.232,341.901 274.566,340.568 275.5,339.5C 276.167,339.167 276.833,338.833 277.5,338.5 Z"/></g>
<g><path style="opacity:0.804" fill="#86989d" d="M 103.5,339.5 C 100.619,341.68 97.2856,342.68 93.5,342.5C 96.6189,341.13 99.9523,340.13 103.5,339.5 Z"/></g>
<g><path style="opacity:0.047" fill="#d3e3e4" d="M 106.5,341.5 C 106.167,342.5 105.5,343.167 104.5,343.5C 104.5,342.167 105.167,341.5 106.5,341.5 Z"/></g>
<g><path style="opacity:0.255" fill="#fdc8c5" d="M 149.5,323.5 C 148.876,338.41 149.542,353.076 151.5,367.5C 150.5,367.5 149.5,367.5 148.5,367.5C 148.171,352.657 148.504,337.99 149.5,323.5 Z"/></g>
<g><path style="opacity:0.012" fill="#dde3e3" d="M 469.5,340.5 C 468.947,342.552 467.947,342.885 466.5,341.5C 467.609,341.443 468.609,341.11 469.5,340.5 Z"/></g>
<g><path style="opacity:0.827" fill="#9b8180" d="M 79.5,342.5 C 78.5,342.833 77.8333,343.5 77.5,344.5C 76.609,345.11 75.609,345.443 74.5,345.5C 75.6485,342.913 77.3152,341.913 79.5,342.5 Z"/></g>
<g><path style="opacity:1" fill="#9f4645" d="M 209.5,339.5 C 210.167,339.833 210.833,340.167 211.5,340.5C 214.095,344.837 216.095,349.504 217.5,354.5C 217.5,354.833 217.5,355.167 217.5,355.5C 217.34,357.153 216.674,358.486 215.5,359.5C 214.833,359.833 214.167,360.167 213.5,360.5C 216.19,353.762 214.857,347.762 209.5,342.5C 208.265,343.34 207.265,344.34 206.5,345.5C 206.5,344.833 206.5,344.167 206.5,343.5C 206.328,342.508 206.662,341.842 207.5,341.5C 208.5,341.167 209.167,340.5 209.5,339.5 Z"/></g>
<g><path style="opacity:1" fill="#0a3039" d="M 275.5,339.5 C 274.566,340.568 274.232,341.901 274.5,343.5C 274.672,344.492 274.338,345.158 273.5,345.5C 272.527,346.791 271.527,346.791 270.5,345.5C 269.269,346.651 269.269,347.817 270.5,349C 266.884,349.347 266.217,350.514 268.5,352.5C 265.734,353.535 265.068,355.201 266.5,357.5C 266.672,358.492 266.338,359.158 265.5,359.5C 263.744,358.448 263.077,356.781 263.5,354.5C 263.5,354.167 263.5,353.833 263.5,353.5C 265.088,351.473 265.588,349.139 265,346.5C 263.864,348.743 263.03,351.076 262.5,353.5C 261.069,354.78 260.402,356.447 260.5,358.5C 257.517,364.663 253.517,370.163 248.5,375C 245.44,376.663 242.44,376.83 239.5,375.5C 238.738,373.738 237.404,372.738 235.5,372.5C 232.395,369.725 230.062,366.392 228.5,362.5C 228.33,361.178 228.663,360.011 229.5,359C 228.473,358.487 227.473,357.987 226.5,357.5C 225.069,356.22 224.402,354.553 224.5,352.5C 224.509,350.692 224.009,349.025 223,347.5C 222.825,351.211 222.325,354.878 221.5,358.5C 220.817,358.137 220.15,357.804 219.5,357.5C 219.715,355.821 219.048,354.821 217.5,354.5C 216.095,349.504 214.095,344.837 211.5,340.5C 211.787,338.879 212.787,337.879 214.5,337.5C 234.961,338.156 255.294,338.822 275.5,339.5 Z"/></g>
<g><path style="opacity:0.361" fill="#e6acab" d="M 382.5,340.5 C 382.008,342.819 381.008,344.819 379.5,346.5C 379.461,343.911 380.461,341.911 382.5,340.5 Z"/></g>
<g><path style="opacity:0.243" fill="#b5cace" d="M 80.5,346.5 C 80.5,346.167 80.5,345.833 80.5,345.5C 83.3878,344.99 85.7211,345.656 87.5,347.5C 85.283,346.631 82.9496,346.298 80.5,346.5 Z"/></g>
<g><path style="opacity:1" fill="#3b4f53" d="M 109.5,340.5 C 108.791,341.404 107.791,341.737 106.5,341.5C 105.167,341.5 104.5,342.167 104.5,343.5C 104.305,345.903 103.138,347.57 101,348.5C 99.9701,348.164 99.4701,347.497 99.5,346.5C 99.5,345.5 99.5,344.5 99.5,343.5C 98.209,343.263 97.209,343.596 96.5,344.5C 96.1667,344.5 95.8333,344.5 95.5,344.5C 94.5,344.5 93.5,344.5 92.5,344.5C 92.5,345.5 92.5,346.5 92.5,347.5C 92.6499,351.161 91.1499,352.161 88,350.5C 87.5172,349.552 87.3505,348.552 87.5,347.5C 85.7211,345.656 83.3878,344.99 80.5,345.5C 80.1667,345.5 79.8333,345.5 79.5,345.5C 79.5569,344.391 79.8902,343.391 80.5,342.5C 84.8333,342.5 89.1667,342.5 93.5,342.5C 97.2856,342.68 100.619,341.68 103.5,339.5C 103.833,339.5 104.167,339.5 104.5,339.5C 106.262,339.643 107.929,339.309 109.5,338.5C 110.463,338.97 110.463,339.637 109.5,340.5 Z"/></g>
<g><path style="opacity:0.29" fill="#b1bec4" d="M 95.5,344.5 C 94.5,345.5 93.5,346.5 92.5,347.5C 92.5,346.5 92.5,345.5 92.5,344.5C 93.5,344.5 94.5,344.5 95.5,344.5 Z"/></g>
<g><path style="opacity:0.031" fill="#cddcdd" d="M 96.5,344.5 C 97.209,343.596 98.209,343.263 99.5,343.5C 99.5,344.5 99.5,345.5 99.5,346.5C 98.7777,345.449 97.7777,344.782 96.5,344.5 Z"/></g>
<g><path style="opacity:0.212" fill="#f7cfc7" d="M 206.5,343.5 C 206.5,344.167 206.5,344.833 206.5,345.5C 205.833,345.833 205.167,346.167 204.5,346.5C 204.427,344.973 205.094,343.973 206.5,343.5 Z"/></g>
<g><path style="opacity:0.545" fill="#e6b4b1" d="M 356.5,340.5 C 356.275,343.546 354.942,345.879 352.5,347.5C 353.468,344.9 354.801,342.566 356.5,340.5 Z"/></g>
<g><path style="opacity:1" fill="#bc4f49" d="M 361.5,334.5 C 361.657,335.873 361.49,337.207 361,338.5C 357.676,343.983 354.176,349.316 350.5,354.5C 350.5,353.833 350.5,353.167 350.5,352.5C 350.893,350.716 351.559,349.05 352.5,347.5C 354.942,345.879 356.275,343.546 356.5,340.5C 356.328,339.508 356.662,338.842 357.5,338.5C 359.274,337.63 360.607,336.297 361.5,334.5 Z"/></g>
<g><path style="opacity:0.941" fill="#da8f8f" d="M 369.5,341.5 C 369.833,341.5 370.167,341.5 370.5,341.5C 370.408,343.848 369.408,345.514 367.5,346.5C 367.5,345.833 367.5,345.167 367.5,344.5C 368.338,344.158 368.672,343.492 368.5,342.5C 369.167,342.5 369.5,342.167 369.5,341.5 Z"/></g>
<g><path style="opacity:1" fill="#353030" d="M 77.5,344.5 C 77.5,345.167 77.5,345.833 77.5,346.5C 76.5,346.833 75.8333,347.5 75.5,348.5C 75.1667,348.5 74.8333,348.5 74.5,348.5C 73.1667,347.5 73.1667,346.5 74.5,345.5C 75.609,345.443 76.609,345.11 77.5,344.5 Z"/></g>
<g><path style="opacity:1" fill="#6c7c82" d="M 74.5,345.5 C 73.1667,346.5 73.1667,347.5 74.5,348.5C 73.4884,349.872 72.4884,351.205 71.5,352.5C 71.8432,350.517 71.1765,349.183 69.5,348.5C 70.8993,347.11 72.5659,346.11 74.5,345.5 Z"/></g>
<g><path style="opacity:0.922" fill="#dc9d9a" d="M 365.5,346.5 C 365.5,347.167 365.5,347.833 365.5,348.5C 364.662,348.842 364.328,349.508 364.5,350.5C 363.662,350.842 363.328,351.508 363.5,352.5C 362.662,352.842 362.328,353.508 362.5,354.5C 361.833,354.833 361.167,355.167 360.5,355.5C 361.146,351.797 362.812,348.797 365.5,346.5 Z"/></g>
<g><path style="opacity:1" fill="#ca3330" d="M 213.5,360.5 C 211.376,362.059 209.709,364.059 208.5,366.5C 207.583,365.873 206.583,365.539 205.5,365.5C 202.692,364.071 199.692,363.405 196.5,363.5C 196.833,362.167 197.167,360.833 197.5,359.5C 199.408,358.514 200.408,356.848 200.5,354.5C 203.375,352.751 204.708,350.085 204.5,346.5C 205.167,346.167 205.833,345.833 206.5,345.5C 207.265,344.34 208.265,343.34 209.5,342.5C 214.857,347.762 216.19,353.762 213.5,360.5 Z"/></g>
<g><path style="opacity:1" fill="#455e63" d="M 273.5,345.5 C 271.668,349.836 269.335,353.836 266.5,357.5C 265.068,355.201 265.734,353.535 268.5,352.5C 266.217,350.514 266.884,349.347 270.5,349C 269.269,347.817 269.269,346.651 270.5,345.5C 271.527,346.791 272.527,346.791 273.5,345.5 Z"/></g>
<g><path style="opacity:0.306" fill="#efbab7" d="M 77.5,346.5 C 77.5,360.167 77.5,373.833 77.5,387.5C 77.5,387.833 77.5,388.167 77.5,388.5C 69.1667,388.5 60.8333,388.5 52.5,388.5C 52.3685,392.221 53.3685,395.554 55.5,398.5C 51.6114,395.489 50.6114,391.656 52.5,387C 60.4155,387.434 68.4155,387.6 76.5,387.5C 76.8288,374.323 76.4955,361.323 75.5,348.5C 75.8333,347.5 76.5,346.833 77.5,346.5 Z"/></g>
<g><path style="opacity:0.945" fill="#ce7d7a" d="M 204.5,346.5 C 204.708,350.085 203.375,352.751 200.5,354.5C 201.326,351.515 202.659,348.849 204.5,346.5 Z"/></g>
<g><path style="opacity:0.239" fill="#89a8b1" d="M 263.5,353.5 C 263.167,353.5 262.833,353.5 262.5,353.5C 263.03,351.076 263.864,348.743 265,346.5C 265.588,349.139 265.088,351.473 263.5,353.5 Z"/></g>
<g><path style="opacity:0.969" fill="#c9716a" d="M 366.5,346.5 C 366.833,346.5 367.167,346.5 367.5,346.5C 368.226,350.343 366.892,353.01 363.5,354.5C 363.5,353.833 363.5,353.167 363.5,352.5C 364.338,352.158 364.672,351.492 364.5,350.5C 365.338,350.158 365.672,349.492 365.5,348.5C 366.338,348.158 366.672,347.492 366.5,346.5 Z"/></g>
<g><path style="opacity:0.526" fill="#de9694" d="M 475.5,333.5 C 475.842,332.662 476.508,332.328 477.5,332.5C 478.497,354.66 478.831,376.994 478.5,399.5C 478.5,400.167 478.167,400.5 477.5,400.5C 477.5,400.167 477.5,399.833 477.5,399.5C 477.5,398.833 477.5,398.167 477.5,397.5C 477.5,396.5 477.5,395.5 477.5,394.5C 477.667,375.164 477.5,355.83 477,336.5C 476.283,335.956 475.783,335.289 475.5,334.5C 478.167,334.167 478.167,333.833 475.5,333.5 Z"/></g>
<g><path style="opacity:1" fill="#9e4340" d="M 480.5,330.5 C 480.5,353.5 480.5,376.5 480.5,399.5C 479.833,399.5 479.167,399.5 478.5,399.5C 478.831,376.994 478.497,354.66 477.5,332.5C 477.5,332.167 477.5,331.833 477.5,331.5C 478.209,330.596 479.209,330.263 480.5,330.5 Z"/></g>
<g><path style="opacity:0.878" fill="#e1a1a4" d="M 377.5,350.5 C 377.25,352.674 376.25,354.341 374.5,355.5C 374.241,353.011 375.241,351.344 377.5,350.5 Z"/></g>
<g><path style="opacity:0.534" fill="#ebb4b4" d="M 143.5,325.5 C 143.842,324.662 144.508,324.328 145.5,324.5C 146.496,338.657 146.829,352.99 146.5,367.5C 145.833,367.5 145.167,367.5 144.5,367.5C 144.215,353.64 144.548,339.807 145.5,326C 144.906,325.536 144.239,325.369 143.5,325.5 Z"/></g>
<g><path style="opacity:0.29" fill="#aebdc0" d="M 402.5,351.5 C 402.573,353.027 401.906,354.027 400.5,354.5C 400.427,352.973 401.094,351.973 402.5,351.5 Z"/></g>
<g><path style="opacity:0.82" fill="#92979b" d="M 217.5,355.5 C 217.5,355.167 217.5,354.833 217.5,354.5C 219.048,354.821 219.715,355.821 219.5,357.5C 218.833,356.833 218.167,356.167 217.5,355.5 Z"/></g>
<g><path style="opacity:1" fill="#16373f" d="M 423.5,359.5 C 423.973,360.906 424.973,361.573 426.5,361.5C 432.947,364.027 439.281,363.694 445.5,360.5C 447.179,360.285 448.179,360.952 448.5,362.5C 446.28,367.272 443.78,371.938 441,376.5C 438.603,378.782 435.769,380.116 432.5,380.5C 427.463,380.587 422.463,380.254 417.5,379.5C 416.833,379.5 416.5,379.167 416.5,378.5C 416.027,377.094 415.027,376.427 413.5,376.5C 412.5,376.167 411.833,375.5 411.5,374.5C 410.738,372.738 409.404,371.738 407.5,371.5C 405.421,371.029 403.421,370.363 401.5,369.5C 401.083,368.876 400.416,368.543 399.5,368.5C 398.287,368.747 397.62,369.414 397.5,370.5C 395.75,374.335 393.75,378.001 391.5,381.5C 390.234,382.09 388.901,382.59 387.5,383C 388.337,384.011 388.67,385.178 388.5,386.5C 388.672,387.492 388.338,388.158 387.5,388.5C 385.833,389.5 384.5,390.833 383.5,392.5C 383.5,393.167 383.167,393.5 382.5,393.5C 373.5,393.5 364.5,393.5 355.5,393.5C 355.263,392.209 355.596,391.209 356.5,390.5C 364.019,390.825 371.352,390.492 378.5,389.5C 378.842,388.662 379.508,388.328 380.5,388.5C 382.833,388.167 384.167,386.833 384.5,384.5C 384.263,383.209 384.596,382.209 385.5,381.5C 386.906,381.027 387.573,380.027 387.5,378.5C 387.328,377.508 387.662,376.842 388.5,376.5C 389.906,376.027 390.573,375.027 390.5,373.5C 391.326,370.515 392.659,367.849 394.5,365.5C 397.515,364.63 398.515,362.964 397.5,360.5C 397.992,358.181 398.992,356.181 400.5,354.5C 401.906,354.027 402.573,353.027 402.5,351.5C 411.176,349.324 418.176,351.99 423.5,359.5 Z"/></g>
<g><path style="opacity:0.427" fill="#95a3a9" d="M 55.5,354.5 C 51.1106,356.246 46.4439,357.246 41.5,357.5C 41.5,357.167 41.5,356.833 41.5,356.5C 46.1317,355.617 50.7984,354.95 55.5,354.5 Z"/></g>
<g><path style="opacity:0.682" fill="#9da9ac" d="M 66.5,354.5 C 67.8333,355.833 69.1667,355.833 70.5,354.5C 69.1667,358.5 67.8333,358.5 66.5,354.5 Z"/></g>
<g><path style="opacity:0.204" fill="#b9c8cd" d="M 262.5,353.5 C 262.5,354.167 262.833,354.5 263.5,354.5C 263.077,356.781 263.744,358.448 265.5,359.5C 264.791,360.404 263.791,360.737 262.5,360.5C 262.657,359.127 262.49,357.793 262,356.5C 261.722,357.416 261.222,358.082 260.5,358.5C 260.402,356.447 261.069,354.78 262.5,353.5 Z"/></g>
<g><path style="opacity:0.682" fill="#8da1a3" d="M 224.5,352.5 C 223.608,354.362 223.441,356.362 224,358.5C 221.76,361.293 220.26,360.96 219.5,357.5C 220.15,357.804 220.817,358.137 221.5,358.5C 222.325,354.878 222.825,351.211 223,347.5C 224.009,349.025 224.509,350.692 224.5,352.5 Z"/></g>
<g><path style="opacity:0.916" fill="#5a4b77" d="M 321.5,355.5 C 321.737,356.791 321.404,357.791 320.5,358.5C 317.167,358.5 313.833,358.5 310.5,358.5C 307.752,358.598 307.086,357.598 308.5,355.5C 312.733,354.206 317.066,354.206 321.5,355.5 Z"/></g>
<g><path style="opacity:0.725" fill="#9f9ab3" d="M 183.5,357.5 C 185.262,358.262 186.262,359.596 186.5,361.5C 184.738,360.738 183.738,359.404 183.5,357.5 Z"/></g>
<g><path style="opacity:0.914" fill="#da9c9b" d="M 200.5,354.5 C 200.408,356.848 199.408,358.514 197.5,359.5C 197.75,357.326 198.75,355.659 200.5,354.5 Z"/></g>
<g><path style="opacity:1" fill="#677b7f" d="M 226.5,357.5 C 227.473,357.987 228.473,358.487 229.5,359C 228.663,360.011 228.33,361.178 228.5,362.5C 227.069,361.22 226.402,359.553 226.5,357.5 Z"/></g>
<g><path style="opacity:1" fill="#70658b" d="M 308.5,355.5 C 307.086,357.598 307.752,358.598 310.5,358.5C 307.576,359.753 305.243,361.753 303.5,364.5C 303.649,363.448 303.483,362.448 303,361.5C 302.292,362.381 301.458,363.047 300.5,363.5C 301.5,359.167 304.167,356.5 308.5,355.5 Z"/></g>
<g><path style="opacity:0.005" fill="#f6e9e9" d="M 197.5,359.5 C 197.167,360.833 196.833,362.167 196.5,363.5C 195.5,363.5 194.5,363.5 193.5,363.5C 193.918,362.778 194.584,362.278 195.5,362C 194.833,361.667 194.167,361.333 193.5,361C 194.708,360.079 196.042,359.579 197.5,359.5 Z"/></g>
<g><path style="opacity:0.039" fill="#b1c0cc" d="M 423.5,359.5 C 425.027,359.427 426.027,360.094 426.5,361.5C 424.973,361.573 423.973,360.906 423.5,359.5 Z"/></g>
<g><path style="opacity:0.267" fill="#dbe0e0" d="M 445.5,360.5 C 446.568,359.566 447.901,359.232 449.5,359.5C 449.737,360.791 449.404,361.791 448.5,362.5C 448.179,360.952 447.179,360.285 445.5,360.5 Z"/></g>
<g><path style="opacity:0.937" fill="#d9908a" d="M 362.5,354.5 C 362.833,354.5 363.167,354.5 363.5,354.5C 362.556,357.935 361.223,361.268 359.5,364.5C 359.043,365.298 358.376,365.631 357.5,365.5C 357.5,364.833 357.5,364.167 357.5,363.5C 358.338,363.158 358.672,362.492 358.5,361.5C 359.833,360.833 359.833,360.167 358.5,359.5C 358.66,357.847 359.326,356.514 360.5,355.5C 361.301,357.793 361.968,357.46 362.5,354.5 Z"/></g>
<g><path style="opacity:0.007" fill="#fefffe" d="M 27.5,361.5 C 28.5862,361.62 29.2528,362.287 29.5,363.5C 28.1949,375.049 28.1949,386.549 29.5,398C 28.9056,398.464 28.2389,398.631 27.5,398.5C 27.5,386.167 27.5,373.833 27.5,361.5 Z"/></g>
<g><path style="opacity:1" fill="#30484b" d="M 69.5,348.5 C 71.1765,349.183 71.8432,350.517 71.5,352.5C 71.6716,353.492 71.3382,354.158 70.5,354.5C 69.1667,355.833 67.8333,355.833 66.5,354.5C 66.5654,354.062 66.3988,353.728 66,353.5C 62.2365,355.178 59.7365,358.011 58.5,362C 57.5632,362.692 56.8966,362.525 56.5,361.5C 56.67,360.178 56.3366,359.011 55.5,358C 53.6131,357.22 51.9464,357.387 50.5,358.5C 49.6618,358.842 49.3284,359.508 49.5,360.5C 49.6716,361.492 49.3382,362.158 48.5,362.5C 47.1667,363.833 45.8333,363.833 44.5,362.5C 44.5,361.167 44.5,359.833 44.5,358.5C 41.1889,358.307 38.5223,359.307 36.5,361.5C 36.3295,365.534 34.4962,366.868 31,365.5C 30.5065,363.866 30.3398,362.199 30.5,360.5C 29.791,359.596 28.791,359.263 27.5,359.5C 27.5,358.833 27.5,358.167 27.5,357.5C 32.1667,357.5 36.8333,357.5 41.5,357.5C 46.4439,357.246 51.1106,356.246 55.5,354.5C 60.0986,352.539 64.7653,350.539 69.5,348.5 Z"/></g>
<g><path style="opacity:0.004" fill="#e9f0f1" d="M 50.5,358.5 C 52.0311,359.925 51.6977,360.591 49.5,360.5C 49.3284,359.508 49.6618,358.842 50.5,358.5 Z"/></g>
<g><path style="opacity:0.094" fill="#aec1c2" d="M 44.5,362.5 C 43.8423,361.602 43.1757,360.602 42.5,359.5C 40.4705,360.172 38.4705,360.838 36.5,361.5C 38.5223,359.307 41.1889,358.307 44.5,358.5C 44.5,359.833 44.5,361.167 44.5,362.5 Z"/></g>
<g><path style="opacity:0.231" fill="#b9c7c8" d="M 50.5,358.5 C 51.9464,357.387 53.6131,357.22 55.5,358C 56.3366,359.011 56.67,360.178 56.5,361.5C 55.3579,359.028 53.3579,358.028 50.5,358.5 Z"/></g>
<g><path style="opacity:0.173" fill="#f4d3d0" d="M 215.5,359.5 C 215.25,361.674 214.25,363.341 212.5,364.5C 212.833,363.167 213.167,361.833 213.5,360.5C 214.167,360.167 214.833,359.833 215.5,359.5 Z"/></g>
<g><path style="opacity:0.949" fill="#cf847c" d="M 358.5,359.5 C 358.5,360.167 358.5,360.833 358.5,361.5C 357.662,361.842 357.328,362.508 357.5,363.5C 357.167,363.5 356.833,363.5 356.5,363.5C 356.167,363.5 355.833,363.5 355.5,363.5C 355.468,361.381 356.468,360.048 358.5,359.5 Z"/></g>
<g><path style="opacity:1" fill="#cd3630" d="M 390.5,307.5 C 390.414,310.958 392.081,312.958 395.5,313.5C 393.833,317.5 392.167,321.5 390.5,325.5C 390.672,326.492 390.338,327.158 389.5,327.5C 388.5,327.5 387.5,327.5 386.5,327.5C 386.425,330.206 386.092,332.873 385.5,335.5C 384.094,335.973 383.427,336.973 383.5,338.5C 383.672,339.492 383.338,340.158 382.5,340.5C 380.461,341.911 379.461,343.911 379.5,346.5C 379.34,348.153 378.674,349.486 377.5,350.5C 375.241,351.344 374.241,353.011 374.5,355.5C 374.672,356.492 374.338,357.158 373.5,357.5C 371.5,358.167 370.167,359.5 369.5,361.5C 367.252,363.654 365.752,366.321 365,369.5C 360.514,371.324 358.514,374.657 359,379.5C 357.763,381.104 356.597,382.771 355.5,384.5C 354.264,383.754 352.93,383.421 351.5,383.5C 353.794,378.36 355.794,373.027 357.5,367.5C 357.5,366.833 357.5,366.167 357.5,365.5C 358.376,365.631 359.043,365.298 359.5,364.5C 361.223,361.268 362.556,357.935 363.5,354.5C 366.892,353.01 368.226,350.343 367.5,346.5C 369.408,345.514 370.408,343.848 370.5,341.5C 371.376,341.631 372.043,341.298 372.5,340.5C 375.913,332.73 379.913,325.396 384.5,318.5C 385.466,316.604 385.799,314.604 385.5,312.5C 386.906,312.027 387.573,311.027 387.5,309.5C 388.778,309.218 389.778,308.551 390.5,307.5 Z"/></g>
<g><path style="opacity:0.937" fill="#d98d88" d="M 373.5,357.5 C 372.341,361.151 370.674,364.485 368.5,367.5C 368.833,365.5 369.167,363.5 369.5,361.5C 370.167,359.5 371.5,358.167 373.5,357.5 Z"/></g>
<g><path style="opacity:0.357" fill="#b1a8c9" d="M 297.5,364.5 C 293.178,363.274 288.845,363.274 284.5,364.5C 288.863,361.91 293.196,361.91 297.5,364.5 Z"/></g>
<g><path style="opacity:0.902" fill="#d38c8a" d="M 350.5,352.5 C 350.5,353.167 350.5,353.833 350.5,354.5C 348.137,358.551 346.137,362.885 344.5,367.5C 344.167,367.5 343.833,367.5 343.5,367.5C 343.5,366.833 343.5,366.167 343.5,365.5C 345.089,360.649 347.422,356.315 350.5,352.5 Z"/></g>
<g><path style="opacity:1" fill="#597075" d="M 397.5,360.5 C 398.515,362.964 397.515,364.63 394.5,365.5C 395.11,363.566 396.11,361.899 397.5,360.5 Z"/></g>
<g><path style="opacity:0.714" fill="#99a2a3" d="M 44.5,362.5 C 45.8333,363.833 47.1667,363.833 48.5,362.5C 47.1667,366.5 45.8333,366.5 44.5,362.5 Z"/></g>
<g><path style="opacity:1" fill="#a7403c" d="M 79.5,342.5 C 79.8333,342.5 80.1667,342.5 80.5,342.5C 79.8902,343.391 79.5569,344.391 79.5,345.5C 79.5,359.5 79.5,373.5 79.5,387.5C 78.8333,387.5 78.1667,387.5 77.5,387.5C 77.5,373.833 77.5,360.167 77.5,346.5C 77.5,345.833 77.5,345.167 77.5,344.5C 77.8333,343.5 78.5,342.833 79.5,342.5 Z"/></g>
<g><path style="opacity:1" fill="#5e517b" d="M 183.5,357.5 C 183.738,359.404 184.738,360.738 186.5,361.5C 187.659,362.456 188.826,363.456 190,364.5C 191.138,364.011 192.305,363.678 193.5,363.5C 192.264,365.043 190.598,366.043 188.5,366.5C 187.808,365.975 187.308,365.308 187,364.5C 186.601,364.728 186.435,365.062 186.5,365.5C 186.167,365.5 185.833,365.5 185.5,365.5C 180.831,358.771 174.497,356.771 166.5,359.5C 164.973,359.427 163.973,360.094 163.5,361.5C 163.34,363.153 162.674,364.486 161.5,365.5C 159.777,367.78 159.111,370.447 159.5,373.5C 159.44,374.043 159.107,374.376 158.5,374.5C 155.372,372.601 152.038,371.267 148.5,370.5C 147.274,370.52 146.274,370.853 145.5,371.5C 144.883,371.611 144.383,371.944 144,372.5C 143.591,376.302 142.757,379.969 141.5,383.5C 140.596,384.209 140.263,385.209 140.5,386.5C 139.833,385.833 139.167,385.167 138.5,384.5C 138.5,383.833 138.5,383.167 138.5,382.5C 138.251,378.542 138.918,374.876 140.5,371.5C 142.167,370.5 143.5,369.167 144.5,367.5C 145.167,367.5 145.833,367.5 146.5,367.5C 147.167,367.5 147.833,367.5 148.5,367.5C 149.5,367.5 150.5,367.5 151.5,367.5C 152.791,367.263 153.791,367.596 154.5,368.5C 155.947,369.885 156.947,369.552 157.5,367.5C 160.674,356.405 168.007,352.238 179.5,355C 181.066,355.608 182.4,356.442 183.5,357.5 Z"/></g>
<g><path style="opacity:0.012" fill="#d6cfe5" d="M 166.5,359.5 C 166.027,360.906 165.027,361.573 163.5,361.5C 163.973,360.094 164.973,359.427 166.5,359.5 Z"/></g>
<g><path style="opacity:1" fill="#5f527b" d="M 321.5,355.5 C 326.576,356.912 329.576,360.245 330.5,365.5C 330.5,366.167 330.5,366.833 330.5,367.5C 329.9,366.1 328.9,365.1 327.5,364.5C 327.167,364.5 326.833,364.5 326.5,364.5C 324.833,362.167 322.833,360.167 320.5,358.5C 321.404,357.791 321.737,356.791 321.5,355.5 Z"/></g>
<g><path style="opacity:1" fill="#492c58" d="M 193.5,363.5 C 194.5,363.5 195.5,363.5 196.5,363.5C 199.692,363.405 202.692,364.071 205.5,365.5C 206.287,367.104 207.62,367.771 209.5,367.5C 209.263,368.791 209.596,369.791 210.5,370.5C 211.775,373.604 211.775,376.604 210.5,379.5C 209.167,379.5 208.5,378.833 208.5,377.5C 208.975,374.918 208.308,372.918 206.5,371.5C 206.167,370.833 205.833,370.167 205.5,369.5C 205.027,368.094 204.027,367.427 202.5,367.5C 202.167,367.5 201.833,367.5 201.5,367.5C 200.508,365.974 199.008,365.307 197,365.5C 194.992,365.307 193.492,365.974 192.5,367.5C 192.158,368.338 191.492,368.672 190.5,368.5C 189.577,369.303 188.577,369.47 187.5,369C 187.833,368.667 188.167,368.333 188.5,368C 187.244,367.583 186.577,366.75 186.5,365.5C 186.435,365.062 186.601,364.728 187,364.5C 187.308,365.308 187.808,365.975 188.5,366.5C 190.598,366.043 192.264,365.043 193.5,363.5 Z"/></g>
<g><path style="opacity:0.463" fill="#a9a0b6" d="M 201.5,367.5 C 198.477,366.322 195.477,366.322 192.5,367.5C 193.492,365.974 194.992,365.307 197,365.5C 199.008,365.307 200.508,365.974 201.5,367.5 Z"/></g>
<g><path style="opacity:1" fill="#b6534f" d="M 213.5,360.5 C 213.167,361.833 212.833,363.167 212.5,364.5C 212.672,365.492 212.338,366.158 211.5,366.5C 210.833,366.833 210.167,367.167 209.5,367.5C 207.62,367.771 206.287,367.104 205.5,365.5C 206.583,365.539 207.583,365.873 208.5,366.5C 209.709,364.059 211.376,362.059 213.5,360.5 Z"/></g>
<g><path style="opacity:0.22" fill="#f7cac9" d="M 355.5,363.5 C 355.833,363.5 356.167,363.5 356.5,363.5C 356.328,364.492 356.662,365.158 357.5,365.5C 357.5,366.167 357.5,366.833 357.5,367.5C 356.833,367.833 356.167,368.167 355.5,368.5C 355.5,367.833 355.167,367.5 354.5,367.5C 354.433,366.041 354.766,364.708 355.5,363.5 Z"/></g>
<g><path style="opacity:1" fill="#322556" d="M 303.5,364.5 C 303.672,365.492 303.338,366.158 302.5,366.5C 301.596,367.209 301.263,368.209 301.5,369.5C 300.5,369.5 299.5,369.5 298.5,369.5C 297.5,369.167 296.833,368.5 296.5,367.5C 295.054,366.06 293.221,365.393 291,365.5C 288.992,365.307 287.492,365.974 286.5,367.5C 286.167,367.5 285.833,367.5 285.5,367.5C 284.448,367.649 283.448,367.483 282.5,367C 283.381,366.292 284.047,365.458 284.5,364.5C 288.845,363.274 293.178,363.274 297.5,364.5C 298.947,365.885 299.947,365.552 300.5,363.5C 301.458,363.047 302.292,362.381 303,361.5C 303.483,362.448 303.649,363.448 303.5,364.5 Z"/></g>
<g><path style="opacity:0.345" fill="#a096ad" d="M 296.5,367.5 C 293.167,366.167 289.833,366.167 286.5,367.5C 287.492,365.974 288.992,365.307 291,365.5C 293.221,365.393 295.054,366.06 296.5,367.5 Z"/></g>
<g><path style="opacity:0.514" fill="#baacce" d="M 300.5,363.5 C 299.947,365.552 298.947,365.885 297.5,364.5C 298.609,364.443 299.609,364.11 300.5,363.5 Z"/></g>
<g><path style="opacity:0.478" fill="#bbaec0" d="M 343.5,365.5 C 343.5,366.167 343.5,366.833 343.5,367.5C 340.833,367.5 338.167,367.5 335.5,367.5C 338.053,366.745 340.72,366.078 343.5,365.5 Z"/></g>
<g><path style="opacity:1" fill="#8b849c" d="M 185.5,365.5 C 185.833,365.5 186.167,365.5 186.5,365.5C 186.577,366.75 187.244,367.583 188.5,368C 188.167,368.333 187.833,368.667 187.5,369C 188.577,369.47 189.577,369.303 190.5,368.5C 190.489,370.686 189.489,371.519 187.5,371C 186.139,369.416 185.472,367.582 185.5,365.5 Z"/></g>
<g><path style="opacity:1" fill="#7c7293" d="M 284.5,364.5 C 284.047,365.458 283.381,366.292 282.5,367C 283.448,367.483 284.448,367.649 285.5,367.5C 284.167,369.5 282.5,371.167 280.5,372.5C 280.649,371.448 280.483,370.448 280,369.5C 279.292,370.381 278.458,371.047 277.5,371.5C 278.833,368.167 281.167,365.833 284.5,364.5 Z"/></g>
<g><path style="opacity:0.039" fill="#e7d7f1" d="M 157.5,367.5 C 156.947,369.552 155.947,369.885 154.5,368.5C 155.609,368.443 156.609,368.11 157.5,367.5 Z"/></g>
<g><path style="opacity:0.533" fill="#b5a9c1" d="M 202.5,367.5 C 204.027,367.427 205.027,368.094 205.5,369.5C 203.973,369.573 202.973,368.906 202.5,367.5 Z"/></g>
<g><path style="opacity:0.094" fill="#f0d2dd" d="M 211.5,366.5 C 211.167,367.833 210.833,369.167 210.5,370.5C 209.596,369.791 209.263,368.791 209.5,367.5C 210.167,367.167 210.833,366.833 211.5,366.5 Z"/></g>
<g><path style="opacity:0.286" fill="#d0c6e9" d="M 330.5,365.5 C 331.1,366.9 332.1,367.9 333.5,368.5C 332.053,369.885 331.053,369.552 330.5,367.5C 330.5,366.833 330.5,366.167 330.5,365.5 Z"/></g>
<g><path style="opacity:0.008" fill="#fce3e1" d="M 354.5,367.5 C 355.167,367.5 355.5,367.833 355.5,368.5C 355.672,369.492 355.338,370.158 354.5,370.5C 354.672,371.492 354.338,372.158 353.5,372.5C 353.672,373.492 353.338,374.158 352.5,374.5C 352.011,375.995 351.345,377.329 350.5,378.5C 350.672,377.508 350.338,376.842 349.5,376.5C 349.557,375.391 349.89,374.391 350.5,373.5C 351.351,371.118 352.684,369.118 354.5,367.5 Z"/></g>
<g><path style="opacity:0.039" fill="#d1dae4" d="M 401.5,369.5 C 400.041,369.433 398.708,369.766 397.5,370.5C 397.62,369.414 398.287,368.747 399.5,368.5C 400.416,368.543 401.083,368.876 401.5,369.5 Z"/></g>
<g><path style="opacity:0.71" fill="#a49cb9" d="M 144.5,367.5 C 143.5,369.167 142.167,370.5 140.5,371.5C 140.833,369.167 142.167,367.833 144.5,367.5 Z"/></g>
<g><path style="opacity:0.008" fill="#beb8cb" d="M 302.5,366.5 C 302.725,368.716 301.892,370.383 300,371.5C 299.283,370.956 298.783,370.289 298.5,369.5C 299.5,369.5 300.5,369.5 301.5,369.5C 301.263,368.209 301.596,367.209 302.5,366.5 Z"/></g>
<g><path style="opacity:0.302" fill="#bbb3d2" d="M 326.5,364.5 C 326.833,364.5 327.167,364.5 327.5,364.5C 328.299,367.43 328.632,370.43 328.5,373.5C 327.525,370.689 326.858,367.689 326.5,364.5 Z"/></g>
<g><path style="opacity:0.533" fill="#9f9bb0" d="M 161.5,365.5 C 161.435,368.428 160.768,371.095 159.5,373.5C 159.111,370.447 159.777,367.78 161.5,365.5 Z"/></g>
<g><path style="opacity:0.004" fill="#fefffe" d="M 145.5,371.5 C 149.243,371.459 149.41,372.126 146,373.5C 145.536,372.906 145.369,372.239 145.5,371.5 Z"/></g>
<g><path style="opacity:0.812" fill="#84999c" d="M 407.5,371.5 C 409.404,371.738 410.738,372.738 411.5,374.5C 409.596,374.262 408.262,373.262 407.5,371.5 Z"/></g>
<g><path style="opacity:0.211" fill="#fcdddd" d="M 41.5,356.5 C 41.5,356.833 41.5,357.167 41.5,357.5C 36.8333,357.5 32.1667,357.5 27.5,357.5C 26.5,357.5 25.5,357.5 24.5,357.5C 24.5,371.5 24.5,385.5 24.5,399.5C 16.3501,400.493 8.01676,400.826 -0.5,400.5C -0.5,400.167 -0.5,399.833 -0.5,399.5C 7.5,399.5 15.5,399.5 23.5,399.5C 23.5,385.167 23.5,370.833 23.5,356.5C 29.5,356.5 35.5,356.5 41.5,356.5 Z"/></g>
<g><path style="opacity:0.859" fill="#85969a" d="M 235.5,372.5 C 237.404,372.738 238.738,373.738 239.5,375.5C 237.596,375.262 236.262,374.262 235.5,372.5 Z"/></g>
<g><path style="opacity:0.961" fill="#d69086" d="M 368.5,367.5 C 366.75,371.335 364.75,375.001 362.5,378.5C 362.167,378.5 361.833,378.5 361.5,378.5C 362.595,373.962 364.928,370.295 368.5,367.5 Z"/></g>
<g><path style="opacity:0.173" fill="#c4bcda" d="M 206.5,371.5 C 208.308,372.918 208.975,374.918 208.5,377.5C 208.167,377.5 207.833,377.5 207.5,377.5C 207.675,375.379 207.341,373.379 206.5,371.5 Z"/></g>
<g><path style="opacity:1" fill="#4b3d69" d="M 280.5,372.5 C 279.686,374.631 279.186,376.964 279,379.5C 278.617,378.944 278.117,378.611 277.5,378.5C 276.167,376.167 276.167,373.833 277.5,371.5C 278.458,371.047 279.292,370.381 280,369.5C 280.483,370.448 280.649,371.448 280.5,372.5 Z"/></g>
<g><path style="opacity:0.969" fill="#8d445b" d="M 345.5,369.5 C 347.48,370.474 349.147,371.807 350.5,373.5C 349.89,374.391 349.557,375.391 349.5,376.5C 349.167,376.5 348.833,376.5 348.5,376.5C 348.075,373.881 347.075,371.547 345.5,369.5 Z"/></g>
<g><path style="opacity:1" fill="#bf3c39" d="M 369.5,361.5 C 369.167,363.5 368.833,365.5 368.5,367.5C 364.928,370.295 362.595,373.962 361.5,378.5C 360.404,381.032 359.071,383.365 357.5,385.5C 356.167,385.5 354.833,385.5 353.5,385.5C 352.833,385.5 352.167,385.5 351.5,385.5C 350.058,384.18 349.392,382.514 349.5,380.5C 350.338,380.158 350.672,379.492 350.5,378.5C 351.345,377.329 352.011,375.995 352.5,374.5C 353.338,374.158 353.672,373.492 353.5,372.5C 354.338,372.158 354.672,371.492 354.5,370.5C 355.338,370.158 355.672,369.492 355.5,368.5C 356.167,368.167 356.833,367.833 357.5,367.5C 355.794,373.027 353.794,378.36 351.5,383.5C 352.93,383.421 354.264,383.754 355.5,384.5C 356.597,382.771 357.763,381.104 359,379.5C 358.514,374.657 360.514,371.324 365,369.5C 365.752,366.321 367.252,363.654 369.5,361.5 Z"/></g>
<g><path style="opacity:0.455" fill="#8ea7aa" d="M 390.5,373.5 C 390.573,375.027 389.906,376.027 388.5,376.5C 388.427,374.973 389.094,373.973 390.5,373.5 Z"/></g>
<g><path style="opacity:0.729" fill="#89999b" d="M 413.5,376.5 C 415.027,376.427 416.027,377.094 416.5,378.5C 414.973,378.573 413.973,377.906 413.5,376.5 Z"/></g>
<g><path style="opacity:0.278" fill="#d7b4da" d="M 348.5,376.5 C 348.833,376.5 349.167,376.5 349.5,376.5C 349.328,377.492 349.662,378.158 350.5,378.5C 350.672,379.492 350.338,380.158 349.5,380.5C 348.566,379.432 348.232,378.099 348.5,376.5 Z"/></g>
<g><path style="opacity:1" fill="#716987" d="M 207.5,377.5 C 207.833,377.5 208.167,377.5 208.5,377.5C 208.5,378.833 209.167,379.5 210.5,379.5C 210.008,381.819 209.008,383.819 207.5,385.5C 207.715,383.821 207.048,382.821 205.5,382.5C 205.893,380.716 206.559,379.05 207.5,377.5 Z"/></g>
<g><path style="opacity:1" fill="#7d7396" d="M 280.5,372.5 C 280.421,375.271 280.921,377.937 282,380.5C 283.481,381.471 284.315,382.804 284.5,384.5C 282.871,383.375 281.371,382.041 280,380.5C 279.536,381.094 279.369,381.761 279.5,382.5C 278.326,381.486 277.66,380.153 277.5,378.5C 278.117,378.611 278.617,378.944 279,379.5C 279.186,376.964 279.686,374.631 280.5,372.5 Z"/></g>
<g><path style="opacity:0.173" fill="#c4d6d7" d="M 387.5,378.5 C 387.573,380.027 386.906,381.027 385.5,381.5C 385.427,379.973 386.094,378.973 387.5,378.5 Z"/></g>
<g><path style="opacity:0.569" fill="#91a0a4" d="M 417.5,379.5 C 422.463,380.254 427.463,380.587 432.5,380.5C 430.696,381.162 428.696,381.495 426.5,381.5C 423.186,381.657 420.186,380.991 417.5,379.5 Z"/></g>
<g><path style="opacity:0.4" fill="#b3a9bb" d="M 345.5,374.5 C 346.344,377.345 347.01,380.345 347.5,383.5C 347.167,383.5 346.833,383.5 346.5,383.5C 345.597,380.609 345.264,377.609 345.5,374.5 Z"/></g>
<g><path style="opacity:1" fill="#697c81" d="M 391.5,381.5 C 390.89,383.434 389.89,385.101 388.5,386.5C 388.67,385.178 388.337,384.011 387.5,383C 388.901,382.59 390.234,382.09 391.5,381.5 Z"/></g>
<g><path style="opacity:1" fill="#974240" d="M 27.5,357.5 C 27.5,358.167 27.5,358.833 27.5,359.5C 26.5044,372.656 26.1711,385.99 26.5,399.5C 25.8333,399.5 25.1667,399.5 24.5,399.5C 24.5,385.5 24.5,371.5 24.5,357.5C 25.5,357.5 26.5,357.5 27.5,357.5 Z"/></g>
<g><path style="opacity:0.69" fill="#afa5c6" d="M 138.5,382.5 C 138.5,383.167 138.5,383.833 138.5,384.5C 137.292,385.234 135.959,385.567 134.5,385.5C 135.795,384.512 137.128,383.512 138.5,382.5 Z"/></g>
<g><path style="opacity:0.005" fill="#fefffe" d="M 210.5,383.5 C 211.773,384.077 211.773,384.743 210.5,385.5C 209.537,385.03 209.537,384.363 210.5,383.5 Z"/></g>
<g><path style="opacity:0.596" fill="#cd8987" d="M 27.5,359.5 C 28.791,359.263 29.791,359.596 30.5,360.5C 29.209,360.263 28.209,360.596 27.5,361.5C 27.5,373.833 27.5,386.167 27.5,398.5C 27.5,398.833 27.5,399.167 27.5,399.5C 27.5,399.833 27.5,400.167 27.5,400.5C 26.8333,400.5 26.5,400.167 26.5,399.5C 26.1711,385.99 26.5044,372.656 27.5,359.5 Z"/></g>
<g><path style="opacity:0.664" fill="#7b719a" d="M 205.5,382.5 C 205.489,384.017 204.823,385.184 203.5,386C 182.503,386.5 161.503,386.667 140.5,386.5C 140.263,385.209 140.596,384.209 141.5,383.5C 151.311,384.832 161.477,385.499 172,385.5C 182.167,385.333 192.333,385.167 202.5,385C 203.373,383.955 204.373,383.122 205.5,382.5 Z"/></g>
<g><path style="opacity:0.749" fill="#8fa2a5" d="M 384.5,384.5 C 384.167,386.833 382.833,388.167 380.5,388.5C 381.5,386.833 382.833,385.5 384.5,384.5 Z"/></g>
<g><path style="opacity:1" fill="#401344" d="M 205.5,382.5 C 207.048,382.821 207.715,383.821 207.5,385.5C 206.5,385.833 205.833,386.5 205.5,387.5C 204.833,387.5 204.5,387.833 204.5,388.5C 180.833,388.5 157.167,388.5 133.5,388.5C 133.557,387.391 133.89,386.391 134.5,385.5C 135.959,385.567 137.292,385.234 138.5,384.5C 139.167,385.167 139.833,385.833 140.5,386.5C 161.503,386.667 182.503,386.5 203.5,386C 204.823,385.184 205.489,384.017 205.5,382.5 Z"/></g>
<g><path style="opacity:0.214" fill="#fbd4d4" d="M 207.5,385.5 C 232.167,386.833 256.833,386.833 281.5,385.5C 282.5,385.833 283.167,386.5 283.5,387.5C 257.5,387.5 231.5,387.5 205.5,387.5C 205.833,386.5 206.5,385.833 207.5,385.5 Z"/></g>
<g><path style="opacity:1" fill="#432454" d="M 327.5,364.5 C 328.9,365.1 329.9,366.1 330.5,367.5C 331.053,369.552 332.053,369.885 333.5,368.5C 333.842,367.662 334.508,367.328 335.5,367.5C 338.167,367.5 340.833,367.5 343.5,367.5C 343.833,367.5 344.167,367.5 344.5,367.5C 345.338,367.842 345.672,368.508 345.5,369.5C 347.075,371.547 348.075,373.881 348.5,376.5C 348.232,378.099 348.566,379.432 349.5,380.5C 349.392,382.514 350.058,384.18 351.5,385.5C 329.191,387.49 306.525,388.156 283.5,387.5C 283.167,386.5 282.5,385.833 281.5,385.5C 280.094,385.027 279.427,384.027 279.5,382.5C 279.369,381.761 279.536,381.094 280,380.5C 281.371,382.041 282.871,383.375 284.5,384.5C 284.5,385.167 284.833,385.5 285.5,385.5C 306.337,386.828 327.337,386.828 348.5,385.5C 348.376,384.893 348.043,384.56 347.5,384.5C 347.5,384.167 347.5,383.833 347.5,383.5C 347.01,380.345 346.344,377.345 345.5,374.5C 344.662,374.158 344.328,373.492 344.5,372.5C 344.5,371.167 343.833,370.5 342.5,370.5C 337.81,370.619 333.476,371.952 329.5,374.5C 328.893,374.376 328.56,374.043 328.5,373.5C 328.632,370.43 328.299,367.43 327.5,364.5 Z"/></g>
<g><path style="opacity:0.785" fill="#61537f" d="M 347.5,384.5 C 348.043,384.56 348.376,384.893 348.5,385.5C 327.337,386.828 306.337,386.828 285.5,385.5C 306.34,385.831 327.007,385.497 347.5,384.5 Z"/></g>
<g><path style="opacity:0.013" fill="#fdfdfd" d="M 346.5,383.5 C 346.833,383.5 347.167,383.5 347.5,383.5C 347.5,383.833 347.5,384.167 347.5,384.5C 327.007,385.497 306.34,385.831 285.5,385.5C 284.833,385.5 284.5,385.167 284.5,384.5C 305.34,384.831 326.007,384.497 346.5,383.5 Z"/></g>
<g><path style="opacity:0.49" fill="#cec2d7" d="M 342.5,370.5 C 343.833,370.5 344.5,371.167 344.5,372.5C 343.5,372.167 342.833,371.5 342.5,370.5 Z"/></g>
<g><path style="opacity:0.157" fill="#dbcbcb" d="M 361.5,378.5 C 361.833,378.5 362.167,378.5 362.5,378.5C 361.246,382.176 359.579,385.676 357.5,389C 364.492,389.5 371.492,389.666 378.5,389.5C 371.352,390.492 364.019,390.825 356.5,390.5C 356.629,388.784 356.962,387.117 357.5,385.5C 359.071,383.365 360.404,381.032 361.5,378.5 Z"/></g>
<g><path style="opacity:0.45" fill="#e6a3a6" d="M 79.5,345.5 C 79.8333,345.5 80.1667,345.5 80.5,345.5C 80.5,345.833 80.5,346.167 80.5,346.5C 80.5,360.167 80.5,373.833 80.5,387.5C 97.8159,387.46 114.983,387.46 132,387.5C 132.417,386.244 133.25,385.577 134.5,385.5C 133.89,386.391 133.557,387.391 133.5,388.5C 115.5,388.5 97.5,388.5 79.5,388.5C 79.5,388.167 79.5,387.833 79.5,387.5C 79.5,373.5 79.5,359.5 79.5,345.5 Z"/></g>
<g><path style="opacity:1" fill="#651641" d="M 351.5,385.5 C 352.167,385.5 352.833,385.5 353.5,385.5C 354.953,386.825 354.619,387.658 352.5,388C 350.19,388.497 347.857,388.663 345.5,388.5C 344.167,388.5 342.833,388.5 341.5,388.5C 322.167,388.5 302.833,388.5 283.5,388.5C 283.5,388.167 283.5,387.833 283.5,387.5C 306.525,388.156 329.191,387.49 351.5,385.5 Z"/></g>
<g><path style="opacity:1" fill="#ab3853" d="M 283.5,389.5 C 283.5,389.167 283.5,388.833 283.5,388.5C 302.833,388.5 322.167,388.5 341.5,388.5C 341.5,389.5 341.5,390.5 341.5,391.5C 341.167,391.5 340.833,391.5 340.5,391.5C 321.863,389.513 302.863,388.846 283.5,389.5 Z"/></g>
<g><path style="opacity:0.031" fill="#ecc5d5" d="M 341.5,388.5 C 342.833,388.5 344.167,388.5 345.5,388.5C 345.5,388.833 345.5,389.167 345.5,389.5C 344.833,390.167 344.167,390.833 343.5,391.5C 343.167,388.833 342.833,388.833 342.5,391.5C 342.167,391.5 341.833,391.5 341.5,391.5C 341.5,390.5 341.5,389.5 341.5,388.5 Z"/></g>
<g><path style="opacity:1" fill="#a14751" d="M 353.5,385.5 C 354.833,385.5 356.167,385.5 357.5,385.5C 356.962,387.117 356.629,388.784 356.5,390.5C 355.596,391.209 355.263,392.209 355.5,393.5C 354.5,393.833 353.833,394.5 353.5,395.5C 353.672,396.492 353.338,397.158 352.5,397.5C 352.167,397.5 351.833,397.5 351.5,397.5C 351.232,395.901 351.566,394.568 352.5,393.5C 354.104,392.713 354.771,391.38 354.5,389.5C 351.5,389.5 348.5,389.5 345.5,389.5C 345.5,389.167 345.5,388.833 345.5,388.5C 347.857,388.663 350.19,388.497 352.5,388C 354.619,387.658 354.953,386.825 353.5,385.5 Z"/></g>
<g><path style="opacity:1" fill="#b53642" d="M 79.5,388.5 C 97.5,388.5 115.5,388.5 133.5,388.5C 157.167,388.5 180.833,388.5 204.5,388.5C 204.082,389.222 203.416,389.722 202.5,390C 182.836,390.5 163.169,390.667 143.5,390.5C 122.003,390.002 100.67,389.335 79.5,388.5 Z"/></g>
<g><path style="opacity:1" fill="#c3383d" d="M 283.5,389.5 C 302.863,388.846 321.863,389.513 340.5,391.5C 340.5,392.167 340.5,392.833 340.5,393.5C 339.662,393.842 339.328,394.508 339.5,395.5C 338.662,395.842 338.328,396.508 338.5,397.5C 337.833,397.833 337.167,398.167 336.5,398.5C 336.693,395.692 337.36,393.025 338.5,390.5C 319.992,390.83 301.659,390.497 283.5,389.5 Z"/></g>
<g><path style="opacity:1" fill="#bc4040" d="M 345.5,389.5 C 348.5,389.5 351.5,389.5 354.5,389.5C 354.771,391.38 354.104,392.713 352.5,393.5C 352.5,392.5 352.5,391.5 352.5,390.5C 350.167,390.5 347.833,390.5 345.5,390.5C 345.377,393.374 344.377,395.874 342.5,398C 345.592,398.736 348.592,398.569 351.5,397.5C 351.672,398.492 351.338,399.158 350.5,399.5C 347.5,399.5 344.5,399.5 341.5,399.5C 341.5,398.5 341.5,397.5 341.5,396.5C 341.5,395.833 341.5,395.167 341.5,394.5C 342.906,394.027 343.573,393.027 343.5,391.5C 344.167,390.833 344.833,390.167 345.5,389.5 Z"/></g>
<g><path style="opacity:0.024" fill="#b3bbbb" d="M 387.5,388.5 C 387.167,390.833 385.833,392.167 383.5,392.5C 384.5,390.833 385.833,389.5 387.5,388.5 Z"/></g>
<g><path style="opacity:1" fill="#cf312d" d="M 77.5,387.5 C 78.1667,387.5 78.8333,387.5 79.5,387.5C 79.5,387.833 79.5,388.167 79.5,388.5C 100.67,389.335 122.003,390.002 143.5,390.5C 140.972,391.166 138.306,391.832 135.5,392.5C 136.171,393.946 137.338,394.612 139,394.5C 156.155,393.201 173.322,393.201 190.5,394.5C 190.977,395.478 191.643,396.311 192.5,397C 186.319,397.172 180.319,397.672 174.5,398.5C 135.494,398.833 96.4943,398.5 57.5,397.5C 55.0955,395.358 53.7622,392.691 53.5,389.5C 61.6841,389.826 69.6841,389.492 77.5,388.5C 77.5,388.167 77.5,387.833 77.5,387.5 Z"/></g>
<g><path style="opacity:1" fill="#ce312d" d="M 352.5,393.5 C 351.566,394.568 351.232,395.901 351.5,397.5C 348.592,398.569 345.592,398.736 342.5,398C 344.377,395.874 345.377,393.374 345.5,390.5C 347.833,390.5 350.167,390.5 352.5,390.5C 352.5,391.5 352.5,392.5 352.5,393.5 Z"/></g>
<g><path style="opacity:0.078" fill="#fbdbe0" d="M 340.5,391.5 C 340.833,391.5 341.167,391.5 341.5,391.5C 341.833,392.833 342.167,392.833 342.5,391.5C 342.833,391.5 343.167,391.5 343.5,391.5C 343.573,393.027 342.906,394.027 341.5,394.5C 341.5,393.833 341.167,393.5 340.5,393.5C 340.5,392.833 340.5,392.167 340.5,391.5 Z"/></g>
<g><path style="opacity:0.899" fill="#697c81" d="M 355.5,393.5 C 364.5,393.5 373.5,393.5 382.5,393.5C 381.737,394.268 380.737,394.768 379.5,395C 370.84,395.5 362.173,395.666 353.5,395.5C 353.833,394.5 354.5,393.833 355.5,393.5 Z"/></g>
<g><path style="opacity:0.043" fill="#fceade" d="M 340.5,393.5 C 341.167,393.5 341.5,393.833 341.5,394.5C 341.5,395.167 341.5,395.833 341.5,396.5C 341.167,396.5 340.833,396.5 340.5,396.5C 340.5,395.833 340.167,395.5 339.5,395.5C 339.328,394.508 339.662,393.842 340.5,393.5 Z"/></g>
<g><path style="opacity:0.004" fill="#fefffe" d="M 477.5,394.5 C 477.5,395.5 477.5,396.5 477.5,397.5C 475.443,397.043 475.443,396.043 477.5,394.5 Z"/></g>
<g><path style="opacity:1" fill="#ce332e" d="M 205.5,387.5 C 231.5,387.5 257.5,387.5 283.5,387.5C 283.5,387.833 283.5,388.167 283.5,388.5C 283.5,388.833 283.5,389.167 283.5,389.5C 301.659,390.497 319.992,390.83 338.5,390.5C 337.36,393.025 336.693,395.692 336.5,398.5C 282.5,398.5 228.5,398.5 174.5,398.5C 180.319,397.672 186.319,397.172 192.5,397C 191.643,396.311 190.977,395.478 190.5,394.5C 173.322,393.201 156.155,393.201 139,394.5C 137.338,394.612 136.171,393.946 135.5,392.5C 138.306,391.832 140.972,391.166 143.5,390.5C 163.169,390.667 182.836,390.5 202.5,390C 203.416,389.722 204.082,389.222 204.5,388.5C 204.5,387.833 204.833,387.5 205.5,387.5 Z"/></g>
<g><path style="opacity:0.01" fill="#ffebeb" d="M 339.5,395.5 C 340.167,395.5 340.5,395.833 340.5,396.5C 340.672,397.492 340.338,398.158 339.5,398.5C 339.5,397.833 339.167,397.5 338.5,397.5C 338.328,396.508 338.662,395.842 339.5,395.5 Z"/></g>
<g><path style="opacity:1" fill="#ba3741" d="M 77.5,388.5 C 69.6841,389.492 61.6841,389.826 53.5,389.5C 53.7622,392.691 55.0955,395.358 57.5,397.5C 96.4943,398.5 135.494,398.833 174.5,398.5C 228.5,398.5 282.5,398.5 336.5,398.5C 336.5,399.167 336.5,399.833 336.5,400.5C 244.5,400.5 152.5,400.5 60.5,400.5C 59.8333,400.5 59.1667,400.5 58.5,400.5C 57.7095,399.599 56.7095,398.932 55.5,398.5C 53.3685,395.554 52.3685,392.221 52.5,388.5C 60.8333,388.5 69.1667,388.5 77.5,388.5 Z"/></g>
<g><path style="opacity:0.038" fill="#ffe6fd" d="M 55.5,398.5 C 56.7095,398.932 57.7095,399.599 58.5,400.5C 48.1667,400.5 37.8333,400.5 27.5,400.5C 27.5,400.167 27.5,399.833 27.5,399.5C 37.015,399.827 46.3483,399.494 55.5,398.5 Z"/></g>
<g><path style="opacity:0.188" fill="#f8d5e4" d="M 338.5,397.5 C 339.167,397.5 339.5,397.833 339.5,398.5C 339.5,399.167 339.5,399.833 339.5,400.5C 338.5,400.5 337.5,400.5 336.5,400.5C 336.5,399.833 336.5,399.167 336.5,398.5C 337.167,398.167 337.833,397.833 338.5,397.5 Z"/></g>
<g><path style="opacity:1" fill="#a5455a" d="M 340.5,396.5 C 340.833,396.5 341.167,396.5 341.5,396.5C 341.5,397.5 341.5,398.5 341.5,399.5C 344.5,399.5 347.5,399.5 350.5,399.5C 350.5,399.833 350.5,400.167 350.5,400.5C 346.833,400.5 343.167,400.5 339.5,400.5C 339.5,399.833 339.5,399.167 339.5,398.5C 340.338,398.158 340.672,397.492 340.5,396.5 Z"/></g>
<g><path style="opacity:0.037" fill="#fee5fe" d="M 351.5,397.5 C 351.833,397.5 352.167,397.5 352.5,397.5C 393.82,399.494 435.487,400.161 477.5,399.5C 477.5,399.833 477.5,400.167 477.5,400.5C 435.167,400.5 392.833,400.5 350.5,400.5C 350.5,400.167 350.5,399.833 350.5,399.5C 351.338,399.158 351.672,398.492 351.5,397.5 Z"/></g>
<g><path style="opacity:0.812" fill="#5d4e71" d="M 24.5,399.5 C 25.1667,399.5 25.8333,399.5 26.5,399.5C 26.5,400.167 26.8333,400.5 27.5,400.5C 37.8333,400.5 48.1667,400.5 58.5,400.5C 59.1667,400.5 59.8333,400.5 60.5,400.5C 40.3402,401.497 20.0069,401.83 -0.5,401.5C -0.5,401.167 -0.5,400.833 -0.5,400.5C 8.01676,400.826 16.3501,400.493 24.5,399.5 Z"/></g>
<g><path style="opacity:0.778" fill="#5c4f73" d="M 478.5,399.5 C 479.167,399.5 479.833,399.5 480.5,399.5C 488.984,400.493 497.651,400.826 506.5,400.5C 506.5,400.833 506.5,401.167 506.5,401.5C 454.331,401.832 402.331,401.499 350.5,400.5C 392.833,400.5 435.167,400.5 477.5,400.5C 478.167,400.5 478.5,400.167 478.5,399.5 Z"/></g>
<g><path style="opacity:1" fill="#401141" d="M 60.5,400.5 C 152.5,400.5 244.5,400.5 336.5,400.5C 337.5,400.5 338.5,400.5 339.5,400.5C 343.167,400.5 346.833,400.5 350.5,400.5C 402.331,401.499 454.331,401.832 506.5,401.5C 506.5,401.833 506.5,402.167 506.5,402.5C 337.5,402.5 168.5,402.5 -0.5,402.5C -0.5,402.167 -0.5,401.833 -0.5,401.5C 20.0069,401.83 40.3402,401.497 60.5,400.5 Z"/></g>
<g><path style="opacity:0.698" fill="#76688d" d="M -0.5,403.5 C -0.5,403.167 -0.5,402.833 -0.5,402.5C 168.5,402.5 337.5,402.5 506.5,402.5C 506.5,402.833 506.5,403.167 506.5,403.5C 335.675,403.627 166.675,403.627 -0.5,403.5 Z"/></g>
</svg>
