<?xml version="1.0" encoding="UTF-8"?>
<!DOCTYPE svg PUBLIC "-//W3C//DTD SVG 1.1//EN" "http://www.w3.org/Graphics/SVG/1.1/DTD/svg11.dtd">
<svg xmlns="http://www.w3.org/2000/svg" version="1.1" width="256px" height="256px" style="shape-rendering:geometricPrecision; text-rendering:geometricPrecision; image-rendering:optimizeQuality; fill-rule:evenodd; clip-rule:evenodd" xmlns:xlink="http://www.w3.org/1999/xlink">
<g><path style="opacity:1" fill="#cd5a52" d="M 201.5,15.5 C 195.045,13.54 188.712,11.2066 182.5,8.5C 179.824,8.837 177.157,9.17034 174.5,9.5C 182.26,6.54402 189.927,7.04402 197.5,11C 199.041,12.3712 200.375,13.8712 201.5,15.5 Z"/></g>
<g><path style="opacity:0.741" fill="#d88f8d" d="M 173.5,9.5 C 171.966,11.369 169.966,12.7023 167.5,13.5C 168.802,11.1782 170.802,9.8449 173.5,9.5 Z"/></g>
<g><path style="opacity:0.99" fill="#ce6962" d="M 163.5,17.5 C 162.129,18.7868 160.295,19.4535 158,19.5C 150.896,19.2179 143.896,18.2179 137,16.5C 134.784,16.6527 132.617,16.9861 130.5,17.5C 130.611,16.8826 130.944,16.3826 131.5,16C 140.907,15.7474 150.24,16.5807 159.5,18.5C 160.925,18.3767 162.258,18.0434 163.5,17.5 Z"/></g>
<g><path style="opacity:1" fill="#cb615d" d="M 201.5,15.5 C 204.444,17.7158 206.111,20.7158 206.5,24.5C 203.544,22.2118 201.877,19.2118 201.5,15.5 Z"/></g>
<g><path style="opacity:1" fill="#cf312d" d="M 201.5,15.5 C 201.877,19.2118 203.544,22.2118 206.5,24.5C 206.845,30.4165 206.012,36.0831 204,41.5C 202.211,43.8655 200.044,45.5321 197.5,46.5C 197.883,49.462 196.883,50.462 194.5,49.5C 193.571,50.6888 193.238,52.0222 193.5,53.5C 193.167,53.5 192.833,53.5 192.5,53.5C 187.187,54.0978 181.854,54.4312 176.5,54.5C 175.391,54.4431 174.391,54.1098 173.5,53.5C 173.027,52.0937 172.027,51.427 170.5,51.5C 170.167,50.8333 169.833,50.1667 169.5,49.5C 165.38,46.9882 165.547,44.6549 170,42.5C 170.667,41.8333 170.667,41.1667 170,40.5C 167.281,42.3961 164.448,42.7294 161.5,41.5C 162.962,38.358 162.295,36.358 159.5,35.5C 158.411,33.8829 156.744,33.0496 154.5,33C 150.167,32.3333 145.833,32.3333 141.5,33C 139.538,38.9821 138.538,45.1487 138.5,51.5C 137.701,54.4299 137.368,57.4299 137.5,60.5C 137.5,61.5 137.5,62.5 137.5,63.5C 140.279,63.2786 142.946,63.612 145.5,64.5C 150.873,66.4524 156.54,67.4524 162.5,67.5C 162.833,67.5 163.167,67.5 163.5,67.5C 167.176,70.5096 171.509,71.843 176.5,71.5C 176.833,71.5 177.167,71.5 177.5,71.5C 177.804,72.1499 178.137,72.8165 178.5,73.5C 181.161,74.4992 183.828,75.4992 186.5,76.5C 187.192,77.0253 187.692,77.6919 188,78.5C 189.011,77.6634 190.178,77.33 191.5,77.5C 192.583,77.5394 193.583,77.8728 194.5,78.5C 195.94,77.0476 197.606,76.0476 199.5,75.5C 202.647,75.2634 205.647,74.4301 208.5,73C 213.489,72.5007 218.489,72.3341 223.5,72.5C 225.206,74.5358 227.539,75.5358 230.5,75.5C 230.833,75.5 231.167,75.5 231.5,75.5C 231.628,77.0898 232.295,78.4231 233.5,79.5C 235.61,81.2889 237.944,82.6223 240.5,83.5C 240.343,84.8734 240.51,86.2068 241,87.5C 241.876,89.6355 243.376,90.9688 245.5,91.5C 245.5,91.8333 245.5,92.1667 245.5,92.5C 246.724,99.8243 246.724,107.158 245.5,114.5C 243.744,115.552 243.077,117.219 243.5,119.5C 241.474,122.518 239.474,125.518 237.5,128.5C 238.833,138.5 238.833,148.5 237.5,158.5C 237.5,158.833 237.5,159.167 237.5,159.5C 236.504,159.414 235.671,159.748 235,160.5C 232.925,165.412 231.425,170.412 230.5,175.5C 227.463,173.814 226.13,174.814 226.5,178.5C 225.022,178.238 223.689,178.571 222.5,179.5C 220.454,181.782 219.454,184.449 219.5,187.5C 218.127,187.343 216.793,187.51 215.5,188C 215.957,188.414 216.291,188.914 216.5,189.5C 213.017,190.057 211.35,192.057 211.5,195.5C 210.5,195.5 209.5,195.5 208.5,195.5C 208.5,196.5 208.5,197.5 208.5,198.5C 206.801,198.34 205.134,198.506 203.5,199C 203.957,199.414 204.291,199.914 204.5,200.5C 202.579,201.324 201.246,202.657 200.5,204.5C 199.101,205.89 197.434,206.89 195.5,207.5C 192.833,207.833 190.167,208.167 187.5,208.5C 187.5,209.5 187.5,210.5 187.5,211.5C 184.432,211.547 181.432,212.047 178.5,213C 177.748,213.671 177.414,214.504 177.5,215.5C 177.167,215.5 176.833,215.5 176.5,215.5C 168.371,215.213 161.037,217.213 154.5,221.5C 151.214,222.207 147.881,222.54 144.5,222.5C 133.167,222.5 121.833,222.5 110.5,222.5C 98.2554,218.768 85.5888,215.768 72.5,213.5C 71.1999,212.173 69.8665,210.84 68.5,209.5C 63.5321,206.955 58.5321,204.622 53.5,202.5C 52.8333,202.5 52.1667,202.5 51.5,202.5C 51.0269,201.094 50.0269,200.427 48.5,200.5C 48.0269,199.094 47.0269,198.427 45.5,198.5C 44.5,198.167 43.8333,197.5 43.5,196.5C 42.4274,193.764 40.4274,192.097 37.5,191.5C 34.8333,189.5 32.5,187.167 30.5,184.5C 30.4191,181.487 29.0858,179.487 26.5,178.5C 26.0074,176.194 25.6741,173.861 25.5,171.5C 24.5,171.5 23.5,171.5 22.5,171.5C 21.6618,171.158 21.3284,170.492 21.5,169.5C 19.9847,161.935 17.9847,154.602 15.5,147.5C 15.5,145.5 15.5,143.5 15.5,141.5C 16.8172,136.619 18.1506,131.619 19.5,126.5C 18.4231,125.295 17.0898,124.628 15.5,124.5C 13.9631,120.921 12.4631,117.254 11,113.5C 9.55522,108.252 8.72189,102.918 8.5,97.5C 10.554,94.9924 11.554,91.9924 11.5,88.5C 13.553,87.4664 15.2197,85.9664 16.5,84C 17.448,83.5172 18.448,83.3505 19.5,83.5C 19.5,81.8333 19.5,80.1667 19.5,78.5C 20.5137,77.3263 21.847,76.6596 23.5,76.5C 27.07,75.7135 30.4034,74.3801 33.5,72.5C 37.5,71.1667 41.5,71.1667 45.5,72.5C 49.9588,74.4082 54.2922,76.9082 58.5,80C 60.1341,80.4935 61.8008,80.6602 63.5,80.5C 63.5,79.5 63.5,78.5 63.5,77.5C 69.0049,76.6672 74.0049,74.6672 78.5,71.5C 80.5145,70.0762 82.8478,69.4095 85.5,69.5C 88.1522,69.5905 90.4855,68.9238 92.5,67.5C 95.9981,66.0832 99.6648,65.4165 103.5,65.5C 109.069,65.624 114.402,64.9573 119.5,63.5C 120.285,61.6264 120.952,59.6264 121.5,57.5C 123.667,52.1699 124.667,46.5032 124.5,40.5C 124.401,37.7628 124.735,35.0961 125.5,32.5C 127.402,29.6627 128.069,26.3293 127.5,22.5C 127.259,19.9664 128.259,18.2998 130.5,17.5C 132.617,16.9861 134.784,16.6527 137,16.5C 143.896,18.2179 150.896,19.2179 158,19.5C 160.295,19.4535 162.129,18.7868 163.5,17.5C 164.5,15.8333 165.833,14.5 167.5,13.5C 169.966,12.7023 171.966,11.369 173.5,9.5C 173.833,9.5 174.167,9.5 174.5,9.5C 177.157,9.17034 179.824,8.837 182.5,8.5C 188.712,11.2066 195.045,13.54 201.5,15.5 Z M 188.5,25.5 C 190.126,28.2457 190.793,31.2457 190.5,34.5C 189.5,36.1667 188.167,37.5 186.5,38.5C 183.246,38.7931 180.246,38.1264 177.5,36.5C 174.916,26.4169 178.583,22.7502 188.5,25.5 Z M 82.5,112.5 C 82.8333,112.5 83.1667,112.5 83.5,112.5C 90.318,111.416 95.9846,113.416 100.5,118.5C 103.167,124.5 103.167,130.5 100.5,136.5C 96.8066,140.178 92.4733,142.511 87.5,143.5C 87.1667,143.5 86.8333,143.5 86.5,143.5C 84.6976,142.542 82.6976,141.875 80.5,141.5C 75.4707,138.101 72.4707,133.435 71.5,127.5C 72.3007,125.958 72.634,124.292 72.5,122.5C 74.8333,118.167 78.1667,114.833 82.5,112.5 Z M 162.5,112.5 C 162.833,112.5 163.167,112.5 163.5,112.5C 170.318,111.416 175.985,113.416 180.5,118.5C 183.167,124.5 183.167,130.5 180.5,136.5C 176.807,140.178 172.473,142.511 167.5,143.5C 167.167,143.5 166.833,143.5 166.5,143.5C 164.698,142.542 162.698,141.875 160.5,141.5C 155.471,138.101 152.471,133.435 151.5,127.5C 152.301,125.958 152.634,124.292 152.5,122.5C 154.833,118.167 158.167,114.833 162.5,112.5 Z M 101.5,169.5 C 108.795,173.836 116.795,175.836 125.5,175.5C 131.652,176.049 137.652,175.383 143.5,173.5C 147.297,173.128 150.63,171.794 153.5,169.5C 163.987,166.323 167.987,169.99 165.5,180.5C 162.369,181.983 159.369,183.65 156.5,185.5C 152.215,186.262 148.215,187.595 144.5,189.5C 144.167,189.5 143.833,189.5 143.5,189.5C 137.991,189.875 132.658,190.542 127.5,191.5C 121.916,190.507 116.249,189.841 110.5,189.5C 108.786,188.262 106.786,187.595 104.5,187.5C 102.698,186.542 100.698,185.875 98.5,185.5C 96.5739,183.707 94.2406,182.707 91.5,182.5C 86.7885,177.771 86.7885,173.271 91.5,169C 94.8881,168.341 98.2214,168.508 101.5,169.5 Z"/></g>
<g><path style="opacity:1" fill="#d26e69" d="M 127.5,22.5 C 128.069,26.3293 127.402,29.6627 125.5,32.5C 125.753,28.9601 126.419,25.6267 127.5,22.5 Z"/></g>
<g><path style="opacity:0.086" fill="#f0b4b0" d="M 188.5,25.5 C 189.75,25.5774 190.583,26.244 191,27.5C 191.796,30.0385 191.629,32.3718 190.5,34.5C 190.793,31.2457 190.126,28.2457 188.5,25.5 Z"/></g>
<g><path style="opacity:0.98" fill="#d3736d" d="M 159.5,35.5 C 154.83,34.9281 150.163,34.2614 145.5,33.5C 144.5,33.8333 143.5,34.1667 142.5,34.5C 141.393,40.1443 140.393,45.811 139.5,51.5C 139.167,51.5 138.833,51.5 138.5,51.5C 138.538,45.1487 139.538,38.9821 141.5,33C 145.833,32.3333 150.167,32.3333 154.5,33C 156.744,33.0496 158.411,33.8829 159.5,35.5 Z"/></g>
<g><path style="opacity:1" fill="#cf625b" d="M 206.5,24.5 C 210.068,37.6979 205.735,47.3646 193.5,53.5C 193.238,52.0222 193.571,50.6888 194.5,49.5C 196.883,50.462 197.883,49.462 197.5,46.5C 200.044,45.5321 202.211,43.8655 204,41.5C 206.012,36.0831 206.845,30.4165 206.5,24.5 Z"/></g>
<g><path style="opacity:1" fill="#d47971" d="M 159.5,35.5 C 162.295,36.358 162.962,38.358 161.5,41.5C 160.542,39.6976 159.875,37.6976 159.5,35.5 Z"/></g>
<g><path style="opacity:0.067" fill="#f3bab5" d="M 177.5,36.5 C 180.246,38.1264 183.246,38.7931 186.5,38.5C 184.372,39.6291 182.039,39.7958 179.5,39C 178.244,38.5831 177.577,37.7498 177.5,36.5 Z"/></g>
<g><path style="opacity:1" fill="#cb4b44" d="M 169.5,49.5 C 168.833,49.5 168.167,49.5 167.5,49.5C 164.529,47.5574 162.529,44.8908 161.5,41.5C 164.448,42.7294 167.281,42.3961 170,40.5C 170.667,41.1667 170.667,41.8333 170,42.5C 165.547,44.6549 165.38,46.9882 169.5,49.5 Z"/></g>
<g><path style="opacity:0.992" fill="#d67b75" d="M 124.5,40.5 C 124.667,46.5032 123.667,52.1699 121.5,57.5C 121.98,51.6144 122.98,45.9478 124.5,40.5 Z"/></g>
<g><path style="opacity:0.533" fill="#e79d9f" d="M 167.5,49.5 C 168.167,49.5 168.833,49.5 169.5,49.5C 169.833,50.1667 170.167,50.8333 170.5,51.5C 168.973,51.573 167.973,50.9063 167.5,49.5 Z"/></g>
<g><path style="opacity:0.439" fill="#e7a5a1" d="M 170.5,51.5 C 172.027,51.427 173.027,52.0937 173.5,53.5C 171.973,53.573 170.973,52.9063 170.5,51.5 Z"/></g>
<g><path style="opacity:0.812" fill="#e09995" d="M 138.5,51.5 C 138.833,51.5 139.167,51.5 139.5,51.5C 139.142,54.6888 138.475,57.6888 137.5,60.5C 137.368,57.4299 137.701,54.4299 138.5,51.5 Z"/></g>
<g><path style="opacity:0.498" fill="#db7e78" d="M 192.5,53.5 C 189.644,55.0058 186.477,55.6725 183,55.5C 180.639,55.4961 178.473,55.1627 176.5,54.5C 181.854,54.4312 187.187,54.0978 192.5,53.5 Z"/></g>
<g><path style="opacity:0.988" fill="#ce7873" d="M 119.5,63.5 C 114.402,64.9573 109.069,65.624 103.5,65.5C 108.598,64.0427 113.931,63.376 119.5,63.5 Z"/></g>
<g><path style="opacity:1" fill="#d77774" d="M 145.5,64.5 C 151.46,64.5476 157.127,65.5476 162.5,67.5C 156.54,67.4524 150.873,66.4524 145.5,64.5 Z"/></g>
<g><path style="opacity:0.984" fill="#d07d78" d="M 92.5,67.5 C 90.4855,68.9238 88.1522,69.5905 85.5,69.5C 87.5145,68.0762 89.8478,67.4095 92.5,67.5 Z"/></g>
<g><path style="opacity:1" fill="#ce6a62" d="M 163.5,67.5 C 168.072,68.3876 172.405,69.7209 176.5,71.5C 171.509,71.843 167.176,70.5096 163.5,67.5 Z"/></g>
<g><path style="opacity:0.988" fill="#ce6e67" d="M 223.5,72.5 C 218.489,72.3341 213.489,72.5007 208.5,73C 205.647,74.4301 202.647,75.2634 199.5,75.5C 201.858,73.8714 204.524,72.7048 207.5,72C 213.016,71.1826 218.35,71.3493 223.5,72.5 Z"/></g>
<g><path style="opacity:0.992" fill="#d06f68" d="M 223.5,72.5 C 226.157,72.9348 228.491,73.9348 230.5,75.5C 227.539,75.5358 225.206,74.5358 223.5,72.5 Z"/></g>
<g><path style="opacity:0.988" fill="#d26b68" d="M 177.5,71.5 C 182.467,72.9884 187.134,74.9884 191.5,77.5C 190.178,77.33 189.011,77.6634 188,78.5C 187.692,77.6919 187.192,77.0253 186.5,76.5C 183.828,75.4992 181.161,74.4992 178.5,73.5C 178.137,72.8165 177.804,72.1499 177.5,71.5 Z"/></g>
<g><path style="opacity:1" fill="#c75a58" d="M 33.5,72.5 C 30.4034,74.3801 27.07,75.7135 23.5,76.5C 26.1918,73.8193 29.5252,72.4859 33.5,72.5 Z"/></g>
<g><path style="opacity:0.996" fill="#d06765" d="M 78.5,71.5 C 74.0049,74.6672 69.0049,76.6672 63.5,77.5C 68.1049,74.7376 73.1049,72.7376 78.5,71.5 Z"/></g>
<g><path style="opacity:1" fill="#c8554e" d="M 45.5,72.5 C 51.0277,73.0943 56.0277,75.0943 60.5,78.5C 61.4168,77.8728 62.4168,77.5394 63.5,77.5C 63.5,78.5 63.5,79.5 63.5,80.5C 61.8008,80.6602 60.1341,80.4935 58.5,80C 54.2922,76.9082 49.9588,74.4082 45.5,72.5 Z"/></g>
<g><path style="opacity:1" fill="#c95e57" d="M 231.5,75.5 C 235.146,77.4819 238.146,80.1485 240.5,83.5C 237.944,82.6223 235.61,81.2889 233.5,79.5C 232.295,78.4231 231.628,77.0898 231.5,75.5 Z"/></g>
<g><path style="opacity:1" fill="#cd5f5a" d="M 19.5,78.5 C 19.5,80.1667 19.5,81.8333 19.5,83.5C 18.448,83.3505 17.448,83.5172 16.5,84C 15.2197,85.9664 13.553,87.4664 11.5,88.5C 13.2076,84.4281 15.8743,81.0948 19.5,78.5 Z"/></g>
<g><path style="opacity:1" fill="#d16a66" d="M 240.5,83.5 C 242.95,85.6291 244.617,88.2957 245.5,91.5C 243.376,90.9688 241.876,89.6355 241,87.5C 240.51,86.2068 240.343,84.8734 240.5,83.5 Z"/></g>
<g><path style="opacity:1" fill="#cb625c" d="M 11.5,88.5 C 11.554,91.9924 10.554,94.9924 8.5,97.5C 8.52751,94.0836 9.52751,91.0836 11.5,88.5 Z"/></g>
<g><path style="opacity:0.924" fill="#d16f68" d="M 245.5,92.5 C 247.039,95.8646 247.706,99.5313 247.5,103.5C 247.706,107.469 247.039,111.135 245.5,114.5C 246.724,107.158 246.724,99.8243 245.5,92.5 Z"/></g>
<g><path style="opacity:1" fill="#d16760" d="M 8.5,97.5 C 8.72189,102.918 9.55522,108.252 11,113.5C 12.4631,117.254 13.9631,120.921 15.5,124.5C 8.44088,116.667 6.10754,107.667 8.5,97.5 Z"/></g>
<g><path style="opacity:1" fill="#d96c63" d="M 83.5,112.5 C 87.9811,111.352 92.6478,111.185 97.5,112C 99.8384,113.508 100.838,115.675 100.5,118.5C 95.9846,113.416 90.318,111.416 83.5,112.5 Z"/></g>
<g><path style="opacity:1" fill="#d96c63" d="M 163.5,112.5 C 167.981,111.352 172.648,111.185 177.5,112C 179.838,113.508 180.838,115.675 180.5,118.5C 175.985,113.416 170.318,111.416 163.5,112.5 Z"/></g>
<g><path style="opacity:1" fill="#d37e78" d="M 245.5,114.5 C 245.598,116.553 244.931,118.22 243.5,119.5C 243.077,117.219 243.744,115.552 245.5,114.5 Z"/></g>
<g><path style="opacity:0.902" fill="#d47671" d="M 82.5,112.5 C 78.1667,114.833 74.8333,118.167 72.5,122.5C 71.9928,118.33 73.6595,115.33 77.5,113.5C 79.0709,112.691 80.7376,112.357 82.5,112.5 Z"/></g>
<g><path style="opacity:0.91" fill="#d47671" d="M 162.5,112.5 C 158.167,114.833 154.833,118.167 152.5,122.5C 151.993,118.33 153.659,115.33 157.5,113.5C 159.071,112.691 160.738,112.357 162.5,112.5 Z"/></g>
<g><path style="opacity:0.987" fill="#d26662" d="M 100.5,118.5 C 102.411,118.574 103.578,119.574 104,121.5C 104.667,125.5 104.667,129.5 104,133.5C 103.578,135.426 102.411,136.426 100.5,136.5C 103.167,130.5 103.167,124.5 100.5,118.5 Z"/></g>
<g><path style="opacity:0.985" fill="#d26662" d="M 180.5,118.5 C 182.411,118.574 183.578,119.574 184,121.5C 184.667,125.5 184.667,129.5 184,133.5C 183.578,135.426 182.411,136.426 180.5,136.5C 183.167,130.5 183.167,124.5 180.5,118.5 Z"/></g>
<g><path style="opacity:1" fill="#c75c58" d="M 15.5,124.5 C 17.0898,124.628 18.4231,125.295 19.5,126.5C 18.1506,131.619 16.8172,136.619 15.5,141.5C 15.3488,136.708 16.0155,132.041 17.5,127.5C 16.8075,126.482 16.1408,125.482 15.5,124.5 Z"/></g>
<g><path style="opacity:1" fill="#ce564f" d="M 71.5,127.5 C 72.4707,133.435 75.4707,138.101 80.5,141.5C 81.9179,143.308 83.9179,143.975 86.5,143.5C 86.8333,143.5 87.1667,143.5 87.5,143.5C 90.2372,143.599 92.9039,143.265 95.5,142.5C 93.2568,143.812 90.5902,144.478 87.5,144.5C 84.8333,144.167 82.1667,143.833 79.5,143.5C 77.3932,141.113 74.7265,139.78 71.5,139.5C 71.5,135.5 71.5,131.5 71.5,127.5 Z"/></g>
<g><path style="opacity:1" fill="#cd564f" d="M 151.5,127.5 C 152.471,133.435 155.471,138.101 160.5,141.5C 161.918,143.308 163.918,143.975 166.5,143.5C 166.833,143.5 167.167,143.5 167.5,143.5C 170.237,143.599 172.904,143.265 175.5,142.5C 173.257,143.812 170.59,144.478 167.5,144.5C 164.833,144.167 162.167,143.833 159.5,143.5C 157.393,141.113 154.727,139.78 151.5,139.5C 151.5,135.5 151.5,131.5 151.5,127.5 Z"/></g>
<g><path style="opacity:0.816" fill="#ce6b68" d="M 237.5,128.5 C 239.007,133.413 239.674,138.579 239.5,144C 239.707,149.102 239.04,153.935 237.5,158.5C 238.833,148.5 238.833,138.5 237.5,128.5 Z"/></g>
<g><path style="opacity:1" fill="#d67770" d="M 100.5,136.5 C 99.962,138.117 99.6287,139.784 99.5,141.5C 98.0413,141.433 96.7079,141.766 95.5,142.5C 92.9039,143.265 90.2372,143.599 87.5,143.5C 92.4733,142.511 96.8066,140.178 100.5,136.5 Z"/></g>
<g><path style="opacity:1" fill="#d67770" d="M 180.5,136.5 C 179.962,138.117 179.629,139.784 179.5,141.5C 178.041,141.433 176.708,141.766 175.5,142.5C 172.904,143.265 170.237,143.599 167.5,143.5C 172.473,142.511 176.807,140.178 180.5,136.5 Z"/></g>
<g><path style="opacity:0.969" fill="#dc8b85" d="M 80.5,141.5 C 82.6976,141.875 84.6976,142.542 86.5,143.5C 83.9179,143.975 81.9179,143.308 80.5,141.5 Z"/></g>
<g><path style="opacity:0.961" fill="#dc8b85" d="M 160.5,141.5 C 162.698,141.875 164.698,142.542 166.5,143.5C 163.918,143.975 161.918,143.308 160.5,141.5 Z"/></g>
<g><path style="opacity:0.992" fill="#cf6863" d="M 15.5,147.5 C 17.9847,154.602 19.9847,161.935 21.5,169.5C 17.3642,162.857 15.3642,155.523 15.5,147.5 Z"/></g>
<g><path style="opacity:1" fill="#cd635a" d="M 237.5,159.5 C 236.234,165.36 233.9,170.693 230.5,175.5C 231.425,170.412 232.925,165.412 235,160.5C 235.671,159.748 236.504,159.414 237.5,159.5 Z"/></g>
<g><path style="opacity:1" fill="#ce6a63" d="M 101.5,169.5 C 109.493,171.894 117.493,173.894 125.5,175.5C 116.795,175.836 108.795,173.836 101.5,169.5 Z"/></g>
<g><path style="opacity:0.988" fill="#ce756a" d="M 150.5,169.5 C 151.5,169.5 152.5,169.5 153.5,169.5C 150.63,171.794 147.297,173.128 143.5,173.5C 145.266,171.441 147.599,170.107 150.5,169.5 Z"/></g>
<g><path style="opacity:1" fill="#cd5e58" d="M 22.5,171.5 C 23.5,171.5 24.5,171.5 25.5,171.5C 25.6741,173.861 26.0074,176.194 26.5,178.5C 24.412,176.664 23.0787,174.331 22.5,171.5 Z"/></g>
<g><path style="opacity:0.965" fill="#cf635f" d="M 165.5,180.5 C 167.987,169.99 163.987,166.323 153.5,169.5C 152.5,169.5 151.5,169.5 150.5,169.5C 155.081,167.059 160.081,166.059 165.5,166.5C 167.029,169.021 168.029,171.854 168.5,175C 168.556,177.574 167.556,179.407 165.5,180.5 Z"/></g>
<g><path style="opacity:1" fill="#d1706d" d="M 26.5,178.5 C 29.0858,179.487 30.4191,181.487 30.5,184.5C 28.6736,182.853 27.3403,180.853 26.5,178.5 Z"/></g>
<g><path style="opacity:1" fill="#d0534c" d="M 230.5,175.5 C 225.93,184.071 219.597,191.071 211.5,196.5C 211.5,196.167 211.5,195.833 211.5,195.5C 211.35,192.057 213.017,190.057 216.5,189.5C 216.291,188.914 215.957,188.414 215.5,188C 216.793,187.51 218.127,187.343 219.5,187.5C 219.454,184.449 220.454,181.782 222.5,179.5C 223.689,178.571 225.022,178.238 226.5,178.5C 226.13,174.814 227.463,173.814 230.5,175.5 Z"/></g>
<g><path style="opacity:1" fill="#d6827e" d="M 91.5,182.5 C 94.2406,182.707 96.5739,183.707 98.5,185.5C 95.539,185.536 93.2057,184.536 91.5,182.5 Z"/></g>
<g><path style="opacity:1" fill="#c86664" d="M 165.5,180.5 C 163.652,183.931 160.652,185.597 156.5,185.5C 159.369,183.65 162.369,181.983 165.5,180.5 Z"/></g>
<g><path style="opacity:0.82" fill="#d17c77" d="M 98.5,185.5 C 100.698,185.875 102.698,186.542 104.5,187.5C 101.918,187.975 99.9179,187.308 98.5,185.5 Z"/></g>
<g><path style="opacity:0.941" fill="#d78681" d="M 104.5,187.5 C 106.786,187.595 108.786,188.262 110.5,189.5C 109.167,189.5 107.833,189.5 106.5,189.5C 105.5,189.167 104.833,188.5 104.5,187.5 Z"/></g>
<g><path style="opacity:1" fill="#ca635e" d="M 156.5,185.5 C 154.182,187.956 151.182,189.289 147.5,189.5C 146.5,189.5 145.5,189.5 144.5,189.5C 148.215,187.595 152.215,186.262 156.5,185.5 Z"/></g>
<g><path style="opacity:0.976" fill="#c8534c" d="M 106.5,189.5 C 107.833,189.5 109.167,189.5 110.5,189.5C 116.249,189.841 121.916,190.507 127.5,191.5C 131.846,191.666 136.179,191.499 140.5,191C 141.737,190.768 142.737,190.268 143.5,189.5C 143.833,189.5 144.167,189.5 144.5,189.5C 145.5,189.5 146.5,189.5 147.5,189.5C 145.723,190.6 143.723,191.434 141.5,192C 131.167,192.667 120.833,192.667 110.5,192C 108.934,191.392 107.6,190.558 106.5,189.5 Z"/></g>
<g><path style="opacity:0.992" fill="#d57c78" d="M 143.5,189.5 C 142.737,190.268 141.737,190.768 140.5,191C 136.179,191.499 131.846,191.666 127.5,191.5C 132.658,190.542 137.991,189.875 143.5,189.5 Z"/></g>
<g><path style="opacity:1" fill="#cc6b63" d="M 37.5,191.5 C 40.4274,192.097 42.4274,193.764 43.5,196.5C 40.9108,195.581 38.9108,193.914 37.5,191.5 Z"/></g>
<g><path style="opacity:1" fill="#d57269" d="M 211.5,195.5 C 211.5,195.833 211.5,196.167 211.5,196.5C 208.399,199.933 204.732,202.6 200.5,204.5C 201.246,202.657 202.579,201.324 204.5,200.5C 204.291,199.914 203.957,199.414 203.5,199C 205.134,198.506 206.801,198.34 208.5,198.5C 208.5,197.5 208.5,196.5 208.5,195.5C 209.5,195.5 210.5,195.5 211.5,195.5 Z"/></g>
<g><path style="opacity:0.443" fill="#e6aea6" d="M 45.5,198.5 C 47.0269,198.427 48.0269,199.094 48.5,200.5C 46.9731,200.573 45.9731,199.906 45.5,198.5 Z"/></g>
<g><path style="opacity:0.506" fill="#e4a599" d="M 48.5,200.5 C 50.0269,200.427 51.0269,201.094 51.5,202.5C 49.9731,202.573 48.9731,201.906 48.5,200.5 Z"/></g>
<g><path style="opacity:0.431" fill="#e9aea8" d="M 51.5,202.5 C 52.1667,202.5 52.8333,202.5 53.5,202.5C 53.8333,203.167 54.1667,203.833 54.5,204.5C 52.9731,204.573 51.9731,203.906 51.5,202.5 Z"/></g>
<g><path style="opacity:0.471" fill="#ea9c9a" d="M 56.5,205.5 C 58.0269,205.427 59.0269,206.094 59.5,207.5C 57.9731,207.573 56.9731,206.906 56.5,205.5 Z"/></g>
<g><path style="opacity:1" fill="#c9534f" d="M 53.5,202.5 C 58.5321,204.622 63.5321,206.955 68.5,209.5C 69.8665,210.84 71.1999,212.173 72.5,213.5C 67.738,212.284 63.4047,210.284 59.5,207.5C 59.0269,206.094 58.0269,205.427 56.5,205.5C 55.5084,205.672 54.8417,205.338 54.5,204.5C 54.1667,203.833 53.8333,203.167 53.5,202.5 Z"/></g>
<g><path style="opacity:1" fill="#d2736e" d="M 195.5,207.5 C 193.151,209.341 190.485,210.674 187.5,211.5C 187.5,210.5 187.5,209.5 187.5,208.5C 190.167,208.167 192.833,207.833 195.5,207.5 Z"/></g>
<g><path style="opacity:1" fill="#d4756b" d="M 187.5,211.5 C 184.46,213.346 181.127,214.679 177.5,215.5C 177.414,214.504 177.748,213.671 178.5,213C 181.432,212.047 184.432,211.547 187.5,211.5 Z"/></g>
<g><path style="opacity:0.937" fill="#db8c89" d="M 84.5,217.5 C 87.1522,217.41 89.4855,218.076 91.5,219.5C 91.5654,219.938 91.3988,220.272 91,220.5C 88.706,219.578 86.5394,218.578 84.5,217.5 Z"/></g>
<g><path style="opacity:1" fill="#d16761" d="M 176.5,215.5 C 169.522,218.413 162.189,220.413 154.5,221.5C 161.037,217.213 168.371,215.213 176.5,215.5 Z"/></g>
<g><path style="opacity:1" fill="#c5514c" d="M 72.5,213.5 C 85.5888,215.768 98.2554,218.768 110.5,222.5C 103.978,222.468 97.6443,221.468 91.5,219.5C 89.4855,218.076 87.1522,217.41 84.5,217.5C 80.2157,216.739 76.2157,215.405 72.5,213.5 Z"/></g>
<g><path style="opacity:0.849" fill="#d26864" d="M 110.5,222.5 C 121.833,222.5 133.167,222.5 144.5,222.5C 133.249,224.435 121.916,224.435 110.5,222.5 Z"/></g>
</svg>
