<?xml version="1.0" encoding="UTF-8"?>
<!DOCTYPE svg PUBLIC "-//W3C//DTD SVG 1.1//EN" "http://www.w3.org/Graphics/SVG/1.1/DTD/svg11.dtd">
<svg xmlns="http://www.w3.org/2000/svg" version="1.1" width="256px" height="256px" style="shape-rendering:geometricPrecision; text-rendering:geometricPrecision; image-rendering:optimizeQuality; fill-rule:evenodd; clip-rule:evenodd" xmlns:xlink="http://www.w3.org/1999/xlink">
<g><path style="opacity:0.596" fill="#f9c47a" d="M 169.5,39.5 C 173.458,39.2511 177.124,39.9177 180.5,41.5C 177.794,41.4249 175.127,41.0916 172.5,40.5C 171.209,40.7373 170.209,40.404 169.5,39.5 Z"/></g>
<g><path style="opacity:1" fill="#f1c170" d="M 160.5,39.5 C 158.485,40.9238 156.152,41.5905 153.5,41.5C 155.515,40.0762 157.848,39.4095 160.5,39.5 Z"/></g>
<g><path style="opacity:1" fill="#eebe6a" d="M 153.5,41.5 C 151.898,43.0739 149.898,43.7406 147.5,43.5C 149.102,41.9261 151.102,41.2594 153.5,41.5 Z"/></g>
<g><path style="opacity:1" fill="#f3be73" d="M 181.5,41.5 C 183.553,41.4021 185.22,42.0687 186.5,43.5C 184.219,43.9227 182.552,43.256 181.5,41.5 Z"/></g>
<g><path style="opacity:1" fill="#efa333" d="M 172.5,40.5 C 175.127,41.0916 177.794,41.4249 180.5,41.5C 180.833,41.5 181.167,41.5 181.5,41.5C 182.552,43.256 184.219,43.9227 186.5,43.5C 191.679,44.9166 196.012,47.5832 199.5,51.5C 197.533,51.2606 195.699,51.5939 194,52.5C 193.25,51.8742 192.416,51.3742 191.5,51C 192.731,49.8173 192.731,48.6507 191.5,47.5C 187.859,45.0625 184.025,44.3958 180,45.5C 179.517,44.552 179.351,43.552 179.5,42.5C 177.473,42.6621 175.473,42.4955 173.5,42C 172.944,41.6174 172.611,41.1174 172.5,40.5 Z"/></g>
<g><path style="opacity:1" fill="#f89c10" d="M 160.5,39.5 C 163.5,39.5 166.5,39.5 169.5,39.5C 170.209,40.404 171.209,40.7373 172.5,40.5C 172.611,41.1174 172.944,41.6174 173.5,42C 175.473,42.4955 177.473,42.6621 179.5,42.5C 179.351,43.552 179.517,44.552 180,45.5C 184.025,44.3958 187.859,45.0625 191.5,47.5C 192.731,48.6507 192.731,49.8173 191.5,51C 192.416,51.3742 193.25,51.8742 194,52.5C 195.699,51.5939 197.533,51.2606 199.5,51.5C 201.094,54.7642 203.427,57.4309 206.5,59.5C 207.167,59.5 207.5,59.8333 207.5,60.5C 207.5,61.8333 207.5,63.1667 207.5,64.5C 219.167,64.5 230.833,64.5 242.5,64.5C 243.478,66.6638 244.478,68.8305 245.5,71C 245.057,72.825 244.723,74.6583 244.5,76.5C 243.833,76.5 243.167,76.5 242.5,76.5C 241.5,76.5 240.5,76.5 239.5,76.5C 239.5,78.1667 239.5,79.8333 239.5,81.5C 238.5,81.5 237.5,81.5 236.5,81.5C 236.5,82.5 236.5,83.5 236.5,84.5C 232.516,84.4723 231.516,86.139 233.5,89.5C 232.06,90.3629 230.726,90.3629 229.5,89.5C 228.41,90.727 227.076,91.5604 225.5,92C 226.791,93.2917 226.791,94.4583 225.5,95.5C 224.25,95.4226 223.417,94.756 223,93.5C 222.072,95.3073 220.906,96.974 219.5,98.5C 217.034,99.1235 214.701,99.9568 212.5,101C 213.793,101.49 215.127,101.657 216.5,101.5C 216.5,102.833 216.5,104.167 216.5,105.5C 215.307,105.97 214.64,106.97 214.5,108.5C 213.754,112.132 213.421,115.798 213.5,119.5C 213.5,120.5 213.5,121.5 213.5,122.5C 212.883,122.611 212.383,122.944 212,123.5C 211.503,125.81 211.337,128.143 211.5,130.5C 211.443,131.609 211.11,132.609 210.5,133.5C 208.692,134.918 208.025,136.918 208.5,139.5C 205.774,143.014 203.608,147.014 202,151.5C 201.667,151.167 201.333,150.833 201,150.5C 200.688,155.806 198.354,159.806 194,162.5C 193.503,164.81 193.337,167.143 193.5,169.5C 192.194,169.879 190.861,170.212 189.5,170.5C 188.312,173.595 186.978,176.928 185.5,180.5C 185.5,181.167 185.167,181.5 184.5,181.5C 184.585,180.005 183.919,179.005 182.5,178.5C 181.534,180.396 181.201,182.396 181.5,184.5C 180.167,184.5 178.833,184.5 177.5,184.5C 177.552,186.903 177.219,189.236 176.5,191.5C 173.692,191.693 171.025,192.36 168.5,193.5C 168.5,194.5 168.5,195.5 168.5,196.5C 167.127,196.343 165.793,196.51 164.5,197C 166.727,197.704 167.06,198.871 165.5,200.5C 165.5,201.167 165.167,201.5 164.5,201.5C 161.769,202.027 159.102,202.86 156.5,204C 155.62,205.356 155.286,206.856 155.5,208.5C 155.167,208.5 154.833,208.5 154.5,208.5C 154.5,207.5 154.5,206.5 154.5,205.5C 152.833,205.5 151.167,205.5 149.5,205.5C 149.5,207.167 149.5,208.833 149.5,210.5C 145.101,213.136 140.434,215.469 135.5,217.5C 134.007,218.141 133.007,219.141 132.5,220.5C 129.15,220.335 125.817,220.502 122.5,221C 121.027,221.71 120.36,222.876 120.5,224.5C 117.5,224.5 114.5,224.5 111.5,224.5C 111.5,225.5 111.5,226.5 111.5,227.5C 110.432,228.434 109.099,228.768 107.5,228.5C 103.818,228.335 100.152,228.501 96.5,229C 95.944,229.383 95.6107,229.883 95.5,230.5C 95.1667,230.5 94.8333,230.5 94.5,230.5C 82.1519,230.586 69.8186,230.253 57.5,229.5C 53.767,227.589 49.767,226.256 45.5,225.5C 41.4945,224.502 38.1612,222.502 35.5,219.5C 34.8951,216.873 34.3951,214.207 34,211.5C 32.9823,212.706 32.4823,212.373 32.5,210.5C 33.7695,207.895 35.4361,205.562 37.5,203.5C 40.4824,203.037 43.4824,202.704 46.5,202.5C 46.5,201.5 46.5,200.5 46.5,199.5C 50.3494,199.082 53.3494,197.415 55.5,194.5C 59.2019,194.774 61.5352,193.108 62.5,189.5C 66.5095,188.089 69.8428,185.589 72.5,182C 75.6115,181.546 77.2782,179.713 77.5,176.5C 75.0149,174.509 72.3483,172.843 69.5,171.5C 69.5123,168.858 68.179,167.525 65.5,167.5C 64.888,163.905 62.888,161.572 59.5,160.5C 59.3712,157.13 57.7046,155.13 54.5,154.5C 54.5,154.167 54.5,153.833 54.5,153.5C 54.146,148.472 51.8127,144.805 47.5,142.5C 47.1706,139.173 45.8373,136.507 43.5,134.5C 42.2702,132.703 41.6036,130.703 41.5,128.5C 41.5233,124.236 40.1899,120.569 37.5,117.5C 37.5,117.167 37.5,116.833 37.5,116.5C 37.6655,112.486 37.4988,108.486 37,104.5C 36.2798,102.944 35.1132,101.944 33.5,101.5C 33.5,100.5 33.5,99.5 33.5,98.5C 32.7161,83.5134 32.3828,68.5134 32.5,53.5C 32.5,53.1667 32.5,52.8333 32.5,52.5C 33.8333,51.5 35.1667,50.5 36.5,49.5C 39.54,47.8463 42.2066,48.3463 44.5,51C 43.5494,51.7175 43.3828,52.5509 44,53.5C 46.0811,52.6669 48.2478,52.6669 50.5,53.5C 50.7135,55.1439 50.3802,56.6439 49.5,58C 52.747,58.9767 55.747,60.4767 58.5,62.5C 59.8613,64.0284 61.028,65.6951 62,67.5C 63.7067,66.8617 65.54,66.8617 67.5,67.5C 68.9714,70.3747 71.3047,72.3747 74.5,73.5C 75.3857,74.325 75.719,75.325 75.5,76.5C 77.861,76.6741 80.1944,77.0074 82.5,77.5C 82.8333,77.5 83.1667,77.5 83.5,77.5C 83.8212,79.0481 84.8212,79.7148 86.5,79.5C 89.6963,80.9287 92.6963,82.5954 95.5,84.5C 95.7214,85.7348 96.3881,86.7348 97.5,87.5C 102.291,89.6144 107.291,90.9478 112.5,91.5C 114.869,91.8511 117.203,92.0178 119.5,92C 118.832,86.8253 119.165,81.6586 120.5,76.5C 121.649,76.2089 122.316,75.3756 122.5,74C 123.077,71.863 123.41,69.6963 123.5,67.5C 125.178,66.2529 126.511,64.5862 127.5,62.5C 128.325,61.6143 129.325,61.281 130.5,61.5C 130.517,59.4352 130.85,57.4352 131.5,55.5C 133.886,54.6267 135.886,53.1267 137.5,51C 138.448,50.5172 139.448,50.3505 140.5,50.5C 140.5,49.5 140.5,48.5 140.5,47.5C 143.857,47.7841 146.191,46.4507 147.5,43.5C 149.898,43.7406 151.898,43.0739 153.5,41.5C 156.152,41.5905 158.485,40.9238 160.5,39.5 Z"/></g>
<g><path style="opacity:1" fill="#eead50" d="M 147.5,43.5 C 146.191,46.4507 143.857,47.7841 140.5,47.5C 142.336,45.412 144.669,44.0787 147.5,43.5 Z"/></g>
<g><path style="opacity:0.816" fill="#f1cd8d" d="M 37.5,47.5 C 37.1667,48.1667 36.8333,48.8333 36.5,49.5C 35.1667,50.5 33.8333,51.5 32.5,52.5C 33.1667,49.8333 34.8333,48.1667 37.5,47.5 Z"/></g>
<g><path style="opacity:1" fill="#f0ab47" d="M 37.5,47.5 C 43.1161,46.7955 47.4494,48.7955 50.5,53.5C 48.2478,52.6669 46.0811,52.6669 44,53.5C 43.3828,52.5509 43.5494,51.7175 44.5,51C 42.2066,48.3463 39.54,47.8463 36.5,49.5C 36.8333,48.8333 37.1667,48.1667 37.5,47.5 Z"/></g>
<g><path style="opacity:0.988" fill="#f4c983" d="M 199.5,51.5 C 202.573,53.5691 204.906,56.2358 206.5,59.5C 203.427,57.4309 201.094,54.7642 199.5,51.5 Z"/></g>
<g><path style="opacity:0.992" fill="#f0b864" d="M 140.5,47.5 C 140.5,48.5 140.5,49.5 140.5,50.5C 139.448,50.3505 138.448,50.5172 137.5,51C 135.886,53.1267 133.886,54.6267 131.5,55.5C 133.9,52.0969 136.9,49.4302 140.5,47.5 Z"/></g>
<g><path style="opacity:1" fill="#f3a83e" d="M 50.5,53.5 C 56.1914,58.1966 61.858,62.8632 67.5,67.5C 65.54,66.8617 63.7067,66.8617 62,67.5C 61.028,65.6951 59.8613,64.0284 58.5,62.5C 55.747,60.4767 52.747,58.9767 49.5,58C 50.3802,56.6439 50.7135,55.1439 50.5,53.5 Z"/></g>
<g><path style="opacity:0.804" fill="#f7d196" d="M 244.5,64.5 C 245.906,64.9731 246.573,65.9731 246.5,67.5C 245.094,67.0269 244.427,66.0269 244.5,64.5 Z"/></g>
<g><path style="opacity:1" fill="#edb159" d="M 131.5,55.5 C 130.85,57.4352 130.517,59.4352 130.5,61.5C 129.325,61.281 128.325,61.6143 127.5,62.5C 126.511,64.5862 125.178,66.2529 123.5,67.5C 125.178,62.8033 127.844,58.8033 131.5,55.5 Z"/></g>
<g><path style="opacity:1" fill="#f0a741" d="M 207.5,60.5 C 210.635,63.7161 214.469,64.3828 219,62.5C 227.543,63.1526 236.043,63.8193 244.5,64.5C 244.427,66.0269 245.094,67.0269 246.5,67.5C 247.833,70.1667 247.833,72.8333 246.5,75.5C 245.833,75.8333 245.167,76.1667 244.5,76.5C 244.723,74.6583 245.057,72.825 245.5,71C 244.478,68.8305 243.478,66.6638 242.5,64.5C 230.833,64.5 219.167,64.5 207.5,64.5C 207.5,63.1667 207.5,61.8333 207.5,60.5 Z"/></g>
<g><path style="opacity:1" fill="#f0b45a" d="M 67.5,67.5 C 72.7089,70.5984 77.7089,73.9317 82.5,77.5C 80.1944,77.0074 77.861,76.6741 75.5,76.5C 75.719,75.325 75.3857,74.325 74.5,73.5C 71.3047,72.3747 68.9714,70.3747 67.5,67.5 Z"/></g>
<g><path style="opacity:1" fill="#eeb259" d="M 123.5,67.5 C 123.41,69.6963 123.077,71.863 122.5,74C 122.316,75.3756 121.649,76.2089 120.5,76.5C 120.69,73.145 121.69,70.145 123.5,67.5 Z"/></g>
<g><path style="opacity:1" fill="#f4c47a" d="M 246.5,75.5 C 245.581,78.0892 243.914,80.0892 241.5,81.5C 242.038,79.8828 242.371,78.2161 242.5,76.5C 243.167,76.5 243.833,76.5 244.5,76.5C 245.167,76.1667 245.833,75.8333 246.5,75.5 Z"/></g>
<g><path style="opacity:0.973" fill="#f1cd80" d="M 83.5,77.5 C 84.7095,77.9321 85.7095,78.5987 86.5,79.5C 84.8212,79.7148 83.8212,79.0481 83.5,77.5 Z"/></g>
<g><path style="opacity:1" fill="#f6b14e" d="M 242.5,76.5 C 242.371,78.2161 242.038,79.8828 241.5,81.5C 239.167,84.5 236.5,87.1667 233.5,89.5C 231.516,86.139 232.516,84.4723 236.5,84.5C 236.5,83.5 236.5,82.5 236.5,81.5C 237.5,81.5 238.5,81.5 239.5,81.5C 239.5,79.8333 239.5,78.1667 239.5,76.5C 240.5,76.5 241.5,76.5 242.5,76.5 Z"/></g>
<g><path style="opacity:1" fill="#f2b358" d="M 95.5,84.5 C 101.338,86.591 107.005,88.9243 112.5,91.5C 107.291,90.9478 102.291,89.6144 97.5,87.5C 96.3881,86.7348 95.7214,85.7348 95.5,84.5 Z"/></g>
<g><path style="opacity:0.996" fill="#efba66" d="M 32.5,53.5 C 32.3828,68.5134 32.7161,83.5134 33.5,98.5C 30.6853,83.4076 30.3519,68.4076 32.5,53.5 Z"/></g>
<g><path style="opacity:1" fill="#f7bc62" d="M 233.5,89.5 C 230.5,93.1667 227.167,96.5 223.5,99.5C 223.733,97.9382 224.4,96.6049 225.5,95.5C 226.791,94.4583 226.791,93.2917 225.5,92C 227.076,91.5604 228.41,90.727 229.5,89.5C 230.726,90.3629 232.06,90.3629 233.5,89.5 Z"/></g>
<g><path style="opacity:1" fill="#f6aa43" d="M 225.5,95.5 C 224.4,96.6049 223.733,97.9382 223.5,99.5C 221.833,101.833 219.833,103.833 217.5,105.5C 217.167,105.5 216.833,105.5 216.5,105.5C 216.5,104.167 216.5,102.833 216.5,101.5C 215.127,101.657 213.793,101.49 212.5,101C 214.701,99.9568 217.034,99.1235 219.5,98.5C 220.906,96.974 222.072,95.3073 223,93.5C 223.417,94.756 224.25,95.4226 225.5,95.5 Z"/></g>
<g><path style="opacity:1" fill="#f0b050" d="M 33.5,101.5 C 35.1132,101.944 36.2798,102.944 37,104.5C 37.4988,108.486 37.6655,112.486 37.5,116.5C 35.4214,111.808 34.0881,106.808 33.5,101.5 Z"/></g>
<g><path style="opacity:0.804" fill="#f2c37d" d="M 216.5,105.5 C 216.833,105.5 217.167,105.5 217.5,105.5C 215.741,110.076 214.407,114.743 213.5,119.5C 213.421,115.798 213.754,112.132 214.5,108.5C 214.64,106.97 215.307,105.97 216.5,105.5 Z"/></g>
<g><path style="opacity:0.969" fill="#f2b96b" d="M 37.5,117.5 C 40.1899,120.569 41.5233,124.236 41.5,128.5C 39.3987,125.203 38.0653,121.537 37.5,117.5 Z"/></g>
<g><path style="opacity:0.949" fill="#f1cc74" d="M 213.5,122.5 C 213.037,125.33 212.371,127.997 211.5,130.5C 211.337,128.143 211.503,125.81 212,123.5C 212.383,122.944 212.883,122.611 213.5,122.5 Z"/></g>
<g><path style="opacity:1" fill="#f6ce8a" d="M 43.5,134.5 C 45.8373,136.507 47.1706,139.173 47.5,142.5C 45.6567,140.147 44.3234,137.48 43.5,134.5 Z"/></g>
<g><path style="opacity:1" fill="#f6c170" d="M 210.5,133.5 C 210.405,135.786 209.738,137.786 208.5,139.5C 208.025,136.918 208.692,134.918 210.5,133.5 Z"/></g>
<g><path style="opacity:1" fill="#f0b04a" d="M 47.5,142.5 C 51.8127,144.805 54.146,148.472 54.5,153.5C 51.8059,150.124 49.4726,146.457 47.5,142.5 Z"/></g>
<g><path style="opacity:1" fill="#f4b152" d="M 208.5,139.5 C 205.068,150.365 200.068,160.365 193.5,169.5C 193.337,167.143 193.503,164.81 194,162.5C 198.354,159.806 200.688,155.806 201,150.5C 201.333,150.833 201.667,151.167 202,151.5C 203.608,147.014 205.774,143.014 208.5,139.5 Z"/></g>
<g><path style="opacity:1" fill="#f3be70" d="M 54.5,154.5 C 57.7046,155.13 59.3712,157.13 59.5,160.5C 57.8437,158.54 56.177,156.54 54.5,154.5 Z"/></g>
<g><path style="opacity:1" fill="#eeb75b" d="M 59.5,160.5 C 62.888,161.572 64.888,163.905 65.5,167.5C 62.7997,165.766 60.7997,163.432 59.5,160.5 Z"/></g>
<g><path style="opacity:1" fill="#ebb85e" d="M 65.5,167.5 C 68.179,167.525 69.5123,168.858 69.5,171.5C 67.8333,170.5 66.5,169.167 65.5,167.5 Z"/></g>
<g><path style="opacity:1" fill="#f2b254" d="M 193.5,169.5 C 191.6,173.732 188.933,177.399 185.5,180.5C 186.978,176.928 188.312,173.595 189.5,170.5C 190.861,170.212 192.194,169.879 193.5,169.5 Z"/></g>
<g><path style="opacity:1" fill="#f4b250" d="M 184.5,181.5 C 182.206,185.127 179.54,188.461 176.5,191.5C 177.219,189.236 177.552,186.903 177.5,184.5C 178.833,184.5 180.167,184.5 181.5,184.5C 181.201,182.396 181.534,180.396 182.5,178.5C 183.919,179.005 184.585,180.005 184.5,181.5 Z"/></g>
<g><path style="opacity:1" fill="#f0b65a" d="M 69.5,171.5 C 72.3483,172.843 75.0149,174.509 77.5,176.5C 77.2782,179.713 75.6115,181.546 72.5,182C 69.8428,185.589 66.5095,188.089 62.5,189.5C 66.9379,185.564 71.2713,181.398 75.5,177C 73.0038,175.669 71.0038,173.836 69.5,171.5 Z"/></g>
<g><path style="opacity:1" fill="#f1b354" d="M 62.5,189.5 C 61.5352,193.108 59.2019,194.774 55.5,194.5C 57.5496,192.453 59.883,190.786 62.5,189.5 Z"/></g>
<g><path style="opacity:1" fill="#f3b353" d="M 176.5,191.5 C 173.129,194.871 169.463,197.871 165.5,200.5C 167.06,198.871 166.727,197.704 164.5,197C 165.793,196.51 167.127,196.343 168.5,196.5C 168.5,195.5 168.5,194.5 168.5,193.5C 171.025,192.36 173.692,191.693 176.5,191.5 Z"/></g>
<g><path style="opacity:1" fill="#f2b86a" d="M 55.5,194.5 C 53.3494,197.415 50.3494,199.082 46.5,199.5C 49.0078,197.076 52.0078,195.41 55.5,194.5 Z"/></g>
<g><path style="opacity:1" fill="#f0a949" d="M 46.5,199.5 C 46.5,200.5 46.5,201.5 46.5,202.5C 43.4824,202.704 40.4824,203.037 37.5,203.5C 40.3135,201.93 43.3135,200.597 46.5,199.5 Z"/></g>
<g><path style="opacity:1" fill="#f0b251" d="M 164.5,201.5 C 161.81,204.185 158.81,206.518 155.5,208.5C 155.286,206.856 155.62,205.356 156.5,204C 159.102,202.86 161.769,202.027 164.5,201.5 Z"/></g>
<g><path style="opacity:1" fill="#f0b256" d="M 37.5,203.5 C 35.4361,205.562 33.7695,207.895 32.5,210.5C 32.4823,212.373 32.9823,212.706 34,211.5C 34.3951,214.207 34.8951,216.873 35.5,219.5C 31.7597,216.401 30.593,212.401 32,207.5C 33.451,205.536 35.2843,204.203 37.5,203.5 Z"/></g>
<g><path style="opacity:1" fill="#f4b050" d="M 154.5,208.5 C 148.093,214.04 140.759,218.04 132.5,220.5C 133.007,219.141 134.007,218.141 135.5,217.5C 140.434,215.469 145.101,213.136 149.5,210.5C 149.5,208.833 149.5,207.167 149.5,205.5C 151.167,205.5 152.833,205.5 154.5,205.5C 154.5,206.5 154.5,207.5 154.5,208.5 Z"/></g>
<g><path style="opacity:1" fill="#f2ac45" d="M 132.5,220.5 C 126.052,224.205 119.052,226.538 111.5,227.5C 111.5,226.5 111.5,225.5 111.5,224.5C 114.5,224.5 117.5,224.5 120.5,224.5C 120.36,222.876 121.027,221.71 122.5,221C 125.817,220.502 129.15,220.335 132.5,220.5 Z"/></g>
<g><path style="opacity:1" fill="#f1be6d" d="M 45.5,225.5 C 49.767,226.256 53.767,227.589 57.5,229.5C 53.0845,229.139 49.0845,227.806 45.5,225.5 Z"/></g>
<g><path style="opacity:1" fill="#f4b760" d="M 107.5,228.5 C 103.733,229.795 99.7329,230.461 95.5,230.5C 95.6107,229.883 95.944,229.383 96.5,229C 100.152,228.501 103.818,228.335 107.5,228.5 Z"/></g>
<g><path style="opacity:1" fill="#efb359" d="M 57.5,229.5 C 69.8186,230.253 82.1519,230.586 94.5,230.5C 84.008,231.659 73.3414,231.825 62.5,231C 60.6183,230.802 58.9516,230.302 57.5,229.5 Z"/></g>
</svg>
