<?xml version="1.0" encoding="UTF-8"?>
<!DOCTYPE svg PUBLIC "-//W3C//DTD SVG 1.1//EN" "http://www.w3.org/Graphics/SVG/1.1/DTD/svg11.dtd">
<svg xmlns="http://www.w3.org/2000/svg" version="1.1" width="256px" height="256px" style="shape-rendering:geometricPrecision; text-rendering:geometricPrecision; image-rendering:optimizeQuality; fill-rule:evenodd; clip-rule:evenodd" xmlns:xlink="http://www.w3.org/1999/xlink">
<g><path style="opacity:0.947" fill="#b6413c" d="M 118.5,48.5 C 89.1667,48.5 59.8333,48.5 30.5,48.5C 31.8775,47.7656 33.3775,47.0989 35,46.5C 62.931,47.1627 90.7644,47.8293 118.5,48.5 Z"/></g>
<g><path style="opacity:1" fill="#cf312c" d="M 30.5,48.5 C 59.8333,48.5 89.1667,48.5 118.5,48.5C 118.5,62.5 118.5,76.5 118.5,90.5C 88.4981,90.6666 58.4981,90.5 28.5,90C 27.4366,88.8118 26.1033,88.3118 24.5,88.5C 24.1678,76.8143 24.5011,65.1477 25.5,53.5C 27.1112,52.6798 27.7778,51.3464 27.5,49.5C 28.391,48.8902 29.391,48.5569 30.5,48.5 Z"/></g>
<g><path style="opacity:1" fill="#fef9f4" d="M 25.5,49.5 C 24.2702,51.2972 23.6036,53.2972 23.5,55.5C 22.3734,54.8783 21.3734,54.045 20.5,53C 22.0488,51.786 23.2155,50.286 24,48.5C 24.3826,49.056 24.8826,49.3893 25.5,49.5 Z"/></g>
<g><path style="opacity:0.996" fill="#b73f3c" d="M 118.5,48.5 C 119.216,50.5563 119.883,52.723 120.5,55C 119.781,66.9352 119.447,79.1019 119.5,91.5C 88.4547,91.6475 57.6214,91.9808 27,92.5C 26,91.8333 25,91.1667 24,90.5C 23.5001,78.8381 23.3335,67.1714 23.5,55.5C 23.6036,53.2972 24.2702,51.2972 25.5,49.5C 26.1667,49.5 26.8333,49.5 27.5,49.5C 27.7778,51.3464 27.1112,52.6798 25.5,53.5C 24.5011,65.1477 24.1678,76.8143 24.5,88.5C 26.1033,88.3118 27.4366,88.8118 28.5,90C 58.4981,90.5 88.4981,90.6666 118.5,90.5C 118.5,76.5 118.5,62.5 118.5,48.5 Z"/></g>
<g><path style="opacity:1" fill="#b63f3c" d="M 136.5,47.5 C 166.835,47.3334 197.168,47.5 227.5,48C 229,48.8333 230.167,50 231,51.5C 231.822,64.742 231.655,77.9086 230.5,91C 198.835,91.5 167.168,91.6666 135.5,91.5C 135.184,76.755 135.517,62.0884 136.5,47.5 Z"/></g>
<g><path style="opacity:1" fill="#cf312c" d="M 137.5,48.5 C 167.174,48.1668 196.841,48.5002 226.5,49.5C 227.5,50.5 228.5,51.5 229.5,52.5C 229.833,58.6667 230.167,64.8333 230.5,71C 230.478,77.5741 229.811,83.9075 228.5,90C 197.835,90.5 167.168,90.6666 136.5,90.5C 136.238,76.4707 136.571,62.4707 137.5,48.5 Z"/></g>
<g><path style="opacity:0.978" fill="#b43f3d" d="M 24.5,107.5 C 40.1667,107.5 55.8333,107.5 71.5,107.5C 71.5,122.167 71.5,136.833 71.5,151.5C 55.8298,151.667 40.1631,151.5 24.5,151C 23.1746,136.5 23.1746,122 24.5,107.5 Z"/></g>
<g><path style="opacity:1" fill="#d0302c" d="M 26.5,108.5 C 41.1667,108.5 55.8333,108.5 70.5,108.5C 70.5,122.5 70.5,136.5 70.5,150.5C 55.4852,150.833 40.4852,150.499 25.5,149.5C 24.3525,136.546 24.1859,123.546 25,110.5C 25.7172,109.956 26.2172,109.289 26.5,108.5 Z"/></g>
<g><path style="opacity:0.999" fill="#b53f3d" d="M 230.5,150.5 C 215.009,151.496 199.342,151.83 183.5,151.5C 183.5,136.833 183.5,122.167 183.5,107.5C 199.17,107.333 214.837,107.5 230.5,108C 231.183,115.136 231.85,122.303 232.5,129.5C 231.866,136.63 231.199,143.63 230.5,150.5 Z"/></g>
<g><path style="opacity:1" fill="#d0302c" d="M 230.5,150.5 C 215.167,150.5 199.833,150.5 184.5,150.5C 184.5,136.5 184.5,122.5 184.5,108.5C 198.504,108.333 212.504,108.5 226.5,109C 227.5,109.5 228.5,110 229.5,110.5C 230.499,123.817 230.833,137.15 230.5,150.5 Z"/></g>
<g><path style="opacity:0.998" fill="#b43d3b" d="M 87.5,107.5 C 114.167,107.5 140.833,107.5 167.5,107.5C 168.833,122.167 168.833,136.833 167.5,151.5C 140.912,152.138 114.246,152.138 87.5,151.5C 87.5,136.833 87.5,122.167 87.5,107.5 Z"/></g>
<g><path style="opacity:1" fill="#d0302c" d="M 88.5,108.5 C 114.5,108.5 140.5,108.5 166.5,108.5C 166.5,122.5 166.5,136.5 166.5,150.5C 140.5,150.5 114.5,150.5 88.5,150.5C 88.5,136.5 88.5,122.5 88.5,108.5 Z"/></g>
<g><path style="opacity:0.984" fill="#b6403d" d="M 135.5,167.5 C 167.168,167.333 198.835,167.5 230.5,168C 231.654,179.757 231.821,191.591 231,203.5C 230.167,205 229,206.167 227.5,207C 197.167,207.667 166.833,207.667 136.5,207C 135.511,193.913 135.177,180.746 135.5,167.5 Z"/></g>
<g><path style="opacity:1" fill="#cf312d" d="M 24.5,168.5 C 55.8333,168.5 87.1667,168.5 118.5,168.5C 118.667,179.505 118.5,190.505 118,201.5C 116.731,202.905 116.231,204.571 116.5,206.5C 87.7746,207.154 59.2746,206.487 31,204.5C 30.586,204.957 30.086,205.291 29.5,205.5C 27.9246,204.544 26.258,203.877 24.5,203.5C 23.1667,191.833 23.1667,180.167 24.5,168.5 Z"/></g>
<g><path style="opacity:1" fill="#d0302c" d="M 136.5,168.5 C 167.502,168.333 198.502,168.5 229.5,169C 230.923,181.18 230.589,193.347 228.5,205.5C 198.525,206.469 168.525,206.802 138.5,206.5C 136.664,193.95 135.997,181.284 136.5,168.5 Z"/></g>
<g><path style="opacity:0.963" fill="#b73f3b" d="M 24.5,168.5 C 55.9956,167.502 87.6623,167.168 119.5,167.5C 119.823,180.746 119.489,193.913 118.5,207C 88.2469,208.217 57.9136,208.217 27.5,207C 25.9443,206.28 24.9443,205.113 24.5,203.5C 26.258,203.877 27.9246,204.544 29.5,205.5C 30.086,205.291 30.586,204.957 31,204.5C 59.2746,206.487 87.7746,207.154 116.5,206.5C 116.231,204.571 116.731,202.905 118,201.5C 118.5,190.505 118.667,179.505 118.5,168.5C 87.1667,168.5 55.8333,168.5 24.5,168.5 Z"/></g>
</svg>
