<?xml version="1.0" encoding="UTF-8"?>
<!DOCTYPE svg PUBLIC "-//W3C//DTD SVG 1.1//EN" "http://www.w3.org/Graphics/SVG/1.1/DTD/svg11.dtd">
<svg xmlns="http://www.w3.org/2000/svg" version="1.1" width="256px" height="256px" style="shape-rendering:geometricPrecision; text-rendering:geometricPrecision; image-rendering:optimizeQuality; fill-rule:evenodd; clip-rule:evenodd" xmlns:xlink="http://www.w3.org/1999/xlink">
<g><path style="opacity:1" fill="#0a313a" d="M 162.5,124.5 C 161.388,126.599 160.721,128.933 160.5,131.5C 160.128,135.297 158.794,138.63 156.5,141.5C 153.441,142.157 151.941,144.157 152,147.5C 151.667,146.833 151.333,146.167 151,145.5C 149.431,148.971 147.597,152.305 145.5,155.5C 144.833,155.167 144.167,154.833 143.5,154.5C 142.566,156.095 142.566,157.761 143.5,159.5C 139.669,164.164 135.336,168.33 130.5,172C 128.833,172.667 127.167,172.667 125.5,172C 106.217,159.217 94.8832,141.384 91.5,118.5C 93.8562,96.8105 105.856,84.8105 127.5,82.5C 149.484,84.4841 161.484,96.4841 163.5,118.5C 163.16,120.512 162.827,122.512 162.5,124.5 Z M 124.5,105.5 C 137.341,105.838 141.841,112.171 138,124.5C 129.899,132.93 122.565,132.263 116,122.5C 114.104,114.291 116.937,108.624 124.5,105.5 Z"/></g>
<g><path style="opacity:0.012" fill="#7a8789" d="M 162.5,124.5 C 162.662,126.527 162.495,128.527 162,130.5C 161.617,131.056 161.117,131.389 160.5,131.5C 160.721,128.933 161.388,126.599 162.5,124.5 Z"/></g>
<g><path style="opacity:1" fill="#354f55" d="M 156.5,141.5 C 153.144,148.215 148.81,154.215 143.5,159.5C 142.566,157.761 142.566,156.095 143.5,154.5C 144.167,154.833 144.833,155.167 145.5,155.5C 147.597,152.305 149.431,148.971 151,145.5C 151.333,146.167 151.667,146.833 152,147.5C 151.941,144.157 153.441,142.157 156.5,141.5 Z"/></g>
</svg>
